<?xml version="1.0" encoding="utf-8"?>
<!-- Generator: Adobe Illustrator 27.9.1, SVG Export Plug-In . SVG Version: 6.00 Build 0)  -->
<svg version="1.1" id="Layer_1" xmlns="http://www.w3.org/2000/svg" xmlns:xlink="http://www.w3.org/1999/xlink" x="0px" y="0px"
	 viewBox="0 0 250.1 91.2" style="enable-background:new 0 0 250.1 91.2;" xml:space="preserve">
<style type="text/css">
	.st0{fill:#171517;}
	.st1{fill:#D461A3;}
	.st2{fill:#FFFFFF;}
	.st3{fill:#F7F5F5;}
</style>
<g>
	<path class="st1" d="M108.3,19.9c0.1,0.3,0.1,0.7,0.1,1c0,3.8,0,7.6,0,11.4c0,0.2,0,0.4,0,0.7c4.6,0,9.1,0,13.6,0
		c0-0.2,0-0.5,0-0.7c0-5,0-10,0-15.1c0-1.1-0.1-2.2-0.3-3.3c-0.7-2.9-2.3-5.1-4.9-6.4c-2.1-1-4.4-1.3-6.7-1
		c-2.9,0.3-5.3,1.5-7.1,3.9c-0.4,0.5-0.4,0.5-0.8,0c-1.1-1.6-2.6-2.8-4.5-3.3c-2-0.6-3.9-0.8-6-0.5c-3,0.4-5.7,1.4-7.5,4
		c-0.2,0.3-0.4,0.3-0.7,0.1c-2.7-1.1-5.4-2.2-8.1-3.3c-0.6-0.2-1.2-0.2-1.8-0.3c0,8.7,0,17.2,0,25.8c4.6,0,9.1,0,13.7,0
		c0-0.2,0-0.4,0-0.6c0-3.9,0-7.7,0-11.6c0-0.4,0-0.8,0.1-1.1c0.2-0.9,0.9-1.4,1.7-1.4c0.9,0,1.6,0.5,1.8,1.4C91,20,91,20.4,91,20.8
		c0,3.9,0,7.8,0,11.7c0,0.2,0,0.4,0,0.6c4.6,0,9.1,0,13.6,0c0-0.2,0-0.4,0-0.6c0-3.9,0-7.7,0-11.6c0-0.2,0-0.4,0-0.6
		c0-1,0.7-1.8,1.6-1.9C107.3,18.3,108.1,18.8,108.3,19.9z"/>
	<path class="st1" d="M56.1,33.1c5.2,0,10.3,0,15.4,0c0-8.6,0-17.1,0-25.7c-4.8,0-9.5,0-14.3,0c0,0.3,0,0.5,0,0.7
		c0,3.8,0,7.6,0,11.4c0,0.3,0,0.6,0,0.9c-0.1,0.9-0.7,1.6-1.5,1.7c-1,0.1-1.7-0.3-2-1.2c-0.1-0.4-0.2-0.9-0.2-1.3
		c0-3.8,0-7.7,0-11.5c0-0.2,0-0.4,0-0.7c-4.8,0-9.5,0-14.4,0c0,0.2,0,0.5,0,0.7c0,4.6,0,9.2,0,13.9c0,1.2,0,2.3,0.1,3.5
		c0.2,2.1,0.9,4.1,2.3,5.7c1.9,2.1,4.3,2.7,7,2.7c1.6,0,3-0.4,4.4-1.1c1.9-1,3.1-2.7,3.8-4.7c0.1-0.2,0.2-0.3,0.3-0.5
		c0.1,0,0.1,0.1,0.2,0.1c-0.1,0.9-0.3,1.8-0.5,2.7C56.6,31.3,56.4,32.2,56.1,33.1z"/>
	<path class="st1" d="M13.3,32.1c3.3,0.5,6.5,1.6,9.9,1.8c2.4,0.1,4.7,0.3,7.1-0.4c4.1-1.1,7.3-4.3,7.5-8.7c0.1-3.2-1-5.8-3.8-7.5
		c-1.7-1-3.6-1.5-5.5-1.7c-0.8-0.1-1.5-0.1-2.3-0.1c0-0.2,0-0.3,0-0.6c0.5,0,0.9,0,1.3,0c1.6-0.1,3.2-0.4,4.7-1.2
		c2.6-1.4,3.9-3.5,3.8-6.4c-0.1-2.9-1.4-4.9-4-6.2C30.3,0.3,28.5,0,26.7,0C17.9,0,9.2,0,0.5,0C0.4,0,0.2,0,0,0c0,11.1,0,22.1,0,33.3
		c0.3,0,0.6,0,0.8-0.1C4.9,31.5,9.1,31.5,13.3,32.1z M15.4,8.2l1.2,0.1c0.2,0,0.5,0,0.7,0c0.6,0,1.1,0,1.7,0.1
		c1.3,0.2,2.2,1.2,2.2,2.5c0,1.3-0.8,2.4-2.1,2.6c-0.6,0.1-1.2,0.1-1.8,0.1c-0.2,0-0.5,0-0.7,0l-1.3,0.1V8.2z M15.4,18.6
		c0-0.2,0-0.4,0-0.6v-1.2h1.2c0.3,0,0.6,0,0.9,0c0.3,0,0.6,0,0.9,0c0.4,0,0.8,0,1.1,0c1.6,0.1,2.7,1.3,2.7,2.9c0,1.5-1.1,2.7-2.7,3
		c-0.2,0-0.4,0-0.6,0c-1.2,0-2.1-0.5-2.8-0.8c-0.5-0.3-0.8-0.8-0.8-1.3C15.4,19.9,15.4,19.3,15.4,18.6z"/>
	<path class="st1" d="M137.9,32.1c3.3,0.5,6.5,1.6,9.9,1.8c2.4,0.1,4.7,0.3,7.1-0.4c4.1-1.1,7.3-4.3,7.5-8.7c0.1-3.2-1-5.8-3.8-7.5
		c-1.7-1-3.6-1.5-5.5-1.7c-0.8-0.1-1.5-0.1-2.3-0.1c0-0.2,0-0.3,0-0.6c0.5,0,0.9,0,1.3,0c1.6-0.1,3.2-0.4,4.7-1.2
		c2.6-1.4,3.9-3.5,3.8-6.4c-0.1-2.9-1.4-4.9-4-6.2c-1.7-0.8-3.5-1.1-5.4-1.1c-8.7,0-17.4,0-26.1,0c-0.2,0-0.3,0-0.5,0
		c0,11.1,0,22.1,0,33.3c0.3,0,0.6,0,0.8-0.1C129.4,31.5,133.7,31.5,137.9,32.1z M140,8.2l1.2,0.1c0.2,0,0.5,0,0.7,0
		c0.6,0,1.1,0,1.7,0.1c1.3,0.2,2.2,1.2,2.2,2.5c0,1.3-0.8,2.4-2.1,2.6c-0.6,0.1-1.2,0.1-1.8,0.1c-0.2,0-0.5,0-0.7,0l-1.3,0.1V8.2z
		 M140,18.6c0-0.2,0-0.4,0-0.6v-1.2h1.2c0.3,0,0.6,0,0.9,0c0.3,0,0.6,0,0.9,0c0.4,0,0.8,0,1.1,0c1.6,0.1,2.7,1.3,2.7,2.9
		c0,1.5-1.1,2.7-2.7,3c-0.2,0-0.4,0-0.6,0c-1.2,0-2.1-0.5-2.8-0.8c-0.5-0.3-0.8-0.8-0.8-1.3C140,19.9,140,19.3,140,18.6z"/>
	<path class="st1" d="M213.2,32.4c0-3.9,0-7.7,0-11.6c0-0.4,0-0.8,0.1-1.1c0.2-0.9,0.9-1.4,1.7-1.4c0.9,0,1.6,0.5,1.8,1.4
		c0.1,0.3,0.1,0.7,0.1,1.1c0,3.9,0,7.8,0,11.7c0,0.2,0,0.4,0,0.6c4.6,0,9.1,0,13.6,0c0-0.2,0-0.4,0-0.6c0-3.9,0-7.7,0-11.6
		c0-0.2,0-0.4,0-0.6c0-1,0.7-1.8,1.6-1.9c1.1-0.1,1.9,0.5,2.1,1.6c0.1,0.3,0.1,0.7,0.1,1c0,3.8,0,7.6,0,11.4c0,0.2,0,0.4,0,0.7
		c4.6,0,9.1,0,13.6,0c0-0.2,0-0.5,0-0.7c0-5,0-10,0-15.1c0-1.1-0.1-2.2-0.3-3.3c-0.7-2.9-2.3-5.1-4.9-6.4c-2.1-1-4.4-1.3-6.7-1
		c-2.9,0.3-5.3,1.5-7.1,3.9c-0.4,0.5-0.4,0.5-0.8,0c-1.1-1.6-2.6-2.8-4.5-3.3c-2-0.6-3.9-0.8-6-0.5c-3,0.4-5.7,1.4-7.5,4
		c-0.2,0.3-0.4,0.3-0.7,0.1c-2.7-1.1-5.4-2.2-8.1-3.3c-0.6-0.2-1.2-0.2-1.8-0.3c0,8.7,0,17.2,0,25.8c4.6,0,9.1,0,13.7,0
		C213.2,32.8,213.2,32.6,213.2,32.4z"/>
	<path class="st1" d="M165.1,25.4c0.2,2.1,0.9,4.1,2.3,5.7c1.9,2.1,4.3,2.7,7,2.7c1.6,0,3-0.4,4.4-1.1c1.9-1,3.1-2.7,3.8-4.7
		c0.1-0.2,0.2-0.3,0.3-0.5c0.1,0,0.1,0.1,0.2,0.1c-0.1,0.9-0.3,1.8-0.5,2.7c-0.2,0.9-0.4,1.8-0.7,2.7c5.2,0,10.3,0,15.4,0
		c0-8.6,0-17.1,0-25.7c-4.8,0-9.5,0-14.3,0c0,0.3,0,0.5,0,0.7c0,3.8,0,7.6,0,11.4c0,0.3,0,0.6,0,0.9c-0.1,0.9-0.7,1.6-1.5,1.7
		c-1,0.1-1.7-0.3-2-1.2c-0.1-0.4-0.2-0.9-0.2-1.3c0-3.8,0-7.7,0-11.5c0-0.2,0-0.4,0-0.7c-4.8,0-9.5,0-14.4,0c0,0.2,0,0.5,0,0.7
		c0,4.6,0,9.2,0,13.9C165,23.1,165.1,24.2,165.1,25.4z"/>
	<path class="st1" d="M175.3,63.9c-0.9-4.2-3.1-7.5-7-9.5c-2.9-1.5-6-1.8-9.2-1.5c-4.2,0.4-7.7,2.1-10.3,5.5c-0.5,0.7-0.6,0.7-1.1,0
		c-1.6-2.3-3.7-3.9-6.3-4.7c-3.7-1.1-7.5-1.2-11.3-0.2c-3.2,0.8-5.8,2.4-7.7,5.2c-0.3,0.5-0.6,0.3-1,0.1c-3.9-1.6-7.7-3.2-11.6-4.7
		c-0.7-0.3-1.5-0.2-2.3-0.3c0,12.2,0,24.2,0,36.3c0.3,0,0.5,0,0.7,0c5.9,0,11.9,0,17.8,0c0.7,0,0.8-0.2,0.8-0.8c0-5.4,0-10.8,0-16.3
		c0-0.5,0-0.9,0.1-1.4c0.1-1.2,1-2.2,2.1-2.3c1.4-0.2,2.5,0.4,2.9,1.7c0.2,0.6,0.2,1.2,0.2,1.9c0,5.5,0,10.9,0,16.4
		c0,0.7,0.2,0.8,0.8,0.8c5.8,0,11.7,0,17.5,0c0.2,0,0.5,0,0.8,0c0-0.4,0-0.7,0-0.9c0-5.5,0-10.9,0-16.4c0-0.5,0.1-1,0.2-1.4
		c0.3-1.3,1.2-2,2.6-2c1.3,0,2.2,0.7,2.5,2c0.1,0.5,0.1,1,0.2,1.4c0,5.5,0,10.9,0,16.4c0,0.3,0,0.5,0,0.9c6.4,0,12.8,0,19.2,0
		c0-0.3,0-0.6,0-0.9c0-7.1,0-14.2,0-21.4C175.7,66.5,175.6,65.2,175.3,63.9z"/>
	<path class="st1" d="M86.8,59.2c-0.7,0.3-1.1,0.3-1.7-0.4c-2.9-3.8-6.9-5.8-11.7-6c-5.4-0.2-9.8,1.9-13.1,6.2
		c-2.4,3.2-3.7,6.9-4,10.9c-0.4,4.6,0.2,9,2.2,13.2c1.9,3.9,4.8,6.8,9.2,7.7c4.2,0.9,7.8-0.1,10.4-3.7c1.9-2.6,3-5.6,3.3-8.8
		c0.1-0.5,0.2-0.8,0.8-0.6c0,4.2-0.6,8.2-2.1,12.2c7.5,0,14.9,0,22.3,0c0-12.1,0-24.1,0-36.4c-0.9,0.2-1.8,0.2-2.6,0.5
		C95.5,55.8,91.1,57.5,86.8,59.2z M80.1,76.5L80.1,76.5c-2.7,0-4.8-2.2-4.9-4.8c0-2.7,2.1-4.9,4.8-4.9l0,0c1.3,0,2.5,0.5,3.4,1.4
		c0.9,0.9,1.4,2.1,1.3,3.4C84.8,74.3,82.7,76.5,80.1,76.5z"/>
	<path class="st1" d="M229.1,54.8c0,11.5,0,23,0,34.4c0,0.8,0.3,0.9,1,0.9c6.1,0,12.2,0,18.3,0c0.3,0,0.5,0,0.8,0
		c0-12.1,0-24.2,0-36.2c-6.7,0-13.4,0-20.1,0C229.1,54.2,229.1,54.5,229.1,54.8z"/>
	<path class="st1" d="M231.1,51.3c1.9,0.9,4,1.2,6.1,1.3c2.9,0.2,5.7,0,8.5-0.9c2.8-0.9,4.4-3,4.4-5.6c0-2.7-1.6-4.7-4.5-5.6
		c-2.2-0.7-4.4-0.8-6.7-1c-1.9,0.2-3.8,0.4-5.7,0.8c-1.7,0.3-3.3,1-4.5,2.5C227.1,44.9,227,49.3,231.1,51.3z"/>
	<path class="st1" d="M222.8,58.9c-2.4-3.5-5.7-5.7-10-6.1c-3.5-0.3-6.6,0.9-9.2,3.2c-1.9,1.7-3.4,3.7-4.5,6.1
		c-0.1,0.3-0.4,0.5-0.5,0.7c-0.1,0-0.2-0.1-0.2-0.1c0-6.2,0-12.4,0-18.6c-6.7,0-13.4,0-20.1,0c0,15.4,0,30.7,0,46
		c7.4,0,14.8,0,22.3,0c-1.2-3-2.1-6-2-9.2c0.1,0,0.2-0.1,0.2-0.1c0.2,0.3,0.3,0.6,0.5,1c1,2.3,2.4,4.3,4.2,6
		c3.6,3.3,7.8,4.4,12.4,2.7c3.7-1.3,6.2-4,8-7.4c2.2-4.1,3-8.5,2.7-13.2C226.2,65.9,225.1,62.2,222.8,58.9z M209.3,75.6
		c-1,1-2.4,1.6-3.9,1.6c0,0,0,0,0,0c-3,0-5.4-2.4-5.4-5.5c0-3,2.4-5.4,5.4-5.4h0c3,0,5.4,2.4,5.5,5.4
		C210.9,73.2,210.3,74.6,209.3,75.6z"/>
	<path class="st1" d="M48.7,67.5c-2.3-1.4-4.9-2-7.5-2.3c-1-0.1-2.1-0.1-3.1-0.2c0-0.2,0-0.5,0-0.8c0.6,0,1.2,0,1.8,0
		c2.2-0.1,4.4-0.6,6.4-1.6c3.5-1.9,5.3-4.8,5.2-8.7c-0.1-3.9-2-6.7-5.4-8.4c-2.3-1.1-4.8-1.5-7.3-1.5c-11.9,0-23.7,0-35.6,0
		c-0.2,0-0.5,0-0.7,0c0,15.1,0,30.1,0,45.3c0.4-0.1,0.8,0,1.1-0.2c5.5-2.3,11.3-2.3,17-1.5c4.5,0.7,8.9,2.1,13.5,2.4
		c3.2,0.2,6.4,0.4,9.6-0.5c5.6-1.5,9.9-5.9,10.2-11.8C54.1,73.4,52.5,69.9,48.7,67.5z M23.5,55.1l1.7,0.1c0.3,0,0.6,0,1,0
		c0.8,0,1.6,0,2.4,0.2c1.8,0.3,3,1.6,3,3.5c0,1.8-1.1,3.3-2.8,3.6c-0.9,0.1-1.7,0.2-2.5,0.2c-0.3,0-0.7,0-1,0l-1.7,0.1V55.1z
		 M29.1,74.8c-0.3,0-0.5,0.1-0.8,0.1c-1.6,0-2.8-0.6-3.8-1.2c-0.6-0.4-1.1-1.1-1.1-1.8c0-0.8,0-1.7,0-2.6c0-0.3,0-0.6,0-0.9v-1.6
		h1.6c0.4,0,0.8,0,1.2,0c0.4,0,0.8,0,1.2,0c0.6,0,1.1,0,1.6,0c2.1,0.1,3.7,1.8,3.7,3.9C32.7,72.9,31.2,74.6,29.1,74.8z"/>
</g>
</svg>
