<?xml version="1.0" encoding="utf-8"?>
<!-- Generator: Adobe Illustrator 27.9.1, SVG Export Plug-In . SVG Version: 6.00 Build 0)  -->
<svg version="1.1" id="Layer_1" xmlns="http://www.w3.org/2000/svg" xmlns:xlink="http://www.w3.org/1999/xlink" x="0px" y="0px"
	 viewBox="0 0 362.1 108.5" style="enable-background:new 0 0 362.1 108.5;" xml:space="preserve">
<style type="text/css">
	.st0{fill:#171517;}
	.st1{fill:#D461A3;}
	.st2{fill:#FFFFFF;}
	.st3{fill:#F7F5F5;}
</style>
<g>
	<g>
		<g>
			<g>
				<path class="st1" d="M73.6,107.7c-3.9,0-7.7,0-11.5,0c0-7.2,0-14.4,0-21.8c0.5,0.1,1.1,0.1,1.5,0.3c2.3,0.9,4.5,1.8,6.8,2.8
					c0.2,0.1,0.4,0.1,0.6-0.1c1.5-2.2,3.8-3.1,6.3-3.4c1.7-0.2,3.4-0.1,5,0.4c1.6,0.5,2.8,1.4,3.8,2.8c0.3,0.4,0.4,0.4,0.7,0
					c1.5-2,3.6-3,6-3.3c2-0.2,3.8,0,5.6,0.8c2.3,1.1,3.6,3,4.2,5.4c0.2,0.9,0.3,1.8,0.3,2.7c0,4.2,0,8.5,0,12.7c0,0.2,0,0.4,0,0.6
					c-3.8,0-7.6,0-11.5,0c0-0.2,0-0.4,0-0.6c0-3.2,0-6.4,0-9.7c0-0.3,0-0.6-0.1-0.9c-0.2-1-0.8-1.4-1.7-1.3
					c-0.8,0.1-1.3,0.7-1.4,1.6c0,0.2,0,0.4,0,0.5c0,3.2,0,6.5,0,9.7c0,0.2,0,0.3,0,0.5c-3.8,0-7.6,0-11.5,0c0-0.2,0-0.4,0-0.5
					c0-3.3,0-6.6,0-9.8c0-0.3,0-0.6-0.1-0.9c-0.2-0.7-0.8-1.1-1.5-1.1c-0.7,0-1.3,0.4-1.4,1.2c-0.1,0.3-0.1,0.6-0.1,0.9
					c0,3.3,0,6.5,0,9.8C73.6,107.4,73.6,107.5,73.6,107.7z"/>
				<path class="st1" d="M33,86.1c4.1,0,8.1,0,12.1,0c0,0.2,0,0.4,0,0.6c0,3.2,0,6.5,0,9.7c0,0.4,0,0.8,0.2,1.1
					c0.3,0.8,0.9,1.1,1.7,1c0.7-0.1,1.2-0.7,1.3-1.4c0-0.3,0-0.5,0-0.8c0-3.2,0-6.4,0-9.6c0-0.2,0-0.4,0-0.6c4,0,8,0,12.1,0
					c0,7.2,0,14.4,0,21.7c-4.3,0-8.6,0-13,0c0.2-0.8,0.4-1.5,0.6-2.2c0.2-0.8,0.3-1.5,0.4-2.3c-0.1,0-0.1-0.1-0.2-0.1
					c-0.1,0.1-0.2,0.2-0.3,0.4c-0.6,1.7-1.6,3.1-3.2,4c-1.2,0.6-2.4,0.9-3.7,0.9c-2.3,0-4.3-0.6-5.9-2.3c-1.2-1.4-1.8-3-2-4.8
					c-0.1-1-0.1-2-0.1-3c0-3.9,0-7.8,0-11.7C33,86.4,33,86.3,33,86.1z"/>
			</g>
		</g>
		<path class="st1" d="M28.6,94.4c-1.4-0.9-3-1.2-4.7-1.4C23.3,93,22.7,93,22,92.9c0-0.2,0-0.3,0-0.5c0.4,0,0.8,0,1.1,0
			c1.4-0.1,2.7-0.4,3.9-1c2.2-1.1,3.3-3,3.2-5.4c0-2.4-1.2-4.1-3.4-5.2c-1.4-0.7-3-0.9-4.5-0.9c-7.3,0-14.7,0-22,0
			c-0.1,0-0.3,0-0.4,0c0,9.4,0,18.7,0,28.1c0.2,0,0.5,0,0.7-0.1c3.4-1.4,7-1.4,10.6-0.9c2.8,0.4,5.5,1.3,8.4,1.5c2,0.1,4,0.2,6-0.3
			c3.4-1,6.1-3.7,6.3-7.3C32,98.1,31,95.9,28.6,94.4z M13,86.7l1.1,0.1c0.2,0,0.4,0,0.6,0c0.5,0,1,0,1.5,0.1c1.1,0.2,1.8,1,1.9,2.1
			c0,1.1-0.7,2-1.8,2.2c-0.5,0.1-1.1,0.1-1.6,0.1c-0.2,0-0.4,0-0.6,0L13,91.5V86.7z M16.5,99c-0.2,0-0.3,0-0.5,0
			c-1,0-1.8-0.4-2.3-0.7c-0.4-0.2-0.7-0.7-0.7-1.1c0-0.5,0-1,0-1.6c0-0.2,0-0.4,0-0.5v-1h1c0.3,0,0.5,0,0.7,0c0.2,0,0.5,0,0.7,0
			c0.4,0,0.7,0,1,0c1.3,0.1,2.3,1.1,2.3,2.4C18.7,97.8,17.8,98.8,16.5,99z"/>
		<path class="st1" d="M133.7,94.4c-1.4-0.9-3-1.2-4.7-1.4c-0.6-0.1-1.3-0.1-1.9-0.1c0-0.2,0-0.3,0-0.5c0.4,0,0.8,0,1.1,0
			c1.4-0.1,2.7-0.4,3.9-1c2.2-1.1,3.3-3,3.2-5.4c0-2.4-1.2-4.1-3.4-5.2c-1.4-0.7-3-0.9-4.5-0.9c-7.3,0-14.7,0-22,0
			c-0.1,0-0.3,0-0.4,0c0,9.4,0,18.7,0,28.1c0.2,0,0.5,0,0.7-0.1c3.4-1.4,7-1.4,10.6-0.9c2.8,0.4,5.5,1.3,8.4,1.5c2,0.1,4,0.2,6-0.3
			c3.4-1,6.1-3.7,6.3-7.3C137,98.1,136.1,95.9,133.7,94.4z M118.1,86.7l1.1,0.1c0.2,0,0.4,0,0.6,0c0.5,0,1,0,1.5,0.1
			c1.1,0.2,1.8,1,1.9,2.1c0,1.1-0.7,2-1.8,2.2c-0.5,0.1-1.1,0.1-1.6,0.1c-0.2,0-0.4,0-0.6,0l-1.1,0.1V86.7z M121.6,99
			c-0.2,0-0.3,0-0.5,0c-1,0-1.8-0.4-2.3-0.7c-0.4-0.2-0.7-0.7-0.7-1.1c0-0.5,0-1,0-1.6c0-0.2,0-0.4,0-0.5v-1h1c0.3,0,0.5,0,0.7,0
			c0.2,0,0.5,0,0.7,0c0.4,0,0.7,0,1,0c1.3,0.1,2.3,1.1,2.3,2.4C123.8,97.8,122.9,98.8,121.6,99z"/>
		<path class="st1" d="M179.8,107.7c-3.9,0-7.7,0-11.5,0c0-7.2,0-14.4,0-21.8c0.5,0.1,1.1,0.1,1.5,0.3c2.3,0.9,4.5,1.8,6.8,2.8
			c0.2,0.1,0.4,0.1,0.6-0.1c1.5-2.2,3.8-3.1,6.3-3.4c1.7-0.2,3.4-0.1,5,0.4c1.6,0.5,2.8,1.4,3.8,2.8c0.3,0.4,0.4,0.4,0.7,0
			c1.5-2,3.6-3,6-3.3c2-0.2,3.8,0,5.6,0.8c2.3,1.1,3.6,3,4.2,5.4c0.2,0.9,0.3,1.8,0.3,2.7c0,4.2,0,8.5,0,12.7c0,0.2,0,0.4,0,0.6
			c-3.8,0-7.6,0-11.5,0c0-0.2,0-0.4,0-0.6c0-3.2,0-6.4,0-9.7c0-0.3,0-0.6-0.1-0.9c-0.2-1-0.8-1.4-1.7-1.3c-0.8,0.1-1.3,0.7-1.4,1.6
			c0,0.2,0,0.4,0,0.5c0,3.2,0,6.5,0,9.7c0,0.2,0,0.3,0,0.5c-3.8,0-7.6,0-11.5,0c0-0.2,0-0.4,0-0.5c0-3.3,0-6.6,0-9.8
			c0-0.3,0-0.6-0.1-0.9c-0.2-0.7-0.8-1.1-1.5-1.1c-0.7,0-1.3,0.4-1.4,1.2c-0.1,0.3-0.1,0.6-0.1,0.9c0,3.3,0,6.5,0,9.8
			C179.8,107.4,179.8,107.5,179.8,107.7z"/>
		<path class="st1" d="M139.2,86.1c4.1,0,8.1,0,12.1,0c0,0.2,0,0.4,0,0.6c0,3.2,0,6.5,0,9.7c0,0.4,0,0.8,0.2,1.1
			c0.3,0.8,0.9,1.1,1.7,1c0.7-0.1,1.2-0.7,1.3-1.4c0-0.3,0-0.5,0-0.8c0-3.2,0-6.4,0-9.6c0-0.2,0-0.4,0-0.6c4,0,8,0,12.1,0
			c0,7.2,0,14.4,0,21.7c-4.3,0-8.6,0-13,0c0.2-0.8,0.4-1.5,0.6-2.2c0.2-0.8,0.3-1.5,0.4-2.3c-0.1,0-0.1-0.1-0.2-0.1
			c-0.1,0.1-0.2,0.2-0.3,0.4c-0.6,1.7-1.6,3.1-3.2,4c-1.2,0.6-2.4,0.9-3.7,0.9c-2.3,0-4.3-0.6-5.9-2.3c-1.2-1.4-1.8-3-2-4.8
			c-0.1-1-0.1-2-0.1-3c0-3.9,0-7.8,0-11.7C139.2,86.4,139.2,86.3,139.2,86.1z"/>
		<path class="st1" d="M241.5,94.4c-1.4-0.9-3-1.2-4.7-1.4c-0.6-0.1-1.3-0.1-1.9-0.1c0-0.2,0-0.3,0-0.5c0.4,0,0.8,0,1.1,0
			c1.4-0.1,2.7-0.4,3.9-1c2.2-1.1,3.3-3,3.2-5.4c0-2.4-1.2-4.1-3.4-5.2c-1.4-0.7-3-0.9-4.5-0.9c-7.3,0-14.7,0-22,0
			c-0.1,0-0.3,0-0.4,0c0,9.4,0,18.7,0,28.1c0.2,0,0.5,0,0.7-0.1c3.4-1.4,7-1.4,10.6-0.9c2.8,0.4,5.5,1.3,8.4,1.5c2,0.1,4,0.2,6-0.3
			c3.4-1,6.1-3.7,6.3-7.3C244.8,98.1,243.9,95.9,241.5,94.4z M225.9,86.7l1.1,0.1c0.2,0,0.4,0,0.6,0c0.5,0,1,0,1.5,0.1
			c1.1,0.2,1.8,1,1.9,2.1c0,1.1-0.7,2-1.8,2.2c-0.5,0.1-1.1,0.1-1.6,0.1c-0.2,0-0.4,0-0.6,0l-1.1,0.1V86.7z M229.4,99
			c-0.2,0-0.3,0-0.5,0c-1,0-1.8-0.4-2.3-0.7c-0.4-0.2-0.7-0.7-0.7-1.1c0-0.5,0-1,0-1.6c0-0.2,0-0.4,0-0.5v-1h1c0.3,0,0.5,0,0.7,0
			c0.2,0,0.5,0,0.7,0c0.4,0,0.7,0,1,0c1.3,0.1,2.3,1.1,2.3,2.4C231.6,97.8,230.7,98.8,229.4,99z"/>
		<path class="st1" d="M317.5,107.5c-3.8,0-7.6,0-11.5,0c0-0.2,0-0.3,0-0.5c0-3.3,0-6.6,0-9.8c0-0.3,0-0.6-0.1-0.9
			c-0.2-0.8-0.7-1.2-1.5-1.2c-0.8,0-1.4,0.4-1.5,1.2c-0.1,0.3-0.1,0.6-0.1,0.9c0,3.3,0,6.6,0,9.8c0,0.2,0,0.3,0,0.6
			c-0.2,0-0.3,0-0.5,0c-3.5,0-7,0-10.5,0c-0.4,0-0.5-0.1-0.5-0.5c0-3.3,0-6.6,0-9.8c0-0.4,0-0.8-0.1-1.1c-0.3-0.8-0.9-1.1-1.7-1
			c-0.6,0.1-1.2,0.7-1.2,1.4c0,0.3,0,0.5,0,0.8c0,3.2,0,6.5,0,9.7c0,0.4-0.1,0.5-0.5,0.5c-3.5,0-7.1,0-10.6,0c-0.1,0-0.3,0-0.4,0
			c0-7.2,0-14.4,0-21.7c0.5,0.1,0.9,0,1.4,0.2c2.3,0.9,4.6,1.9,6.9,2.8c0.2,0.1,0.4,0.2,0.6-0.1c1.1-1.6,2.7-2.6,4.6-3.1
			c2.3-0.6,4.5-0.6,6.8,0.1c1.6,0.5,2.8,1.4,3.8,2.8c0.3,0.4,0.4,0.4,0.7,0c1.6-2,3.7-3,6.2-3.3c1.9-0.2,3.8,0,5.5,0.9
			c2.3,1.2,3.7,3.1,4.2,5.7c0.2,0.8,0.2,1.6,0.2,2.4c0,4.3,0,8.5,0,12.8C317.5,107.1,317.5,107.3,317.5,107.5z"/>
		<path class="st1" d="M272.1,86c-2.6,1-5.2,2-7.8,3c-0.4,0.2-0.7,0.2-1-0.3c-1.8-2.3-4.1-3.5-7-3.6c-3.2-0.1-5.9,1.2-7.8,3.7
			c-1.5,1.9-2.2,4.1-2.4,6.5c-0.2,2.8,0.1,5.4,1.3,7.9c1.1,2.4,2.9,4.1,5.5,4.6c2.5,0.5,4.7-0.1,6.2-2.2c1.2-1.6,1.8-3.3,2-5.2
			c0-0.3,0.1-0.5,0.5-0.3c0,2.5-0.4,4.9-1.2,7.3c4.5,0,8.9,0,13.4,0c0-7.2,0-14.4,0-21.8C273.1,85.8,272.6,85.8,272.1,86z
			 M260.2,99.4L260.2,99.4c-1.6,0-2.9-1.3-2.9-2.9c0-1.6,1.3-2.9,2.9-3l0,0c0.8,0,1.5,0.3,2,0.9c0.5,0.5,0.8,1.3,0.8,2.1
			C263.1,98,261.8,99.3,260.2,99.4z"/>
		<path class="st1" d="M349.4,85.8c4.1,0,8,0,12,0c0,7.2,0,14.4,0,21.7c-0.2,0-0.3,0-0.5,0c-3.7,0-7.3,0-11,0
			c-0.4,0-0.6-0.1-0.6-0.6c0-6.9,0-13.7,0-20.6C349.4,86.2,349.4,86,349.4,85.8z"/>
		<path class="st1" d="M355.4,77.1c1.4,0.1,2.7,0.2,4,0.6c1.7,0.6,2.7,1.7,2.7,3.4c0,1.6-0.9,2.8-2.6,3.4c-1.6,0.5-3.3,0.7-5.1,0.5
			c-1.3-0.1-2.5-0.2-3.7-0.8c-2.5-1.2-2.4-3.8-1.4-5.1c0.7-0.9,1.6-1.3,2.7-1.5C353.1,77.4,354.2,77.3,355.4,77.1z"/>
		<path class="st1" d="M347.9,95.4c-0.2-2.4-0.8-4.6-2.2-6.6c-1.5-2.1-3.4-3.4-6-3.6c-2.1-0.2-3.9,0.5-5.5,1.9c-1.2,1-2,2.2-2.7,3.6
			c-0.1,0.2-0.2,0.3-0.3,0.4c0,0-0.1-0.1-0.1-0.1c0-3.7,0-7.4,0-11.1c-4,0-8,0-12,0c0,9.2,0,18.4,0,27.6c4.4,0,8.9,0,13.3,0
			c-0.7-1.8-1.3-3.6-1.2-5.5c0,0,0.1,0,0.1-0.1c0.1,0.2,0.2,0.4,0.3,0.6c0.6,1.4,1.4,2.6,2.5,3.6c2.2,2,4.7,2.6,7.4,1.6
			c2.2-0.8,3.7-2.4,4.8-4.4C347.6,100.8,348.1,98.2,347.9,95.4z M337.6,98.8c-0.6,0.6-1.4,1-2.3,1c0,0,0,0,0,0
			c-1.8,0-3.2-1.5-3.2-3.3c0-1.8,1.4-3.3,3.2-3.3h0c1.8,0,3.3,1.4,3.3,3.3C338.6,97.4,338.2,98.2,337.6,98.8z"/>
	</g>
	<path class="st1" d="M179.8,21.7c0,0-8.4-0.1-15.6,6.8C164.1,28.5,172.9,24.3,179.8,21.7z M211,33.6
		C211.1,33.6,211.1,33.6,211,33.6c0,0-3-3-8.4-3.1c-4.4-0.1-8.3,0.8-9.7,1.2c-1.1,0.1-1.8,0.8-2.3,1.9c-2.3,5.5-7.7,7.3-12.8,6.5
		c-7.1-1.1-13.2-4.3-18.4-9.2c-2-1.9-2.1-2.7-0.1-4.6c5.2-5,11.3-8.3,18.4-9.5c5.3-0.9,9.7,1,12.4,5.5l-0.1,0c0,0,1,3.5,4.5,3.8
		c1,0.1,2.3,0.1,3.9-0.1c0,0,0,0,0,0l0,0c0,0,0,0,0,0c0,0,0,0,0,0c0,0,0,0,0,0l0,0c3.3-0.5,11.1-2,13.5-6.8c0.7-1.4,0.9-3.2,0.9-5.6
		c-0.1-5.4-2.7-9.1-7.4-11.5c-3.1-1.6-6.5-2.1-10-2.1c-16.3,0-32.6,0-48.9,0c-0.3,0-0.6,0-1,0c0,20.7,0,41.4,0,62.2
		c0.5-0.1,1.1,0,1.5-0.2c7.6-3.1,15.5-3.2,23.4-2c6.2,0.9,12.2,2.9,18.5,3.3c4.4,0.3,8.9,0.5,13.2-0.7c7.6-2.1,13.6-8.1,14-16.2
		C216.5,41.1,215,36.8,211,33.6z"/>
</g>
</svg>
