<?xml version="1.0" encoding="utf-8"?>
<!-- Generator: Adobe Illustrator 27.9.1, SVG Export Plug-In . SVG Version: 6.00 Build 0)  -->
<svg version="1.1" id="Layer_1" xmlns="http://www.w3.org/2000/svg" xmlns:xlink="http://www.w3.org/1999/xlink" x="0px" y="0px"
	 viewBox="0 0 612 622.5" style="enable-background:new 0 0 612 622.5;" xml:space="preserve">
<style type="text/css">
	.st0{fill:#171517;}
	.st1{fill:#D461A3;}
	.st2{fill:#FFFFFF;}
	.st3{fill:#F7F5F5;}
</style>
<g>
	<path class="st1" d="M282.6,174.5c0.1,0.5,0.1,0.9,0.1,1.4c0,5.3,0,10.6,0,15.9c0,0.3,0,0.6,0,0.9c6.3,0,12.6,0,18.9,0
		c0-0.3,0-0.6,0-0.9c0-7,0-14,0-21c0-1.5-0.1-3.1-0.5-4.5c-0.9-4-3.2-7-6.9-8.9c-2.9-1.5-6.1-1.8-9.3-1.4c-4,0.5-7.4,2.1-9.9,5.4
		c-0.5,0.7-0.6,0.7-1.1,0c-1.6-2.3-3.6-3.8-6.3-4.6c-2.7-0.8-5.5-1-8.3-0.7c-4.2,0.5-7.9,2-10.4,5.6c-0.3,0.4-0.6,0.4-0.9,0.2
		c-3.7-1.5-7.5-3.1-11.2-4.6c-0.8-0.3-1.7-0.3-2.5-0.5c0,12.1,0,24,0,35.9c6.3,0,12.7,0,19,0c0-0.3,0-0.6,0-0.9c0-5.4,0-10.8,0-16.1
		c0-0.5,0.1-1.1,0.2-1.6c0.3-1.2,1.2-1.9,2.4-1.9c1.3,0,2.2,0.7,2.5,1.9c0.1,0.5,0.2,1,0.2,1.5c0,5.4,0,10.8,0,16.2
		c0,0.3,0,0.6,0,0.9c6.4,0,12.6,0,18.9,0c0-0.3,0-0.6,0-0.9c0-5.4,0-10.7,0-16.1c0-0.3,0-0.6,0-0.9c0.1-1.4,1-2.5,2.2-2.6
		C281.4,172.2,282.3,173,282.6,174.5z"/>
	<path class="st1" d="M210.1,192.8c7.2,0,14.3,0,21.4,0c0-11.9,0-23.8,0-35.7c-6.6,0-13.2,0-19.9,0c0,0.3,0,0.6,0,0.9
		c0,5.3,0,10.6,0,15.8c0,0.4,0,0.9,0,1.3c-0.1,1.3-1,2.2-2.2,2.3c-1.4,0.2-2.4-0.4-2.8-1.7c-0.2-0.6-0.3-1.2-0.3-1.8
		c0-5.3,0-10.7,0-16c0-0.3,0-0.6,0-0.9c-6.7,0-13.3,0-20,0c0,0.3,0,0.6,0,0.9c0,6.4,0,12.9,0,19.3c0,1.6,0,3.3,0.2,4.9
		c0.2,3,1.2,5.7,3.3,8c2.6,2.9,6,3.8,9.7,3.8c2.2,0,4.2-0.5,6.1-1.5c2.7-1.4,4.3-3.7,5.3-6.5c0.1-0.2,0.3-0.4,0.4-0.6
		c0.1,0.1,0.2,0.1,0.3,0.2c-0.2,1.2-0.4,2.5-0.6,3.7C210.8,190.3,210.5,191.5,210.1,192.8z"/>
	<path class="st1" d="M150.5,191.4c4.6,0.7,9.1,2.2,13.8,2.4c3.3,0.2,6.6,0.4,9.8-0.5c5.7-1.6,10.1-6,10.4-12
		c0.2-4.5-1.4-8.1-5.3-10.5c-2.4-1.4-5-2.1-7.7-2.3c-1-0.1-2.1-0.1-3.2-0.2c0-0.3,0-0.5,0-0.8c0.6,0,1.3,0,1.9,0
		c2.3-0.1,4.5-0.6,6.5-1.7c3.6-1.9,5.4-4.9,5.3-8.9c-0.1-4-2-6.8-5.5-8.6c-2.3-1.2-4.9-1.5-7.4-1.5c-12.1,0-24.2,0-36.4,0
		c-0.2,0-0.5,0-0.7,0c0,15.4,0,30.8,0,46.3c0.4-0.1,0.8,0,1.1-0.2C138.8,190.6,144.6,190.6,150.5,191.4z M153.5,158.1l1.7,0.1
		c0.3,0,0.6,0,1,0c0.8,0,1.6,0,2.4,0.2c1.8,0.3,3,1.7,3.1,3.5c0,1.9-1.2,3.4-2.9,3.7c-0.9,0.2-1.7,0.2-2.6,0.2c-0.3,0-0.7,0-1,0
		l-1.7,0.1V158.1z M153.4,172.7c0-0.3,0-0.6,0-0.9v-1.7h1.7c0.4,0,0.8,0,1.2,0c0.4,0,0.8,0,1.2,0c0.6,0,1.1,0,1.6,0
		c2.2,0.1,3.8,1.8,3.8,4c0,2.1-1.5,3.8-3.7,4.1c-0.3,0-0.5,0.1-0.8,0.1c-1.6,0-2.9-0.6-3.9-1.2c-0.6-0.4-1.1-1.1-1.1-1.9
		C153.4,174.5,153.4,173.6,153.4,172.7z"/>
	<path class="st1" d="M323.9,191.4c4.6,0.7,9.1,2.2,13.8,2.4c3.3,0.2,6.6,0.4,9.8-0.5c5.7-1.6,10.1-6,10.4-12
		c0.2-4.5-1.4-8.1-5.3-10.5c-2.4-1.4-5-2.1-7.7-2.3c-1-0.1-2.1-0.1-3.2-0.2c0-0.3,0-0.5,0-0.8c0.6,0,1.3,0,1.9,0
		c2.3-0.1,4.5-0.6,6.5-1.7c3.6-1.9,5.4-4.9,5.3-8.9c-0.1-4-2-6.8-5.5-8.6c-2.3-1.2-4.9-1.5-7.4-1.5c-12.1,0-24.2,0-36.4,0
		c-0.2,0-0.5,0-0.7,0c0,15.4,0,30.8,0,46.3c0.4-0.1,0.8,0,1.1-0.2C312.1,190.6,318,190.6,323.9,191.4z M326.8,158.1l1.7,0.1
		c0.3,0,0.6,0,1,0c0.8,0,1.6,0,2.4,0.2c1.8,0.3,3,1.7,3.1,3.5c0,1.9-1.2,3.4-2.9,3.7c-0.9,0.2-1.7,0.2-2.6,0.2c-0.3,0-0.7,0-1,0
		l-1.7,0.1V158.1z M326.8,172.7c0-0.3,0-0.6,0-0.9v-1.7h1.7c0.4,0,0.8,0,1.2,0c0.4,0,0.8,0,1.2,0c0.6,0,1.1,0,1.6,0
		c2.2,0.1,3.8,1.8,3.8,4c0,2.1-1.5,3.8-3.7,4.1c-0.3,0-0.5,0.1-0.8,0.1c-1.6,0-2.9-0.6-3.9-1.2c-0.6-0.4-1.1-1.1-1.1-1.9
		C326.7,174.5,326.7,173.6,326.8,172.7z"/>
	<path class="st1" d="M428.6,191.9c0-5.4,0-10.8,0-16.1c0-0.5,0.1-1.1,0.2-1.6c0.3-1.2,1.2-1.9,2.4-1.9c1.3,0,2.2,0.7,2.5,1.9
		c0.1,0.5,0.2,1,0.2,1.5c0,5.4,0,10.8,0,16.2c0,0.3,0,0.6,0,0.9c6.4,0,12.6,0,18.9,0c0-0.3,0-0.6,0-0.9c0-5.4,0-10.7,0-16.1
		c0-0.3,0-0.6,0-0.9c0.1-1.4,1-2.5,2.2-2.6c1.6-0.1,2.6,0.6,2.9,2.2c0.1,0.5,0.1,0.9,0.1,1.4c0,5.3,0,10.6,0,15.9c0,0.3,0,0.6,0,0.9
		c6.3,0,12.6,0,18.9,0c0-0.3,0-0.6,0-0.9c0-7,0-14,0-21c0-1.5-0.1-3.1-0.5-4.5c-0.9-4-3.2-7-6.9-8.9c-2.9-1.5-6.1-1.8-9.3-1.4
		c-4,0.5-7.4,2.1-9.9,5.4c-0.5,0.7-0.6,0.7-1.1,0c-1.6-2.3-3.6-3.8-6.3-4.6c-2.7-0.8-5.5-1-8.3-0.7c-4.2,0.5-7.9,2-10.4,5.6
		c-0.3,0.4-0.6,0.4-0.9,0.2c-3.7-1.5-7.5-3.1-11.2-4.6c-0.8-0.3-1.7-0.3-2.5-0.5c0,12.1,0,24,0,35.9c6.3,0,12.7,0,19,0
		C428.6,192.5,428.6,192.2,428.6,191.9z"/>
	<path class="st1" d="M361.8,182.1c0.2,3,1.2,5.7,3.3,8c2.6,2.9,6,3.8,9.7,3.8c2.2,0,4.2-0.5,6.1-1.5c2.7-1.4,4.3-3.7,5.3-6.5
		c0.1-0.2,0.3-0.4,0.4-0.6c0.1,0.1,0.2,0.1,0.3,0.2c-0.2,1.2-0.4,2.5-0.6,3.7c-0.3,1.2-0.6,2.4-1,3.7c7.2,0,14.3,0,21.4,0
		c0-11.9,0-23.8,0-35.7c-6.6,0-13.2,0-19.9,0c0,0.3,0,0.6,0,0.9c0,5.3,0,10.6,0,15.8c0,0.4,0,0.9,0,1.3c-0.1,1.3-1,2.2-2.2,2.3
		c-1.4,0.2-2.4-0.4-2.8-1.7c-0.2-0.6-0.3-1.2-0.3-1.8c0-5.3,0-10.7,0-16c0-0.3,0-0.6,0-0.9c-6.7,0-13.3,0-20,0c0,0.3,0,0.6,0,0.9
		c0,6.4,0,12.9,0,19.3C361.6,178.9,361.6,180.5,361.8,182.1z"/>
	<path class="st1" d="M375.9,235.6c-1.2-5.9-4.3-10.4-9.8-13.2c-4-2-8.4-2.5-12.8-2c-5.8,0.6-10.7,2.9-14.3,7.6c-0.8,1-0.9,1-1.6,0
		c-2.2-3.2-5.1-5.4-8.8-6.5c-5.2-1.6-10.5-1.6-15.7-0.2c-4.4,1.1-8.1,3.4-10.7,7.2c-0.5,0.7-0.9,0.4-1.3,0.2
		c-5.4-2.2-10.7-4.4-16.1-6.6c-1-0.4-2.1-0.3-3.1-0.4c0,17,0,33.7,0,50.5c0.4,0,0.7,0.1,1,0.1c8.2,0,16.5,0,24.7,0
		c0.9,0,1.1-0.3,1.1-1.2c0-7.5,0-15.1,0-22.6c0-0.6,0-1.3,0.1-1.9c0.2-1.7,1.4-3,2.9-3.2c2-0.2,3.4,0.5,4,2.3
		c0.3,0.8,0.3,1.7,0.3,2.6c0,7.6,0,15.2,0,22.8c0,0.9,0.3,1.2,1.2,1.2c8.1,0,16.2,0,24.3,0c0.3,0,0.7,0,1.1,0c0-0.5,0-0.9,0-1.3
		c0-7.6,0-15.2,0-22.8c0-0.7,0.1-1.3,0.2-2c0.4-1.8,1.7-2.8,3.6-2.8c1.8,0,3,1,3.4,2.8c0.1,0.6,0.2,1.3,0.2,2c0,7.6,0,15.2,0,22.8
		c0,0.4,0,0.8,0,1.2c8.9,0,17.8,0,26.7,0c0-0.5,0-0.8,0-1.2c0-9.9,0-19.8,0-29.7C376.4,239.3,376.3,237.5,375.9,235.6z"/>
	<path class="st1" d="M252.8,229.2c-1,0.4-1.6,0.4-2.3-0.6c-4.1-5.3-9.6-8.1-16.3-8.3c-7.5-0.3-13.6,2.7-18.2,8.7
		c-3.4,4.5-5.1,9.6-5.5,15.1c-0.5,6.4,0.2,12.6,3,18.4c2.6,5.5,6.6,9.4,12.8,10.7c5.8,1.2,10.8-0.1,14.5-5.1
		c2.7-3.6,4.1-7.7,4.6-12.2c0.1-0.7,0.2-1.1,1.1-0.8c0,5.8-0.9,11.4-2.9,16.9c10.4,0,20.7,0,31,0c0-16.8,0-33.5,0-50.6
		c-1.3,0.2-2.5,0.3-3.6,0.7C264.9,224.4,258.8,226.8,252.8,229.2z M243.4,253.3L243.4,253.3c-3.7,0-6.7-3-6.8-6.7
		c0-3.8,2.9-6.8,6.7-6.9l0.1,0c1.8,0,3.5,0.7,4.7,2c1.2,1.3,1.9,3,1.9,4.8C250,250.2,247.1,253.2,243.4,253.3z"/>
	<path class="st1" d="M450.7,223c0,16,0,31.9,0,47.9c0,1.1,0.4,1.3,1.4,1.3c8.5,0,17,0,25.5,0c0.4,0,0.8,0,1.2,0
		c0-16.9,0-33.6,0-50.4c-9.3,0-18.6,0-28,0C450.7,222.3,450.7,222.6,450.7,223z"/>
	<path class="st1" d="M453.6,218.1c2.7,1.3,5.6,1.6,8.5,1.8c4,0.2,7.9,0,11.8-1.3c3.9-1.3,6.2-4.2,6.1-7.8c0-3.7-2.3-6.5-6.3-7.8
		c-3-1-6.1-1.2-9.3-1.5c-2.6,0.3-5.3,0.6-7.9,1.1c-2.4,0.5-4.7,1.5-6.2,3.5C447.9,209.3,447.8,215.5,453.6,218.1z"/>
	<path class="st1" d="M442,228.7c-3.4-4.9-7.9-8-14-8.4c-4.9-0.4-9.1,1.2-12.8,4.4c-2.7,2.3-4.7,5.2-6.2,8.4c-0.2,0.4-0.5,0.6-0.8,1
		c-0.1-0.1-0.2-0.1-0.3-0.2c0-8.6,0-17.2,0-25.9c-9.4,0-18.7,0-28,0c0,21.4,0,42.7,0,64c10.3,0,20.6,0,31,0
		c-1.6-4.2-2.9-8.3-2.8-12.8c0.1,0,0.2-0.1,0.3-0.1c0.2,0.4,0.5,0.9,0.7,1.3c1.4,3.2,3.3,6,5.9,8.3c5,4.6,10.8,6.1,17.3,3.8
		c5.1-1.8,8.6-5.6,11.1-10.2c3.1-5.7,4.2-11.9,3.7-18.4C446.7,238.5,445.2,233.3,442,228.7z M423.2,252c-1.4,1.4-3.3,2.2-5.4,2.2
		c0,0,0,0,0,0c-4.2,0-7.5-3.4-7.5-7.7c0-4.2,3.3-7.6,7.5-7.6h0c4.2,0,7.6,3.3,7.6,7.6C425.4,248.7,424.6,250.6,423.2,252z"/>
	<path class="st1" d="M199.8,240.7c-3.2-2-6.8-2.8-10.5-3.2c-1.4-0.1-2.9-0.2-4.3-0.3c0-0.3,0-0.6,0-1.1c0.9,0,1.7,0,2.5,0
		c3.1-0.2,6.1-0.8,8.9-2.3c4.9-2.6,7.3-6.6,7.2-12.1c-0.1-5.4-2.7-9.3-7.5-11.6c-3.2-1.6-6.6-2.1-10.1-2.1c-16.5,0-33,0-49.5,0
		c-0.3,0-0.6,0-1,0c0,21,0,41.9,0,63c0.5-0.1,1.1,0,1.5-0.2c7.7-3.1,15.7-3.2,23.7-2c6.3,0.9,12.4,2.9,18.7,3.3
		c4.5,0.3,9,0.5,13.4-0.7c7.7-2.1,13.8-8.2,14.1-16.4C207.2,248.9,205.1,244,199.8,240.7z M164.7,223.4l2.4,0.1c0.4,0,0.9,0,1.3,0
		c1.1,0,2.2,0.1,3.3,0.2c2.5,0.4,4.1,2.3,4.2,4.8c0,2.5-1.6,4.6-3.9,5c-1.2,0.2-2.4,0.2-3.5,0.3c-0.5,0-0.9,0-1.4,0l-2.4,0.1V223.4z
		 M172.5,250.9c-0.4,0.1-0.7,0.1-1.1,0.1c-2.2,0-4-0.9-5.3-1.6c-0.9-0.5-1.5-1.5-1.5-2.5c0-1.2,0-2.3,0-3.6c0-0.4,0-0.8,0-1.2v-2.3
		h2.3c0.6,0,1.1,0,1.7,0c0.6,0,1.1,0,1.6,0c0.8,0,1.5,0,2.2,0.1c3,0.2,5.2,2.5,5.2,5.5C177.5,248.2,175.5,250.5,172.5,250.9z"/>
</g>
<rect x="-1" y="407.4" class="st1" width="307.5" height="214"/>
<rect x="305.5" y="407.4" class="st0" width="307.5" height="214"/>
<g>
	<path class="st2" d="M142,498c0,0.2,0.1,0.4,0.1,0.7c0,2.4,0,4.9,0,7.3c0,0.1,0,0.3,0,0.4c2.9,0,5.8,0,8.7,0c0-0.2,0-0.3,0-0.4
		c0-3.2,0-6.4,0-9.7c0-0.7-0.1-1.4-0.2-2.1c-0.4-1.8-1.5-3.2-3.2-4.1c-1.4-0.7-2.8-0.8-4.3-0.6c-1.9,0.2-3.4,1-4.6,2.5
		c-0.2,0.3-0.3,0.3-0.5,0c-0.7-1-1.7-1.8-2.9-2.1c-1.3-0.4-2.5-0.5-3.8-0.3c-1.9,0.2-3.6,0.9-4.8,2.6c-0.1,0.2-0.3,0.2-0.4,0.1
		c-1.7-0.7-3.4-1.4-5.2-2.1c-0.4-0.1-0.8-0.1-1.2-0.2c0,5.6,0,11.1,0,16.5c2.9,0,5.8,0,8.8,0c0-0.1,0-0.3,0-0.4c0-2.5,0-5,0-7.4
		c0-0.2,0-0.5,0.1-0.7c0.1-0.5,0.5-0.9,1.1-0.9c0.6,0,1,0.3,1.2,0.9c0.1,0.2,0.1,0.5,0.1,0.7c0,2.5,0,5,0,7.5c0,0.1,0,0.3,0,0.4
		c2.9,0,5.8,0,8.7,0c0-0.2,0-0.3,0-0.4c0-2.5,0-4.9,0-7.4c0-0.1,0-0.3,0-0.4c0-0.7,0.5-1.1,1-1.2C141.4,496.9,141.9,497.2,142,498z"
		/>
	<path class="st2" d="M108.6,506.4c3.3,0,6.6,0,9.9,0c0-5.5,0-11,0-16.5c-3.1,0-6.1,0-9.2,0c0,0.2,0,0.3,0,0.4c0,2.4,0,4.9,0,7.3
		c0,0.2,0,0.4,0,0.6c-0.1,0.6-0.4,1-1,1.1c-0.6,0.1-1.1-0.2-1.3-0.8c-0.1-0.3-0.1-0.6-0.1-0.8c0-2.5,0-4.9,0-7.4c0-0.1,0-0.3,0-0.4
		c-3.1,0-6.1,0-9.2,0c0,0.2,0,0.3,0,0.4c0,3,0,5.9,0,8.9c0,0.7,0,1.5,0.1,2.2c0.1,1.4,0.6,2.6,1.5,3.7c1.2,1.3,2.8,1.8,4.5,1.7
		c1,0,1.9-0.2,2.8-0.7c1.2-0.7,2-1.7,2.4-3c0-0.1,0.1-0.2,0.2-0.3c0,0,0.1,0,0.1,0.1c-0.1,0.6-0.2,1.2-0.3,1.7
		C108.9,505.2,108.7,505.8,108.6,506.4z"/>
	<path class="st2" d="M81.1,505.8c2.1,0.3,4.2,1,6.3,1.1c1.5,0.1,3,0.2,4.5-0.2c2.6-0.7,4.7-2.8,4.8-5.5c0.1-2.1-0.6-3.7-2.4-4.8
		c-1.1-0.7-2.3-0.9-3.5-1.1c-0.5,0-1-0.1-1.5-0.1c0-0.1,0-0.2,0-0.4c0.3,0,0.6,0,0.9,0c1.1-0.1,2.1-0.3,3-0.8
		c1.6-0.9,2.5-2.2,2.4-4.1c0-1.8-0.9-3.1-2.5-3.9c-1.1-0.5-2.2-0.7-3.4-0.7c-5.6,0-11.2,0-16.8,0c-0.1,0-0.2,0-0.3,0
		c0,7.1,0,14.2,0,21.3c0.2,0,0.4,0,0.5-0.1C75.7,505.4,78.4,505.3,81.1,505.8z M82.5,490.4l0.8,0c0.1,0,0.3,0,0.4,0
		c0.4,0,0.7,0,1.1,0.1c0.8,0.1,1.4,0.8,1.4,1.6c0,0.9-0.5,1.6-1.3,1.7c-0.4,0.1-0.8,0.1-1.2,0.1c-0.2,0-0.3,0-0.5,0l-0.8,0V490.4z
		 M82.5,497.1c0-0.1,0-0.3,0-0.4V496h0.8c0.2,0,0.4,0,0.6,0c0.2,0,0.4,0,0.6,0c0.3,0,0.5,0,0.7,0c1,0.1,1.7,0.8,1.7,1.8
		c0,1-0.7,1.8-1.7,1.9c-0.1,0-0.3,0-0.4,0c-0.7,0-1.3-0.3-1.8-0.5c-0.3-0.2-0.5-0.5-0.5-0.9C82.5,497.9,82.5,497.5,82.5,497.1z"/>
	<path class="st2" d="M161,505.8c2.1,0.3,4.2,1,6.3,1.1c1.5,0.1,3,0.2,4.5-0.2c2.6-0.7,4.7-2.8,4.8-5.5c0.1-2.1-0.6-3.7-2.4-4.8
		c-1.1-0.7-2.3-0.9-3.5-1.1c-0.5,0-1-0.1-1.5-0.1c0-0.1,0-0.2,0-0.4c0.3,0,0.6,0,0.9,0c1.1-0.1,2.1-0.3,3-0.8
		c1.6-0.9,2.5-2.2,2.4-4.1c0-1.8-0.9-3.1-2.5-3.9c-1.1-0.5-2.2-0.7-3.4-0.7c-5.6,0-11.2,0-16.8,0c-0.1,0-0.2,0-0.3,0
		c0,7.1,0,14.2,0,21.3c0.2,0,0.4,0,0.5-0.1C155.6,505.4,158.3,505.3,161,505.8z M162.3,490.4l0.8,0c0.1,0,0.3,0,0.4,0
		c0.4,0,0.7,0,1.1,0.1c0.8,0.1,1.4,0.8,1.4,1.6c0,0.9-0.5,1.6-1.3,1.7c-0.4,0.1-0.8,0.1-1.2,0.1c-0.2,0-0.3,0-0.5,0l-0.8,0V490.4z
		 M162.3,497.1c0-0.1,0-0.3,0-0.4V496h0.8c0.2,0,0.4,0,0.6,0c0.2,0,0.4,0,0.6,0c0.3,0,0.5,0,0.7,0c1,0.1,1.7,0.8,1.7,1.8
		c0,1-0.7,1.8-1.7,1.9c-0.1,0-0.3,0-0.4,0c-0.7,0-1.3-0.3-1.8-0.5c-0.3-0.2-0.5-0.5-0.5-0.9C162.3,497.9,162.3,497.5,162.3,497.1z"
		/>
	<path class="st2" d="M209.2,506c0-2.5,0-5,0-7.4c0-0.2,0-0.5,0.1-0.7c0.1-0.5,0.5-0.9,1.1-0.9c0.6,0,1,0.3,1.2,0.9
		c0.1,0.2,0.1,0.5,0.1,0.7c0,2.5,0,5,0,7.5c0,0.1,0,0.3,0,0.4c2.9,0,5.8,0,8.7,0c0-0.2,0-0.3,0-0.4c0-2.5,0-4.9,0-7.4
		c0-0.1,0-0.3,0-0.4c0-0.7,0.5-1.1,1-1.2c0.7-0.1,1.2,0.3,1.3,1c0,0.2,0.1,0.4,0.1,0.7c0,2.4,0,4.9,0,7.3c0,0.1,0,0.3,0,0.4
		c2.9,0,5.8,0,8.7,0c0-0.2,0-0.3,0-0.4c0-3.2,0-6.4,0-9.7c0-0.7-0.1-1.4-0.2-2.1c-0.4-1.8-1.5-3.2-3.2-4.1c-1.4-0.7-2.8-0.8-4.3-0.6
		c-1.9,0.2-3.4,1-4.6,2.5c-0.2,0.3-0.3,0.3-0.5,0c-0.7-1-1.7-1.8-2.9-2.1c-1.3-0.4-2.5-0.5-3.8-0.3c-1.9,0.2-3.6,0.9-4.8,2.6
		c-0.1,0.2-0.3,0.2-0.4,0.1c-1.7-0.7-3.4-1.4-5.2-2.1c-0.4-0.1-0.8-0.1-1.2-0.2c0,5.6,0,11.1,0,16.5c2.9,0,5.8,0,8.8,0
		C209.2,506.2,209.2,506.1,209.2,506z"/>
	<path class="st2" d="M178.4,501.5c0.1,1.4,0.6,2.6,1.5,3.7c1.2,1.3,2.8,1.8,4.5,1.7c1,0,1.9-0.2,2.8-0.7c1.2-0.7,2-1.7,2.4-3
		c0-0.1,0.1-0.2,0.2-0.3c0,0,0.1,0,0.1,0.1c-0.1,0.6-0.2,1.2-0.3,1.7c-0.1,0.6-0.3,1.1-0.4,1.7c3.3,0,6.6,0,9.9,0c0-5.5,0-11,0-16.5
		c-3.1,0-6.1,0-9.2,0c0,0.2,0,0.3,0,0.4c0,2.4,0,4.9,0,7.3c0,0.2,0,0.4,0,0.6c-0.1,0.6-0.4,1-1,1.1c-0.6,0.1-1.1-0.2-1.3-0.8
		c-0.1-0.3-0.1-0.6-0.1-0.8c0-2.5,0-4.9,0-7.4c0-0.1,0-0.3,0-0.4c-3.1,0-6.1,0-9.2,0c0,0.2,0,0.3,0,0.4c0,3,0,5.9,0,8.9
		C178.4,500,178.4,500.7,178.4,501.5z"/>
	<path class="st2" d="M185,526.1c-0.5-2.7-2-4.8-4.5-6.1c-1.9-0.9-3.9-1.2-5.9-0.9c-2.7,0.3-4.9,1.3-6.6,3.5c-0.3,0.5-0.4,0.5-0.7,0
		c-1-1.5-2.4-2.5-4.1-3c-2.4-0.7-4.8-0.7-7.2-0.1c-2,0.5-3.7,1.6-4.9,3.3c-0.2,0.3-0.4,0.2-0.6,0.1c-2.5-1-4.9-2-7.4-3
		c-0.4-0.2-1-0.1-1.4-0.2c0,7.8,0,15.5,0,23.3c0.2,0,0.3,0,0.5,0c3.8,0,7.6,0,11.4,0c0.4,0,0.5-0.2,0.5-0.5c0-3.5,0-7,0-10.4
		c0-0.3,0-0.6,0-0.9c0.1-0.8,0.7-1.4,1.3-1.5c0.9-0.1,1.6,0.2,1.9,1.1c0.1,0.4,0.2,0.8,0.2,1.2c0,3.5,0,7,0,10.5
		c0,0.4,0.1,0.5,0.5,0.5c3.7,0,7.5,0,11.2,0c0.2,0,0.3,0,0.5,0c0-0.2,0-0.4,0-0.6c0-3.5,0-7,0-10.5c0-0.3,0-0.6,0.1-0.9
		c0.2-0.8,0.8-1.3,1.6-1.3c0.8,0,1.4,0.5,1.6,1.3c0.1,0.3,0.1,0.6,0.1,0.9c0,3.5,0,7,0,10.5c0,0.2,0,0.3,0,0.5c4.1,0,8.2,0,12.3,0
		c0-0.2,0-0.4,0-0.6c0-4.6,0-9.1,0-13.7C185.2,527.8,185.1,526.9,185,526.1z"/>
	<path class="st2" d="M128.2,523.1c-0.5,0.2-0.7,0.2-1.1-0.3c-1.9-2.5-4.4-3.7-7.5-3.8c-3.5-0.1-6.3,1.2-8.4,4
		c-1.6,2.1-2.4,4.4-2.6,7c-0.2,2.9,0.1,5.8,1.4,8.5c1.2,2.5,3.1,4.3,5.9,4.9c2.7,0.6,5-0.1,6.7-2.3c1.2-1.7,1.9-3.6,2.1-5.6
		c0-0.3,0.1-0.5,0.5-0.4c0,2.7-0.4,5.3-1.3,7.8c4.8,0,9.5,0,14.3,0c0-7.7,0-15.5,0-23.3c-0.6,0.1-1.2,0.1-1.7,0.3
		C133.8,521,131,522,128.2,523.1z M123.9,534.2L123.9,534.2c-1.7,0-3.1-1.4-3.1-3.1c0-1.8,1.3-3.1,3.1-3.2l0,0
		c0.8,0,1.6,0.3,2.2,0.9c0.6,0.6,0.9,1.4,0.9,2.2C127,532.8,125.6,534.2,123.9,534.2z"/>
	<path class="st2" d="M219.4,520.3c0,7.4,0,14.7,0,22.1c0,0.5,0.2,0.6,0.6,0.6c3.9,0,7.8,0,11.7,0c0.2,0,0.3,0,0.5,0
		c0-7.8,0-15.5,0-23.2c-4.3,0-8.6,0-12.9,0C219.4,519.9,219.4,520.1,219.4,520.3z"/>
	<path class="st2" d="M220.7,518c1.2,0.6,2.6,0.7,3.9,0.8c1.8,0.1,3.7,0,5.4-0.6c1.8-0.6,2.8-1.9,2.8-3.6c0-1.7-1-3-2.9-3.6
		c-1.4-0.5-2.8-0.5-4.3-0.7c-1.2,0.2-2.4,0.3-3.7,0.5c-1.1,0.2-2.1,0.7-2.9,1.6C218.1,514,218.1,516.8,220.7,518z"/>
	<path class="st2" d="M215.4,522.9c-1.6-2.2-3.7-3.7-6.4-3.9c-2.2-0.2-4.2,0.6-5.9,2c-1.2,1.1-2.2,2.4-2.9,3.9
		c-0.1,0.2-0.2,0.3-0.3,0.4c0,0-0.1-0.1-0.1-0.1c0-4,0-7.9,0-11.9c-4.3,0-8.6,0-12.9,0c0,9.9,0,19.7,0,29.5c4.8,0,9.5,0,14.3,0
		c-0.8-1.9-1.3-3.8-1.3-5.9c0.1,0,0.1,0,0.2-0.1c0.1,0.2,0.2,0.4,0.3,0.6c0.6,1.5,1.5,2.8,2.7,3.8c2.3,2.1,5,2.8,8,1.7
		c2.3-0.8,3.9-2.6,5.1-4.7c1.4-2.6,1.9-5.5,1.7-8.5C217.6,527.4,216.9,525,215.4,522.9z M206.8,533.7c-0.7,0.7-1.5,1-2.5,1
		c0,0,0,0,0,0c-1.9,0-3.5-1.6-3.5-3.5c0-2,1.5-3.5,3.4-3.5h0c1.9,0,3.5,1.5,3.5,3.5C207.8,532.1,207.4,533,206.8,533.7z"/>
	<path class="st2" d="M103.8,528.5c-1.5-0.9-3.1-1.3-4.8-1.5c-0.7-0.1-1.3-0.1-2-0.1c0-0.2,0-0.3,0-0.5c0.4,0,0.8,0,1.2,0
		c1.4-0.1,2.8-0.4,4.1-1.1c2.2-1.2,3.4-3.1,3.3-5.6c0-2.5-1.3-4.3-3.5-5.4c-1.5-0.7-3.1-1-4.7-1c-7.6,0-15.2,0-22.8,0
		c-0.1,0-0.3,0-0.5,0c0,9.7,0,19.3,0,29c0.3,0,0.5,0,0.7-0.1c3.5-1.4,7.2-1.5,10.9-0.9c2.9,0.4,5.7,1.4,8.6,1.5
		c2.1,0.1,4.1,0.2,6.2-0.3c3.6-1,6.4-3.8,6.5-7.5C107.3,532.2,106.3,530,103.8,528.5z M87.6,520.5l1.1,0.1c0.2,0,0.4,0,0.6,0
		c0.5,0,1,0,1.5,0.1c1.1,0.2,1.9,1,1.9,2.2c0,1.2-0.7,2.1-1.8,2.3c-0.6,0.1-1.1,0.1-1.6,0.1c-0.2,0-0.4,0-0.6,0l-1.1,0.1V520.5z
		 M91.3,533.2c-0.2,0-0.3,0-0.5,0c-1,0-1.8-0.4-2.4-0.7c-0.4-0.2-0.7-0.7-0.7-1.2c0-0.5,0-1.1,0-1.6c0-0.2,0-0.4,0-0.6v-1h1
		c0.3,0,0.5,0,0.8,0c0.3,0,0.5,0,0.8,0c0.4,0,0.7,0,1,0c1.4,0.1,2.4,1.2,2.4,2.5C93.6,531.9,92.6,533,91.3,533.2z"/>
</g>
<g>
	<path class="st2" d="M448.5,498c0,0.2,0.1,0.4,0.1,0.7c0,2.4,0,4.9,0,7.3c0,0.1,0,0.3,0,0.4c2.9,0,5.8,0,8.7,0c0-0.2,0-0.3,0-0.4
		c0-3.2,0-6.4,0-9.7c0-0.7-0.1-1.4-0.2-2.1c-0.4-1.8-1.5-3.2-3.2-4.1c-1.4-0.7-2.8-0.8-4.3-0.6c-1.9,0.2-3.4,1-4.6,2.5
		c-0.2,0.3-0.3,0.3-0.5,0c-0.7-1-1.7-1.8-2.9-2.1c-1.3-0.4-2.5-0.5-3.8-0.3c-1.9,0.2-3.6,0.9-4.8,2.6c-0.1,0.2-0.3,0.2-0.4,0.1
		c-1.7-0.7-3.4-1.4-5.2-2.1c-0.4-0.1-0.8-0.1-1.2-0.2c0,5.6,0,11.1,0,16.5c2.9,0,5.8,0,8.8,0c0-0.1,0-0.3,0-0.4c0-2.5,0-5,0-7.4
		c0-0.2,0-0.5,0.1-0.7c0.1-0.5,0.5-0.9,1.1-0.9c0.6,0,1,0.3,1.2,0.9c0.1,0.2,0.1,0.5,0.1,0.7c0,2.5,0,5,0,7.5c0,0.1,0,0.3,0,0.4
		c2.9,0,5.8,0,8.7,0c0-0.2,0-0.3,0-0.4c0-2.5,0-4.9,0-7.4c0-0.1,0-0.3,0-0.4c0-0.7,0.5-1.1,1-1.2C447.9,496.9,448.3,497.2,448.5,498
		z"/>
	<path class="st2" d="M415.1,506.4c3.3,0,6.6,0,9.9,0c0-5.5,0-11,0-16.5c-3.1,0-6.1,0-9.2,0c0,0.2,0,0.3,0,0.4c0,2.4,0,4.9,0,7.3
		c0,0.2,0,0.4,0,0.6c-0.1,0.6-0.4,1-1,1.1c-0.6,0.1-1.1-0.2-1.3-0.8c-0.1-0.3-0.1-0.6-0.1-0.8c0-2.5,0-4.9,0-7.4c0-0.1,0-0.3,0-0.4
		c-3.1,0-6.1,0-9.2,0c0,0.2,0,0.3,0,0.4c0,3,0,5.9,0,8.9c0,0.7,0,1.5,0.1,2.2c0.1,1.4,0.6,2.6,1.5,3.7c1.2,1.3,2.8,1.8,4.5,1.7
		c1,0,1.9-0.2,2.8-0.7c1.2-0.7,2-1.7,2.4-3c0-0.1,0.1-0.2,0.2-0.3c0,0,0.1,0,0.1,0.1c-0.1,0.6-0.2,1.2-0.3,1.7
		C415.4,505.2,415.2,505.8,415.1,506.4z"/>
	<path class="st2" d="M387.6,505.8c2.1,0.3,4.2,1,6.3,1.1c1.5,0.1,3,0.2,4.5-0.2c2.6-0.7,4.7-2.8,4.8-5.5c0.1-2.1-0.6-3.7-2.4-4.8
		c-1.1-0.7-2.3-0.9-3.5-1.1c-0.5,0-1-0.1-1.5-0.1c0-0.1,0-0.2,0-0.4c0.3,0,0.6,0,0.9,0c1.1-0.1,2.1-0.3,3-0.8
		c1.6-0.9,2.5-2.2,2.4-4.1c0-1.8-0.9-3.1-2.5-3.9c-1.1-0.5-2.2-0.7-3.4-0.7c-5.6,0-11.2,0-16.8,0c-0.1,0-0.2,0-0.3,0
		c0,7.1,0,14.2,0,21.3c0.2,0,0.4,0,0.5-0.1C382.2,505.4,384.9,505.3,387.6,505.8z M389,490.4l0.8,0c0.1,0,0.3,0,0.4,0
		c0.4,0,0.7,0,1.1,0.1c0.8,0.1,1.4,0.8,1.4,1.6c0,0.9-0.5,1.6-1.3,1.7c-0.4,0.1-0.8,0.1-1.2,0.1c-0.2,0-0.3,0-0.5,0l-0.8,0V490.4z
		 M388.9,497.1c0-0.1,0-0.3,0-0.4V496h0.8c0.2,0,0.4,0,0.6,0c0.2,0,0.4,0,0.6,0c0.3,0,0.5,0,0.7,0c1,0.1,1.7,0.8,1.7,1.8
		c0,1-0.7,1.8-1.7,1.9c-0.1,0-0.3,0-0.4,0c-0.7,0-1.3-0.3-1.8-0.5c-0.3-0.2-0.5-0.5-0.5-0.9C388.9,497.9,388.9,497.5,388.9,497.1z"
		/>
	<path class="st2" d="M467.5,505.8c2.1,0.3,4.2,1,6.3,1.1c1.5,0.1,3,0.2,4.5-0.2c2.6-0.7,4.7-2.8,4.8-5.5c0.1-2.1-0.6-3.7-2.4-4.8
		c-1.1-0.7-2.3-0.9-3.5-1.1c-0.5,0-1-0.1-1.5-0.1c0-0.1,0-0.2,0-0.4c0.3,0,0.6,0,0.9,0c1.1-0.1,2.1-0.3,3-0.8
		c1.6-0.9,2.5-2.2,2.4-4.1c0-1.8-0.9-3.1-2.5-3.9c-1.1-0.5-2.2-0.7-3.4-0.7c-5.6,0-11.2,0-16.8,0c-0.1,0-0.2,0-0.3,0
		c0,7.1,0,14.2,0,21.3c0.2,0,0.4,0,0.5-0.1C462.1,505.4,464.8,505.3,467.5,505.8z M468.8,490.4l0.8,0c0.1,0,0.3,0,0.4,0
		c0.4,0,0.7,0,1.1,0.1c0.8,0.1,1.4,0.8,1.4,1.6c0,0.9-0.5,1.6-1.3,1.7c-0.4,0.1-0.8,0.1-1.2,0.1c-0.2,0-0.3,0-0.5,0l-0.8,0V490.4z
		 M468.8,497.1c0-0.1,0-0.3,0-0.4V496h0.8c0.2,0,0.4,0,0.6,0c0.2,0,0.4,0,0.6,0c0.3,0,0.5,0,0.7,0c1,0.1,1.7,0.8,1.7,1.8
		c0,1-0.7,1.8-1.7,1.9c-0.1,0-0.3,0-0.4,0c-0.7,0-1.3-0.3-1.8-0.5c-0.3-0.2-0.5-0.5-0.5-0.9C468.8,497.9,468.8,497.5,468.8,497.1z"
		/>
	<path class="st2" d="M515.7,506c0-2.5,0-5,0-7.4c0-0.2,0-0.5,0.1-0.7c0.1-0.5,0.5-0.9,1.1-0.9c0.6,0,1,0.3,1.2,0.9
		c0.1,0.2,0.1,0.5,0.1,0.7c0,2.5,0,5,0,7.5c0,0.1,0,0.3,0,0.4c2.9,0,5.8,0,8.7,0c0-0.2,0-0.3,0-0.4c0-2.5,0-4.9,0-7.4
		c0-0.1,0-0.3,0-0.4c0-0.7,0.5-1.1,1-1.2c0.7-0.1,1.2,0.3,1.3,1c0,0.2,0.1,0.4,0.1,0.7c0,2.4,0,4.9,0,7.3c0,0.1,0,0.3,0,0.4
		c2.9,0,5.8,0,8.7,0c0-0.2,0-0.3,0-0.4c0-3.2,0-6.4,0-9.7c0-0.7-0.1-1.4-0.2-2.1c-0.4-1.8-1.5-3.2-3.2-4.1c-1.4-0.7-2.8-0.8-4.3-0.6
		c-1.9,0.2-3.4,1-4.6,2.5c-0.2,0.3-0.3,0.3-0.5,0c-0.7-1-1.7-1.8-2.9-2.1c-1.3-0.4-2.5-0.5-3.8-0.3c-1.9,0.2-3.6,0.9-4.8,2.6
		c-0.1,0.2-0.3,0.2-0.4,0.1c-1.7-0.7-3.4-1.4-5.2-2.1c-0.4-0.1-0.8-0.1-1.2-0.2c0,5.6,0,11.1,0,16.5c2.9,0,5.8,0,8.8,0
		C515.7,506.2,515.7,506.1,515.7,506z"/>
	<path class="st2" d="M484.9,501.5c0.1,1.4,0.6,2.6,1.5,3.7c1.2,1.3,2.8,1.8,4.5,1.7c1,0,1.9-0.2,2.8-0.7c1.2-0.7,2-1.7,2.4-3
		c0-0.1,0.1-0.2,0.2-0.3c0,0,0.1,0,0.1,0.1c-0.1,0.6-0.2,1.2-0.3,1.7c-0.1,0.6-0.3,1.1-0.4,1.7c3.3,0,6.6,0,9.9,0c0-5.5,0-11,0-16.5
		c-3.1,0-6.1,0-9.2,0c0,0.2,0,0.3,0,0.4c0,2.4,0,4.9,0,7.3c0,0.2,0,0.4,0,0.6c-0.1,0.6-0.4,1-1,1.1c-0.6,0.1-1.1-0.2-1.3-0.8
		c-0.1-0.3-0.1-0.6-0.1-0.8c0-2.5,0-4.9,0-7.4c0-0.1,0-0.3,0-0.4c-3.1,0-6.1,0-9.2,0c0,0.2,0,0.3,0,0.4c0,3,0,5.9,0,8.9
		C484.9,500,484.9,500.7,484.9,501.5z"/>
	<path class="st2" d="M491.5,526.1c-0.5-2.7-2-4.8-4.5-6.1c-1.9-0.9-3.9-1.2-5.9-0.9c-2.7,0.3-4.9,1.3-6.6,3.5
		c-0.3,0.5-0.4,0.5-0.7,0c-1-1.5-2.4-2.5-4.1-3c-2.4-0.7-4.8-0.7-7.2-0.1c-2,0.5-3.7,1.6-4.9,3.3c-0.2,0.3-0.4,0.2-0.6,0.1
		c-2.5-1-4.9-2-7.4-3c-0.4-0.2-1-0.1-1.4-0.2c0,7.8,0,15.5,0,23.3c0.2,0,0.3,0,0.5,0c3.8,0,7.6,0,11.4,0c0.4,0,0.5-0.2,0.5-0.5
		c0-3.5,0-7,0-10.4c0-0.3,0-0.6,0-0.9c0.1-0.8,0.7-1.4,1.3-1.5c0.9-0.1,1.6,0.2,1.9,1.1c0.1,0.4,0.2,0.8,0.2,1.2c0,3.5,0,7,0,10.5
		c0,0.4,0.1,0.5,0.5,0.5c3.7,0,7.5,0,11.2,0c0.2,0,0.3,0,0.5,0c0-0.2,0-0.4,0-0.6c0-3.5,0-7,0-10.5c0-0.3,0-0.6,0.1-0.9
		c0.2-0.8,0.8-1.3,1.6-1.3c0.8,0,1.4,0.5,1.6,1.3c0.1,0.3,0.1,0.6,0.1,0.9c0,3.5,0,7,0,10.5c0,0.2,0,0.3,0,0.5c4.1,0,8.2,0,12.3,0
		c0-0.2,0-0.4,0-0.6c0-4.6,0-9.1,0-13.7C491.7,527.8,491.6,526.9,491.5,526.1z"/>
	<path class="st2" d="M434.7,523.1c-0.5,0.2-0.7,0.2-1.1-0.3c-1.9-2.5-4.4-3.7-7.5-3.8c-3.5-0.1-6.3,1.2-8.4,4
		c-1.6,2.1-2.4,4.4-2.6,7c-0.2,2.9,0.1,5.8,1.4,8.5c1.2,2.5,3.1,4.3,5.9,4.9c2.7,0.6,5-0.1,6.7-2.3c1.2-1.7,1.9-3.6,2.1-5.6
		c0-0.3,0.1-0.5,0.5-0.4c0,2.7-0.4,5.3-1.3,7.8c4.8,0,9.5,0,14.3,0c0-7.7,0-15.5,0-23.3c-0.6,0.1-1.2,0.1-1.7,0.3
		C440.3,521,437.5,522,434.7,523.1z M430.4,534.2L430.4,534.2c-1.7,0-3.1-1.4-3.1-3.1c0-1.8,1.3-3.1,3.1-3.2l0,0
		c0.8,0,1.6,0.3,2.2,0.9c0.6,0.6,0.9,1.4,0.9,2.2C433.5,532.8,432.1,534.2,430.4,534.2z"/>
	<path class="st2" d="M525.9,520.3c0,7.4,0,14.7,0,22.1c0,0.5,0.2,0.6,0.6,0.6c3.9,0,7.8,0,11.7,0c0.2,0,0.3,0,0.5,0
		c0-7.8,0-15.5,0-23.2c-4.3,0-8.6,0-12.9,0C525.9,519.9,525.9,520.1,525.9,520.3z"/>
	<path class="st2" d="M527.2,518c1.2,0.6,2.6,0.7,3.9,0.8c1.8,0.1,3.7,0,5.4-0.6c1.8-0.6,2.8-1.9,2.8-3.6c0-1.7-1-3-2.9-3.6
		c-1.4-0.5-2.8-0.5-4.3-0.7c-1.2,0.2-2.4,0.3-3.7,0.5c-1.1,0.2-2.1,0.7-2.9,1.6C524.6,514,524.6,516.8,527.2,518z"/>
	<path class="st2" d="M521.9,522.9c-1.6-2.2-3.7-3.7-6.4-3.9c-2.2-0.2-4.2,0.6-5.9,2c-1.2,1.1-2.2,2.4-2.9,3.9
		c-0.1,0.2-0.2,0.3-0.3,0.4c0,0-0.1-0.1-0.1-0.1c0-4,0-7.9,0-11.9c-4.3,0-8.6,0-12.9,0c0,9.9,0,19.7,0,29.5c4.8,0,9.5,0,14.3,0
		c-0.8-1.9-1.3-3.8-1.3-5.9c0.1,0,0.1,0,0.2-0.1c0.1,0.2,0.2,0.4,0.3,0.6c0.6,1.5,1.5,2.8,2.7,3.8c2.3,2.1,5,2.8,8,1.7
		c2.3-0.8,3.9-2.6,5.1-4.7c1.4-2.6,1.9-5.5,1.7-8.5C524.1,527.4,523.4,525,521.9,522.9z M513.2,533.7c-0.7,0.7-1.5,1-2.5,1
		c0,0,0,0,0,0c-1.9,0-3.5-1.6-3.5-3.5c0-2,1.5-3.5,3.4-3.5h0c1.9,0,3.5,1.5,3.5,3.5C514.3,532.1,513.9,533,513.2,533.7z"/>
	<path class="st2" d="M410.3,528.5c-1.5-0.9-3.1-1.3-4.8-1.5c-0.7-0.1-1.3-0.1-2-0.1c0-0.2,0-0.3,0-0.5c0.4,0,0.8,0,1.2,0
		c1.4-0.1,2.8-0.4,4.1-1.1c2.2-1.2,3.4-3.1,3.3-5.6c0-2.5-1.3-4.3-3.5-5.4c-1.5-0.7-3.1-1-4.7-1c-7.6,0-15.2,0-22.8,0
		c-0.1,0-0.3,0-0.5,0c0,9.7,0,19.3,0,29c0.3,0,0.5,0,0.7-0.1c3.5-1.4,7.2-1.5,10.9-0.9c2.9,0.4,5.7,1.4,8.6,1.5
		c2.1,0.1,4.1,0.2,6.2-0.3c3.6-1,6.4-3.8,6.5-7.5C413.7,532.2,412.8,530,410.3,528.5z M394.1,520.5l1.1,0.1c0.2,0,0.4,0,0.6,0
		c0.5,0,1,0,1.5,0.1c1.1,0.2,1.9,1,1.9,2.2c0,1.2-0.7,2.1-1.8,2.3c-0.6,0.1-1.1,0.1-1.6,0.1c-0.2,0-0.4,0-0.6,0l-1.1,0.1V520.5z
		 M397.7,533.2c-0.2,0-0.3,0-0.5,0c-1,0-1.8-0.4-2.4-0.7c-0.4-0.2-0.7-0.7-0.7-1.2c0-0.5,0-1.1,0-1.6c0-0.2,0-0.4,0-0.6v-1h1
		c0.3,0,0.5,0,0.8,0c0.3,0,0.5,0,0.8,0c0.4,0,0.7,0,1,0c1.4,0.1,2.4,1.2,2.4,2.5C400.1,531.9,399.1,533,397.7,533.2z"/>
</g>
</svg>
