<?xml version="1.0" encoding="utf-8"?>
<!-- Generator: Adobe Illustrator 27.9.1, SVG Export Plug-In . SVG Version: 6.00 Build 0)  -->
<svg version="1.1" id="Layer_1" xmlns="http://www.w3.org/2000/svg" xmlns:xlink="http://www.w3.org/1999/xlink" x="0px" y="0px"
	 viewBox="0 0 158.3 142.4" style="enable-background:new 0 0 158.3 142.4;" xml:space="preserve">
<style type="text/css">
	.st0{fill:#171517;}
	.st1{fill:#D461A3;}
	.st2{fill:#FFFFFF;}
	.st3{fill:#F7F5F5;}
</style>
<path class="st2" d="M76.4,48.7c0,0-18.9-0.1-35.1,15.3C41.3,64,60.9,54.4,76.4,48.7z M146.5,75.4C146.5,75.4,146.5,75.4,146.5,75.4
	c0.1,0-6.7-6.7-18.8-7c-9.8-0.3-18.6,1.9-21.7,2.7c-2.5,0.3-4.1,1.7-5.1,4.3C95.7,87.7,83.7,91.8,72.2,90
	C56.3,87.5,42.7,80.3,31,69.3c-4.6-4.3-4.7-6-0.2-10.4c11.7-11.1,25.3-18.6,41.3-21.3c11.8-2,21.7,2.3,27.8,12.3l-0.1,0
	c0,0,2.4,7.8,10,8.6c2.2,0.2,5.2,0.1,8.7-0.2c0,0,0,0,0,0l0,0c0,0,0,0,0,0c0,0,0,0,0,0c0,0,0,0,0,0l0.1,0
	c7.5-1.1,24.9-4.6,30.3-15.3c1.5-3.2,2.1-7.2,2-12.5c-0.2-12-6-20.5-16.7-25.8C127.2,1.1,119.6,0,111.8,0C75.3,0,38.7,0,2.2,0
	C1.5,0,0.8,0.1,0,0.1c0,46.5,0,92.8,0,139.4c1.2-0.2,2.4-0.1,3.3-0.5c17-6.9,34.7-7.2,52.5-4.5c13.9,2.1,27.4,6.5,41.5,7.4
	c9.9,0.6,19.9,1.2,29.6-1.5c17.1-4.8,30.6-18.2,31.3-36.3C158.8,92.2,155.2,82.5,146.5,75.4z"/>
</svg>
