<?xml version="1.0" encoding="utf-8"?>
<!-- Generator: Adobe Illustrator 27.9.1, SVG Export Plug-In . SVG Version: 6.00 Build 0)  -->
<svg version="1.1" id="Layer_1" xmlns="http://www.w3.org/2000/svg" xmlns:xlink="http://www.w3.org/1999/xlink" x="0px" y="0px"
	 viewBox="0 0 300.1 111.8" style="enable-background:new 0 0 300.1 111.8;" xml:space="preserve">
<style type="text/css">
	.st0{fill:#171517;}
	.st1{fill:#D461A3;}
	.st2{fill:#FFFFFF;}
	.st3{fill:#F7F5F5;}
</style>
<g>
	<g>
		<g>
			<path class="st2" d="M188.6,33.4c-5.6,0-11.2,0-16.8,0c0-10.6,0-21.1,0-31.8c0.8,0.1,1.6,0.1,2.3,0.4c3.3,1.3,6.6,2.7,9.9,4.1
				c0.3,0.1,0.6,0.2,0.8-0.2c2.2-3.2,5.5-4.5,9.2-5c2.5-0.3,4.9-0.1,7.3,0.6c2.3,0.7,4.2,2.1,5.5,4.1c0.4,0.6,0.5,0.6,1,0
				c2.2-2.9,5.2-4.3,8.8-4.8c2.8-0.3,5.6-0.1,8.2,1.2c3.3,1.6,5.3,4.3,6.1,7.9c0.3,1.3,0.4,2.7,0.4,4c0,6.2,0,12.4,0,18.5
				c0,0.3,0,0.5,0,0.8c-5.6,0-11.1,0-16.8,0c0-0.3,0-0.6,0-0.8c0-4.7,0-9.4,0-14.1c0-0.4,0-0.8-0.1-1.3c-0.3-1.4-1.1-2.1-2.5-1.9
				c-1.1,0.1-1.9,1-2,2.3c0,0.3,0,0.5,0,0.8c0,4.7,0,9.5,0,14.2c0,0.2,0,0.5,0,0.8c-5.6,0-11.1,0-16.7,0c0-0.3,0-0.5,0-0.8
				c0-4.8,0-9.6,0-14.4c0-0.4,0-0.9-0.1-1.3c-0.3-1.1-1.1-1.7-2.3-1.7c-1,0-1.8,0.6-2.1,1.7c-0.1,0.4-0.2,0.9-0.2,1.4
				c0,4.8,0,9.5,0,14.3C188.6,32.9,188.6,33.1,188.6,33.4z"/>
			<path class="st2" d="M129.4,1.8c5.9,0,11.8,0,17.7,0c0,0.3,0,0.6,0,0.8c0,4.7,0,9.4,0,14.2c0,0.5,0.1,1.1,0.2,1.6
				c0.4,1.2,1.3,1.6,2.5,1.5c1-0.1,1.8-1,1.9-2.1c0-0.4,0-0.8,0-1.1c0-4.7,0-9.3,0-14c0-0.3,0-0.5,0-0.8c5.9,0,11.7,0,17.6,0
				c0,10.5,0,21,0,31.6c-6.3,0-12.6,0-18.9,0c0.3-1.1,0.6-2.2,0.8-3.3c0.2-1.1,0.4-2.2,0.6-3.3c-0.1,0-0.2-0.1-0.3-0.1
				c-0.1,0.2-0.3,0.4-0.4,0.6c-0.8,2.5-2.3,4.5-4.7,5.8c-1.7,0.9-3.5,1.3-5.4,1.3c-3.3,0-6.3-0.8-8.6-3.3c-1.8-2-2.7-4.4-2.9-7
				c-0.1-1.4-0.1-2.9-0.1-4.3c0-5.7,0-11.4,0-17.1C129.4,2.3,129.4,2.1,129.4,1.8z"/>
		</g>
	</g>
	<g>
		<g>
			<path class="st2" d="M188.6,71.8c-5.6,0-11.2,0-16.8,0c0-10.6,0-21.1,0-31.8c0.8,0.1,1.6,0.1,2.3,0.4c3.3,1.3,6.6,2.7,9.9,4.1
				c0.3,0.1,0.6,0.2,0.8-0.2c2.2-3.2,5.5-4.5,9.2-5c2.5-0.3,4.9-0.1,7.3,0.6c2.3,0.7,4.2,2.1,5.5,4.1c0.4,0.6,0.5,0.6,1,0
				c2.2-2.9,5.2-4.3,8.8-4.8c2.8-0.3,5.6-0.1,8.2,1.2c3.3,1.6,5.3,4.3,6.1,7.9c0.3,1.3,0.4,2.7,0.4,4c0,6.2,0,12.4,0,18.5
				c0,0.3,0,0.5,0,0.8c-5.6,0-11.1,0-16.8,0c0-0.3,0-0.6,0-0.8c0-4.7,0-9.4,0-14.1c0-0.4,0-0.8-0.1-1.3c-0.3-1.4-1.1-2.1-2.5-1.9
				c-1.1,0.1-1.9,1-2,2.3c0,0.3,0,0.5,0,0.8c0,4.7,0,9.5,0,14.2c0,0.2,0,0.5,0,0.8c-5.6,0-11.1,0-16.7,0c0-0.3,0-0.5,0-0.8
				c0-4.8,0-9.6,0-14.4c0-0.4,0-0.9-0.1-1.3c-0.3-1.1-1.1-1.7-2.3-1.7c-1,0-1.8,0.6-2.1,1.7c-0.1,0.4-0.2,0.9-0.2,1.4
				c0,4.8,0,9.5,0,14.3C188.6,71.2,188.6,71.5,188.6,71.8z"/>
			<path class="st2" d="M129.4,40.1c5.9,0,11.8,0,17.7,0c0,0.3,0,0.6,0,0.8c0,4.7,0,9.4,0,14.2c0,0.5,0.1,1.1,0.2,1.6
				c0.4,1.2,1.3,1.6,2.5,1.5c1-0.1,1.8-1,1.9-2.1c0-0.4,0-0.8,0-1.1c0-4.7,0-9.3,0-14c0-0.3,0-0.5,0-0.8c5.9,0,11.7,0,17.6,0
				c0,10.5,0,21,0,31.6c-6.3,0-12.6,0-18.9,0c0.3-1.1,0.6-2.2,0.8-3.3c0.2-1.1,0.4-2.2,0.6-3.3c-0.1,0-0.2-0.1-0.3-0.1
				c-0.1,0.2-0.3,0.4-0.4,0.6c-0.8,2.5-2.3,4.5-4.7,5.8c-1.7,0.9-3.5,1.3-5.4,1.3c-3.3,0-6.3-0.8-8.6-3.3c-1.8-2-2.7-4.4-2.9-7
				c-0.1-1.4-0.1-2.9-0.1-4.3c0-5.7,0-11.4,0-17.1C129.4,40.7,129.4,40.4,129.4,40.1z"/>
		</g>
	</g>
	<path class="st2" d="M233.8,110.8c-5.7,0-11.3,0-17.1,0c0-0.3,0-0.5,0-0.8c0-4.9,0-9.7,0-14.6c0-0.4,0-0.9-0.1-1.3
		c-0.2-1.2-1-1.8-2.2-1.8c-1.2,0-2,0.6-2.3,1.8c-0.1,0.4-0.1,0.8-0.1,1.3c0,4.9,0,9.7,0,14.6c0,0.2,0,0.5,0,0.8c-0.3,0-0.5,0-0.7,0
		c-5.2,0-10.4,0-15.6,0c-0.6,0-0.8-0.2-0.8-0.8c0-4.9,0-9.7,0-14.6c0-0.6,0-1.1-0.2-1.7c-0.4-1.1-1.3-1.6-2.6-1.5
		c-0.9,0.1-1.7,1-1.8,2.1c0,0.4,0,0.8,0,1.2c0,4.8,0,9.7,0,14.5c0,0.5-0.1,0.8-0.7,0.7c-5.3,0-10.6,0-15.8,0c-0.2,0-0.4,0-0.6,0
		c0-10.7,0-21.4,0-32.3c0.7,0.1,1.4,0,2,0.3c3.5,1.4,6.9,2.8,10.3,4.2c0.3,0.1,0.6,0.3,0.9-0.1c1.7-2.4,4-3.9,6.8-4.6
		c3.4-0.9,6.7-0.9,10.1,0.2c2.4,0.7,4.2,2.1,5.6,4.2c0.4,0.6,0.5,0.6,1,0c2.3-3,5.4-4.5,9.1-4.9c2.9-0.3,5.6,0,8.2,1.3
		c3.5,1.7,5.5,4.7,6.2,8.4c0.2,1.2,0.3,2.4,0.3,3.6c0,6.3,0,12.7,0,19C233.8,110.2,233.8,110.5,233.8,110.8z"/>
	<path class="st2" d="M166.3,78.8c-3.9,1.5-7.8,3-11.6,4.5c-0.6,0.3-1,0.3-1.5-0.4c-2.6-3.4-6.1-5.2-10.4-5.3
		c-4.8-0.2-8.7,1.7-11.6,5.5c-2.2,2.8-3.3,6.1-3.5,9.7c-0.3,4.1,0.2,8.1,1.9,11.8c1.7,3.5,4.2,6,8.2,6.9c3.7,0.8,6.9-0.1,9.3-3.3
		c1.7-2.3,2.6-4.9,3-7.8c0.1-0.5,0.2-0.7,0.7-0.5c0,3.7-0.6,7.3-1.9,10.8c6.7,0,13.2,0,19.8,0c0-10.8,0-21.5,0-32.4
		C167.8,78.5,167,78.6,166.3,78.8z M148.7,98.7L148.7,98.7c-2.4,0-4.3-1.9-4.3-4.3c0-2.4,1.9-4.4,4.3-4.4l0,0c1.2,0,2.2,0.5,3,1.3
		c0.8,0.8,1.2,1.9,1.2,3.1C153,96.7,151.1,98.7,148.7,98.7z"/>
	<path class="st2" d="M281.3,78.6c6,0,11.9,0,17.9,0c0,10.7,0,21.5,0,32.3c-0.3,0-0.5,0-0.8,0c-5.4,0-10.9,0-16.3,0
		c-0.7,0-0.9-0.1-0.9-0.8c0-10.2,0-20.4,0-30.6C281.3,79.1,281.3,78.9,281.3,78.6z"/>
	<path class="st2" d="M290.1,65.7c2,0.2,4,0.3,5.9,0.9c2.6,0.8,4,2.6,4,5c0,2.3-1.4,4.2-3.9,5c-2.4,0.8-5,1-7.5,0.8
		c-1.9-0.1-3.7-0.4-5.4-1.2c-3.7-1.7-3.6-5.6-2.1-7.6c1-1.3,2.4-1.9,4-2.2C286.7,66,288.4,65.9,290.1,65.7z"/>
	<path class="st2" d="M279,92.8c-0.3-3.5-1.2-6.9-3.3-9.8c-2.2-3.1-5.1-5.1-8.9-5.4c-3.1-0.2-5.8,0.8-8.2,2.8c-1.7,1.5-3,3.3-4,5.4
		c-0.1,0.2-0.3,0.4-0.5,0.6c-0.1,0-0.1-0.1-0.2-0.1c0-5.5,0-11,0-16.6c-6,0-11.9,0-17.9,0c0,13.7,0,27.3,0,41c6.6,0,13.2,0,19.8,0
		c-1-2.7-1.9-5.3-1.8-8.2c0.1,0,0.1-0.1,0.2-0.1c0.1,0.3,0.3,0.6,0.4,0.9c0.9,2,2.1,3.8,3.8,5.3c3.2,2.9,6.9,3.9,11.1,2.4
		c3.3-1.1,5.5-3.6,7.1-6.5C278.6,100.9,279.3,97,279,92.8z M263.7,97.9c-0.9,0.9-2.1,1.4-3.4,1.4c0,0,0,0,0,0
		c-2.7,0-4.8-2.2-4.8-4.9c0-2.7,2.1-4.8,4.8-4.8h0c2.7,0,4.8,2.1,4.9,4.8C265.2,95.8,264.7,97,263.7,97.9z"/>
	<path class="st2" d="M59.6,38c0,0-14.7-0.1-27.4,11.9C32.3,50,47.6,42.5,59.6,38z M114.4,58.9C114.4,58.9,114.4,58.9,114.4,58.9
		c0,0-5.2-5.2-14.7-5.5c-7.6-0.2-14.5,1.5-16.9,2.1c-2,0.2-3.2,1.4-4,3.3c-4,9.7-13.4,12.8-22.3,11.4c-12.4-2-23.1-7.6-32.2-16.2
		c-3.6-3.4-3.7-4.7-0.1-8.1c9.1-8.7,19.8-14.5,32.3-16.6c9.2-1.6,17,1.8,21.7,9.6l-0.1,0c0,0,1.8,6.1,7.8,6.7
		c1.7,0.2,4.1,0.1,6.8-0.2c0,0,0,0,0,0l0,0c0,0,0,0,0,0c0,0,0,0,0,0c0,0,0,0,0,0l0.1,0c5.8-0.9,19.4-3.6,23.6-11.9
		c1.2-2.5,1.6-5.6,1.6-9.8c-0.2-9.4-4.7-16-13-20.1C99.3,0.9,93.3,0,87.3,0c-28.5,0-57,0-85.6,0C1.1,0,0.6,0.1,0,0.1
		C0,36.4,0,72.6,0,109c0.9-0.1,1.8-0.1,2.6-0.4c13.3-5.4,27.1-5.6,41-3.5c10.9,1.6,21.4,5.1,32.4,5.8c7.8,0.5,15.5,0.9,23.1-1.2
		c13.4-3.7,23.9-14.2,24.5-28.3C124,72,121.2,64.4,114.4,58.9z"/>
</g>
</svg>
