<?xml version="1.0" encoding="utf-8"?>
<!-- Generator: Adobe Illustrator 27.9.1, SVG Export Plug-In . SVG Version: 6.00 Build 0)  -->
<svg version="1.1" id="Layer_1" xmlns="http://www.w3.org/2000/svg" xmlns:xlink="http://www.w3.org/1999/xlink" x="0px" y="0px"
	 viewBox="0 0 612 622.5" style="enable-background:new 0 0 612 622.5;" xml:space="preserve">
<style type="text/css">
	.st0{fill:#171517;}
	.st1{fill:#D461A3;}
	.st2{fill:#FFFFFF;}
	.st3{fill:#F7F5F5;}
</style>
<rect x="-1" y="499.9" class="st0" width="609" height="125"/>
<g>
	<g>
		<g>
			<g>
				<path class="st1" d="M198.5,247.2c-3.9,0-7.7,0-11.5,0c0-7.2,0-14.4,0-21.8c0.5,0.1,1.1,0.1,1.5,0.3c2.3,0.9,4.5,1.8,6.8,2.8
					c0.2,0.1,0.4,0.1,0.6-0.1c1.5-2.2,3.8-3.1,6.3-3.4c1.7-0.2,3.4-0.1,5,0.4c1.6,0.5,2.8,1.4,3.8,2.8c0.3,0.4,0.4,0.4,0.7,0
					c1.5-2,3.6-3,6-3.3c2-0.2,3.8,0,5.6,0.8c2.3,1.1,3.6,3,4.2,5.4c0.2,0.9,0.3,1.8,0.3,2.7c0,4.2,0,8.5,0,12.7c0,0.2,0,0.4,0,0.6
					c-3.8,0-7.6,0-11.5,0c0-0.2,0-0.4,0-0.6c0-3.2,0-6.4,0-9.7c0-0.3,0-0.6-0.1-0.9c-0.2-1-0.8-1.4-1.7-1.3
					c-0.8,0.1-1.3,0.7-1.4,1.6c0,0.2,0,0.4,0,0.5c0,3.2,0,6.5,0,9.7c0,0.2,0,0.3,0,0.5c-3.8,0-7.6,0-11.5,0c0-0.2,0-0.4,0-0.5
					c0-3.3,0-6.6,0-9.8c0-0.3,0-0.6-0.1-0.9c-0.2-0.7-0.8-1.1-1.5-1.1c-0.7,0-1.3,0.4-1.4,1.2c-0.1,0.3-0.1,0.6-0.1,0.9
					c0,3.3,0,6.5,0,9.8C198.5,246.8,198.5,247,198.5,247.2z"/>
				<path class="st1" d="M157.9,225.5c4.1,0,8.1,0,12.1,0c0,0.2,0,0.4,0,0.6c0,3.2,0,6.5,0,9.7c0,0.4,0,0.8,0.2,1.1
					c0.3,0.8,0.9,1.1,1.7,1c0.7-0.1,1.2-0.7,1.3-1.4c0-0.3,0-0.5,0-0.8c0-3.2,0-6.4,0-9.6c0-0.2,0-0.4,0-0.6c4,0,8,0,12.1,0
					c0,7.2,0,14.4,0,21.7c-4.3,0-8.6,0-13,0c0.2-0.8,0.4-1.5,0.6-2.2c0.2-0.8,0.3-1.5,0.4-2.3c-0.1,0-0.1-0.1-0.2-0.1
					c-0.1,0.1-0.2,0.2-0.3,0.4c-0.6,1.7-1.6,3.1-3.2,4c-1.2,0.6-2.4,0.9-3.7,0.9c-2.3,0-4.3-0.6-5.9-2.3c-1.2-1.4-1.8-3-2-4.8
					c-0.1-1-0.1-2-0.1-3c0-3.9,0-7.8,0-11.7C157.9,225.9,157.9,225.7,157.9,225.5z"/>
			</g>
		</g>
		<path class="st1" d="M153.6,233.9c-1.4-0.9-3-1.2-4.7-1.4c-0.6-0.1-1.3-0.1-1.9-0.1c0-0.2,0-0.3,0-0.5c0.4,0,0.8,0,1.1,0
			c1.4-0.1,2.7-0.4,3.9-1c2.2-1.1,3.3-3,3.2-5.4c0-2.4-1.2-4.1-3.4-5.2c-1.4-0.7-3-0.9-4.5-0.9c-7.3,0-14.7,0-22,0
			c-0.1,0-0.3,0-0.4,0c0,9.4,0,18.7,0,28.1c0.2,0,0.5,0,0.7-0.1c3.4-1.4,7-1.4,10.6-0.9c2.8,0.4,5.5,1.3,8.4,1.5c2,0.1,4,0.2,6-0.3
			c3.4-1,6.1-3.7,6.3-7.3C156.9,237.5,156,235.3,153.6,233.9z M138,226.1l1.1,0.1c0.2,0,0.4,0,0.6,0c0.5,0,1,0,1.5,0.1
			c1.1,0.2,1.8,1,1.9,2.1c0,1.1-0.7,2-1.8,2.2c-0.5,0.1-1.1,0.1-1.6,0.1c-0.2,0-0.4,0-0.6,0l-1.1,0.1V226.1z M141.5,238.4
			c-0.2,0-0.3,0-0.5,0c-1,0-1.8-0.4-2.3-0.7c-0.4-0.2-0.7-0.7-0.7-1.1c0-0.5,0-1,0-1.6c0-0.2,0-0.4,0-0.5v-1h1c0.3,0,0.5,0,0.7,0
			c0.2,0,0.5,0,0.7,0c0.4,0,0.7,0,1,0c1.3,0.1,2.3,1.1,2.3,2.4C143.7,237.2,142.8,238.2,141.5,238.4z"/>
		<path class="st1" d="M258.7,233.9c-1.4-0.9-3-1.2-4.7-1.4c-0.6-0.1-1.3-0.1-1.9-0.1c0-0.2,0-0.3,0-0.5c0.4,0,0.8,0,1.1,0
			c1.4-0.1,2.7-0.4,3.9-1c2.2-1.1,3.3-3,3.2-5.4c0-2.4-1.2-4.1-3.4-5.2c-1.4-0.7-3-0.9-4.5-0.9c-7.3,0-14.7,0-22,0
			c-0.1,0-0.3,0-0.4,0c0,9.4,0,18.7,0,28.1c0.2,0,0.5,0,0.7-0.1c3.4-1.4,7-1.4,10.6-0.9c2.8,0.4,5.5,1.3,8.4,1.5c2,0.1,4,0.2,6-0.3
			c3.4-1,6.1-3.7,6.3-7.3C262,237.5,261.1,235.3,258.7,233.9z M243,226.1l1.1,0.1c0.2,0,0.4,0,0.6,0c0.5,0,1,0,1.5,0.1
			c1.1,0.2,1.8,1,1.9,2.1c0,1.1-0.7,2-1.8,2.2c-0.5,0.1-1.1,0.1-1.6,0.1c-0.2,0-0.4,0-0.6,0l-1.1,0.1V226.1z M246.5,238.4
			c-0.2,0-0.3,0-0.5,0c-1,0-1.8-0.4-2.3-0.7c-0.4-0.2-0.7-0.7-0.7-1.1c0-0.5,0-1,0-1.6c0-0.2,0-0.4,0-0.5v-1h1c0.3,0,0.5,0,0.7,0
			c0.2,0,0.5,0,0.7,0c0.4,0,0.7,0,1,0c1.3,0.1,2.3,1.1,2.3,2.4C248.8,237.2,247.9,238.2,246.5,238.4z"/>
		<path class="st1" d="M304.7,247.2c-3.9,0-7.7,0-11.5,0c0-7.2,0-14.4,0-21.8c0.5,0.1,1.1,0.1,1.5,0.3c2.3,0.9,4.5,1.8,6.8,2.8
			c0.2,0.1,0.4,0.1,0.6-0.1c1.5-2.2,3.8-3.1,6.3-3.4c1.7-0.2,3.4-0.1,5,0.4c1.6,0.5,2.8,1.4,3.8,2.8c0.3,0.4,0.4,0.4,0.7,0
			c1.5-2,3.6-3,6-3.3c2-0.2,3.8,0,5.6,0.8c2.3,1.1,3.6,3,4.2,5.4c0.2,0.9,0.3,1.8,0.3,2.7c0,4.2,0,8.5,0,12.7c0,0.2,0,0.4,0,0.6
			c-3.8,0-7.6,0-11.5,0c0-0.2,0-0.4,0-0.6c0-3.2,0-6.4,0-9.7c0-0.3,0-0.6-0.1-0.9c-0.2-1-0.8-1.4-1.7-1.3c-0.8,0.1-1.3,0.7-1.4,1.6
			c0,0.2,0,0.4,0,0.5c0,3.2,0,6.5,0,9.7c0,0.2,0,0.3,0,0.5c-3.8,0-7.6,0-11.5,0c0-0.2,0-0.4,0-0.5c0-3.3,0-6.6,0-9.8
			c0-0.3,0-0.6-0.1-0.9c-0.2-0.7-0.8-1.1-1.5-1.1c-0.7,0-1.3,0.4-1.4,1.2c-0.1,0.3-0.1,0.6-0.1,0.9c0,3.3,0,6.5,0,9.8
			C304.7,246.8,304.7,247,304.7,247.2z"/>
		<path class="st1" d="M264.2,225.5c4.1,0,8.1,0,12.1,0c0,0.2,0,0.4,0,0.6c0,3.2,0,6.5,0,9.7c0,0.4,0,0.8,0.2,1.1
			c0.3,0.8,0.9,1.1,1.7,1c0.7-0.1,1.2-0.7,1.3-1.4c0-0.3,0-0.5,0-0.8c0-3.2,0-6.4,0-9.6c0-0.2,0-0.4,0-0.6c4,0,8,0,12.1,0
			c0,7.2,0,14.4,0,21.7c-4.3,0-8.6,0-13,0c0.2-0.8,0.4-1.5,0.6-2.2c0.2-0.8,0.3-1.5,0.4-2.3c-0.1,0-0.1-0.1-0.2-0.1
			c-0.1,0.1-0.2,0.2-0.3,0.4c-0.6,1.7-1.6,3.1-3.2,4c-1.2,0.6-2.4,0.9-3.7,0.9c-2.3,0-4.3-0.6-5.9-2.3c-1.2-1.4-1.8-3-2-4.8
			c-0.1-1-0.1-2-0.1-3c0-3.9,0-7.8,0-11.7C264.2,225.9,264.2,225.7,264.2,225.5z"/>
		<path class="st1" d="M366.5,233.9c-1.4-0.9-3-1.2-4.7-1.4c-0.6-0.1-1.3-0.1-1.9-0.1c0-0.2,0-0.3,0-0.5c0.4,0,0.8,0,1.1,0
			c1.4-0.1,2.7-0.4,3.9-1c2.2-1.1,3.3-3,3.2-5.4c0-2.4-1.2-4.1-3.4-5.2c-1.4-0.7-3-0.9-4.5-0.9c-7.3,0-14.7,0-22,0
			c-0.1,0-0.3,0-0.4,0c0,9.4,0,18.7,0,28.1c0.2,0,0.5,0,0.7-0.1c3.4-1.4,7-1.4,10.6-0.9c2.8,0.4,5.5,1.3,8.4,1.5c2,0.1,4,0.2,6-0.3
			c3.4-1,6.1-3.7,6.3-7.3C369.8,237.5,368.9,235.3,366.5,233.9z M350.9,226.1l1.1,0.1c0.2,0,0.4,0,0.6,0c0.5,0,1,0,1.5,0.1
			c1.1,0.2,1.8,1,1.9,2.1c0,1.1-0.7,2-1.8,2.2c-0.5,0.1-1.1,0.1-1.6,0.1c-0.2,0-0.4,0-0.6,0l-1.1,0.1V226.1z M354.3,238.4
			c-0.2,0-0.3,0-0.5,0c-1,0-1.8-0.4-2.3-0.7c-0.4-0.2-0.7-0.7-0.7-1.1c0-0.5,0-1,0-1.6c0-0.2,0-0.4,0-0.5v-1h1c0.3,0,0.5,0,0.7,0
			c0.2,0,0.5,0,0.7,0c0.4,0,0.7,0,1,0c1.3,0.1,2.3,1.1,2.3,2.4C356.6,237.2,355.7,238.2,354.3,238.4z"/>
		<path class="st1" d="M442.5,246.9c-3.8,0-7.6,0-11.5,0c0-0.2,0-0.3,0-0.5c0-3.3,0-6.6,0-9.8c0-0.3,0-0.6-0.1-0.9
			c-0.2-0.8-0.7-1.2-1.5-1.2c-0.8,0-1.4,0.4-1.5,1.2c-0.1,0.3-0.1,0.6-0.1,0.9c0,3.3,0,6.6,0,9.8c0,0.2,0,0.3,0,0.6
			c-0.2,0-0.3,0-0.5,0c-3.5,0-7,0-10.5,0c-0.4,0-0.5-0.1-0.5-0.5c0-3.3,0-6.6,0-9.8c0-0.4,0-0.8-0.1-1.1c-0.3-0.8-0.9-1.1-1.7-1
			c-0.6,0.1-1.2,0.7-1.2,1.4c0,0.3,0,0.5,0,0.8c0,3.2,0,6.5,0,9.7c0,0.4-0.1,0.5-0.5,0.5c-3.5,0-7.1,0-10.6,0c-0.1,0-0.3,0-0.4,0
			c0-7.2,0-14.4,0-21.7c0.5,0.1,0.9,0,1.4,0.2c2.3,0.9,4.6,1.9,6.9,2.8c0.2,0.1,0.4,0.2,0.6-0.1c1.1-1.6,2.7-2.6,4.6-3.1
			c2.3-0.6,4.5-0.6,6.8,0.1c1.6,0.5,2.8,1.4,3.8,2.8c0.3,0.4,0.4,0.4,0.7,0c1.6-2,3.7-3,6.2-3.3c1.9-0.2,3.8,0,5.5,0.9
			c2.3,1.2,3.7,3.1,4.2,5.7c0.2,0.8,0.2,1.6,0.2,2.4c0,4.3,0,8.5,0,12.8C442.5,246.5,442.5,246.7,442.5,246.9z"/>
		<path class="st1" d="M397.1,225.4c-2.6,1-5.2,2-7.8,3c-0.4,0.2-0.7,0.2-1-0.3c-1.8-2.3-4.1-3.5-7-3.6c-3.2-0.1-5.9,1.2-7.8,3.7
			c-1.5,1.9-2.2,4.1-2.4,6.5c-0.2,2.8,0.1,5.4,1.3,7.9c1.1,2.4,2.9,4.1,5.5,4.6c2.5,0.5,4.7-0.1,6.2-2.2c1.2-1.6,1.8-3.3,2-5.2
			c0-0.3,0.1-0.5,0.5-0.3c0,2.5-0.4,4.9-1.2,7.3c4.5,0,8.9,0,13.4,0c0-7.2,0-14.4,0-21.8C398.1,225.2,397.5,225.2,397.1,225.4z
			 M385.2,238.8L385.2,238.8c-1.6,0-2.9-1.3-2.9-2.9c0-1.6,1.3-2.9,2.9-3l0,0c0.8,0,1.5,0.3,2,0.9c0.5,0.5,0.8,1.3,0.8,2.1
			C388.1,237.4,386.8,238.8,385.2,238.8z"/>
		<path class="st1" d="M474.4,225.2c4.1,0,8,0,12,0c0,7.2,0,14.4,0,21.7c-0.2,0-0.3,0-0.5,0c-3.7,0-7.3,0-11,0
			c-0.4,0-0.6-0.1-0.6-0.6c0-6.9,0-13.7,0-20.6C474.4,225.6,474.4,225.4,474.4,225.2z"/>
		<path class="st1" d="M480.3,216.6c1.4,0.1,2.7,0.2,4,0.6c1.7,0.6,2.7,1.7,2.7,3.4c0,1.6-0.9,2.8-2.6,3.4c-1.6,0.5-3.3,0.7-5.1,0.5
			c-1.3-0.1-2.5-0.2-3.7-0.8c-2.5-1.2-2.4-3.8-1.4-5.1c0.7-0.9,1.6-1.3,2.7-1.5C478,216.8,479.2,216.7,480.3,216.6z"/>
		<path class="st1" d="M472.9,234.8c-0.2-2.4-0.8-4.6-2.2-6.6c-1.5-2.1-3.4-3.4-6-3.6c-2.1-0.2-3.9,0.5-5.5,1.9
			c-1.2,1-2,2.2-2.7,3.6c-0.1,0.2-0.2,0.3-0.3,0.4c0,0-0.1-0.1-0.1-0.1c0-3.7,0-7.4,0-11.1c-4,0-8,0-12,0c0,9.2,0,18.4,0,27.6
			c4.4,0,8.9,0,13.3,0c-0.7-1.8-1.3-3.6-1.2-5.5c0,0,0.1,0,0.1-0.1c0.1,0.2,0.2,0.4,0.3,0.6c0.6,1.4,1.4,2.6,2.5,3.6
			c2.2,2,4.7,2.6,7.4,1.6c2.2-0.8,3.7-2.4,4.8-4.4C472.6,240.2,473.1,237.6,472.9,234.8z M462.6,238.2c-0.6,0.6-1.4,1-2.3,1
			c0,0,0,0,0,0c-1.8,0-3.2-1.5-3.2-3.3c0-1.8,1.4-3.3,3.2-3.3h0c1.8,0,3.3,1.4,3.3,3.3C463.5,236.8,463.2,237.6,462.6,238.2z"/>
	</g>
	<path class="st1" d="M304.8,161.1c0,0-8.4-0.1-15.6,6.8C289.1,168,297.9,163.7,304.8,161.1z M336,173.1C336,173,336,173,336,173.1
		c0,0-3-3-8.4-3.1c-4.4-0.1-8.3,0.8-9.7,1.2c-1.1,0.1-1.8,0.8-2.3,1.9c-2.3,5.5-7.7,7.3-12.8,6.5c-7.1-1.1-13.2-4.3-18.4-9.2
		c-2-1.9-2.1-2.7-0.1-4.6c5.2-5,11.3-8.3,18.4-9.5c5.3-0.9,9.7,1,12.4,5.5l-0.1,0c0,0,1,3.5,4.5,3.8c1,0.1,2.3,0.1,3.9-0.1
		c0,0,0,0,0,0l0,0c0,0,0,0,0,0c0,0,0,0,0,0c0,0,0,0,0,0l0,0c3.3-0.5,11.1-2,13.5-6.8c0.7-1.4,0.9-3.2,0.9-5.6
		c-0.1-5.4-2.7-9.1-7.4-11.5c-3.1-1.6-6.5-2.1-10-2.1c-16.3,0-32.6,0-48.9,0c-0.3,0-0.6,0-1,0c0,20.7,0,41.4,0,62.2
		c0.5-0.1,1.1,0,1.5-0.2c7.6-3.1,15.5-3.2,23.4-2c6.2,0.9,12.2,2.9,18.5,3.3c4.4,0.3,8.9,0.5,13.2-0.7c7.6-2.1,13.6-8.1,14-16.2
		C341.5,180.5,339.9,176.2,336,173.1z"/>
</g>
<g>
	<g>
		<g>
			<g>
				<path class="st2" d="M239.6,588.4c-2.4,0-4.8,0-7.1,0c0-4.5,0-8.9,0-13.4c0.3,0.1,0.7,0.1,1,0.2c1.4,0.6,2.8,1.1,4.2,1.7
					c0.1,0.1,0.2,0.1,0.4-0.1c0.9-1.4,2.3-1.9,3.9-2.1c1.1-0.1,2.1,0,3.1,0.3c1,0.3,1.8,0.9,2.3,1.7c0.2,0.3,0.2,0.3,0.4,0
					c0.9-1.2,2.2-1.8,3.7-2c1.2-0.1,2.4,0,3.5,0.5c1.4,0.7,2.2,1.8,2.6,3.3c0.1,0.6,0.2,1.1,0.2,1.7c0,2.6,0,5.2,0,7.8
					c0,0.1,0,0.2,0,0.3c-2.4,0-4.7,0-7.1,0c0-0.1,0-0.2,0-0.3c0-2,0-4,0-6c0-0.2,0-0.4,0-0.5c-0.1-0.6-0.5-0.9-1.1-0.8
					c-0.5,0-0.8,0.4-0.8,1c0,0.1,0,0.2,0,0.3c0,2,0,4,0,6c0,0.1,0,0.2,0,0.3c-2.4,0-4.7,0-7.1,0c0-0.1,0-0.2,0-0.3c0-2,0-4,0-6.1
					c0-0.2,0-0.4-0.1-0.6c-0.1-0.5-0.5-0.7-1-0.7c-0.4,0-0.8,0.3-0.9,0.7c0,0.2-0.1,0.4-0.1,0.6c0,2,0,4,0,6
					C239.6,588.2,239.6,588.3,239.6,588.4z"/>
				<path class="st2" d="M214.6,575.1c2.5,0,5,0,7.5,0c0,0.1,0,0.2,0,0.3c0,2,0,4,0,6c0,0.2,0,0.5,0.1,0.7c0.2,0.5,0.5,0.7,1.1,0.6
					c0.4-0.1,0.8-0.4,0.8-0.9c0-0.2,0-0.3,0-0.5c0-2,0-4,0-5.9c0-0.1,0-0.2,0-0.4c2.5,0,5,0,7.4,0c0,4.5,0,8.9,0,13.4
					c-2.7,0-5.3,0-8,0c0.1-0.5,0.3-0.9,0.4-1.4c0.1-0.5,0.2-0.9,0.2-1.4c0,0-0.1,0-0.1-0.1c-0.1,0.1-0.1,0.1-0.2,0.2
					c-0.4,1.1-1,1.9-2,2.4c-0.7,0.4-1.5,0.6-2.3,0.6c-1.4,0-2.7-0.3-3.6-1.4c-0.8-0.8-1.1-1.9-1.2-3c0-0.6-0.1-1.2-0.1-1.8
					c0-2.4,0-4.8,0-7.2C214.6,575.3,214.6,575.2,214.6,575.1z"/>
			</g>
		</g>
		<path class="st2" d="M211.9,580.2c-0.9-0.5-1.9-0.8-2.9-0.9c-0.4,0-0.8-0.1-1.2-0.1c0-0.1,0-0.2,0-0.3c0.2,0,0.5,0,0.7,0
			c0.9,0,1.7-0.2,2.4-0.6c1.3-0.7,2-1.8,2-3.3c0-1.5-0.7-2.5-2.1-3.2c-0.9-0.4-1.8-0.6-2.8-0.6c-4.5,0-9.1,0-13.6,0
			c-0.1,0-0.2,0-0.3,0c0,5.8,0,11.5,0,17.3c0.2,0,0.3,0,0.4-0.1c2.1-0.9,4.3-0.9,6.5-0.6c1.7,0.3,3.4,0.8,5.2,0.9
			c1.2,0.1,2.5,0.1,3.7-0.2c2.1-0.6,3.8-2.3,3.9-4.5C213.9,582.5,213.4,581.1,211.9,580.2z M202.2,575.5l0.7,0c0.1,0,0.2,0,0.4,0
			c0.3,0,0.6,0,0.9,0.1c0.7,0.1,1.1,0.6,1.1,1.3c0,0.7-0.4,1.3-1.1,1.4c-0.3,0.1-0.7,0.1-1,0.1c-0.1,0-0.3,0-0.4,0l-0.7,0V575.5z
			 M204.4,583c-0.1,0-0.2,0-0.3,0c-0.6,0-1.1-0.2-1.4-0.4c-0.2-0.1-0.4-0.4-0.4-0.7c0-0.3,0-0.6,0-1c0-0.1,0-0.2,0-0.3V580h0.6
			c0.2,0,0.3,0,0.5,0c0.2,0,0.3,0,0.5,0c0.2,0,0.4,0,0.6,0c0.8,0.1,1.4,0.7,1.4,1.5C205.8,582.3,205.2,582.9,204.4,583z"/>
		<path class="st2" d="M276.8,580.2c-0.9-0.5-1.9-0.8-2.9-0.9c-0.4,0-0.8-0.1-1.2-0.1c0-0.1,0-0.2,0-0.3c0.2,0,0.5,0,0.7,0
			c0.9,0,1.7-0.2,2.4-0.6c1.3-0.7,2-1.8,2-3.3c0-1.5-0.7-2.5-2.1-3.2c-0.9-0.4-1.8-0.6-2.8-0.6c-4.5,0-9.1,0-13.6,0
			c-0.1,0-0.2,0-0.3,0c0,5.8,0,11.5,0,17.3c0.2,0,0.3,0,0.4-0.1c2.1-0.9,4.3-0.9,6.5-0.6c1.7,0.3,3.4,0.8,5.2,0.9
			c1.2,0.1,2.5,0.1,3.7-0.2c2.1-0.6,3.8-2.3,3.9-4.5C278.8,582.5,278.2,581.1,276.8,580.2z M267.1,575.5l0.7,0c0.1,0,0.2,0,0.4,0
			c0.3,0,0.6,0,0.9,0.1c0.7,0.1,1.1,0.6,1.1,1.3c0,0.7-0.4,1.3-1.1,1.4c-0.3,0.1-0.7,0.1-1,0.1c-0.1,0-0.3,0-0.4,0l-0.7,0V575.5z
			 M269.3,583c-0.1,0-0.2,0-0.3,0c-0.6,0-1.1-0.2-1.4-0.4c-0.2-0.1-0.4-0.4-0.4-0.7c0-0.3,0-0.6,0-1c0-0.1,0-0.2,0-0.3V580h0.6
			c0.2,0,0.3,0,0.5,0c0.2,0,0.3,0,0.5,0c0.2,0,0.4,0,0.6,0c0.8,0.1,1.4,0.7,1.4,1.5C270.7,582.3,270.1,582.9,269.3,583z"/>
		<path class="st2" d="M305.2,588.4c-2.4,0-4.8,0-7.1,0c0-4.5,0-8.9,0-13.4c0.3,0.1,0.7,0.1,1,0.2c1.4,0.6,2.8,1.1,4.2,1.7
			c0.1,0.1,0.2,0.1,0.4-0.1c0.9-1.4,2.3-1.9,3.9-2.1c1.1-0.1,2.1,0,3.1,0.3c1,0.3,1.8,0.9,2.3,1.7c0.2,0.3,0.2,0.3,0.4,0
			c0.9-1.2,2.2-1.8,3.7-2c1.2-0.1,2.4,0,3.5,0.5c1.4,0.7,2.2,1.8,2.6,3.3c0.1,0.6,0.2,1.1,0.2,1.7c0,2.6,0,5.2,0,7.8
			c0,0.1,0,0.2,0,0.3c-2.4,0-4.7,0-7.1,0c0-0.1,0-0.2,0-0.3c0-2,0-4,0-6c0-0.2,0-0.4,0-0.5c-0.1-0.6-0.5-0.9-1.1-0.8
			c-0.5,0-0.8,0.4-0.8,1c0,0.1,0,0.2,0,0.3c0,2,0,4,0,6c0,0.1,0,0.2,0,0.3c-2.4,0-4.7,0-7.1,0c0-0.1,0-0.2,0-0.3c0-2,0-4,0-6.1
			c0-0.2,0-0.4-0.1-0.6c-0.1-0.5-0.5-0.7-1-0.7c-0.4,0-0.8,0.3-0.9,0.7c0,0.2-0.1,0.4-0.1,0.6c0,2,0,4,0,6
			C305.2,588.2,305.2,588.3,305.2,588.4z"/>
		<path class="st2" d="M280.2,575.1c2.5,0,5,0,7.5,0c0,0.1,0,0.2,0,0.3c0,2,0,4,0,6c0,0.2,0,0.5,0.1,0.7c0.2,0.5,0.5,0.7,1.1,0.6
			c0.4-0.1,0.8-0.4,0.8-0.9c0-0.2,0-0.3,0-0.5c0-2,0-4,0-5.9c0-0.1,0-0.2,0-0.4c2.5,0,5,0,7.4,0c0,4.5,0,8.9,0,13.4
			c-2.7,0-5.3,0-8,0c0.1-0.5,0.3-0.9,0.4-1.4c0.1-0.5,0.2-0.9,0.2-1.4c0,0-0.1,0-0.1-0.1c-0.1,0.1-0.1,0.1-0.2,0.2
			c-0.4,1.1-1,1.9-2,2.4c-0.7,0.4-1.5,0.6-2.3,0.6c-1.4,0-2.7-0.3-3.6-1.4c-0.8-0.8-1.1-1.9-1.2-3c0-0.6-0.1-1.2-0.1-1.8
			c0-2.4,0-4.8,0-7.2C280.2,575.3,280.2,575.2,280.2,575.1z"/>
		<path class="st2" d="M343.4,580.2c-0.9-0.5-1.9-0.8-2.9-0.9c-0.4,0-0.8-0.1-1.2-0.1c0-0.1,0-0.2,0-0.3c0.2,0,0.5,0,0.7,0
			c0.9,0,1.7-0.2,2.4-0.6c1.3-0.7,2-1.8,2-3.3c0-1.5-0.7-2.5-2.1-3.2c-0.9-0.4-1.8-0.6-2.8-0.6c-4.5,0-9.1,0-13.6,0
			c-0.1,0-0.2,0-0.3,0c0,5.8,0,11.5,0,17.3c0.2,0,0.3,0,0.4-0.1c2.1-0.9,4.3-0.9,6.5-0.6c1.7,0.3,3.4,0.8,5.2,0.9
			c1.2,0.1,2.5,0.1,3.7-0.2c2.1-0.6,3.8-2.3,3.9-4.5C345.4,582.5,344.8,581.1,343.4,580.2z M333.7,575.5l0.7,0c0.1,0,0.2,0,0.4,0
			c0.3,0,0.6,0,0.9,0.1c0.7,0.1,1.1,0.6,1.1,1.3c0,0.7-0.4,1.3-1.1,1.4c-0.3,0.1-0.7,0.1-1,0.1c-0.1,0-0.3,0-0.4,0l-0.7,0V575.5z
			 M335.9,583c-0.1,0-0.2,0-0.3,0c-0.6,0-1.1-0.2-1.4-0.4c-0.2-0.1-0.4-0.4-0.4-0.7c0-0.3,0-0.6,0-1c0-0.1,0-0.2,0-0.3V580h0.6
			c0.2,0,0.3,0,0.5,0c0.2,0,0.3,0,0.5,0c0.2,0,0.4,0,0.6,0c0.8,0.1,1.4,0.7,1.4,1.5C337.2,582.3,336.7,582.9,335.9,583z"/>
		<path class="st2" d="M390.3,588.3c-2.4,0-4.7,0-7.1,0c0-0.1,0-0.2,0-0.3c0-2,0-4,0-6.1c0-0.2,0-0.4-0.1-0.5
			c-0.1-0.5-0.4-0.7-0.9-0.8c-0.5,0-0.8,0.3-0.9,0.7c0,0.2-0.1,0.4-0.1,0.5c0,2,0,4,0,6.1c0,0.1,0,0.2,0,0.3c-0.1,0-0.2,0-0.3,0
			c-2.2,0-4.3,0-6.5,0c-0.2,0-0.3-0.1-0.3-0.3c0-2,0-4,0-6.1c0-0.2,0-0.5-0.1-0.7c-0.2-0.5-0.5-0.7-1.1-0.6
			c-0.4,0.1-0.7,0.4-0.8,0.9c0,0.2,0,0.3,0,0.5c0,2,0,4,0,6c0,0.2,0,0.3-0.3,0.3c-2.2,0-4.4,0-6.6,0c-0.1,0-0.2,0-0.3,0
			c0-4.5,0-8.9,0-13.4c0.3,0,0.6,0,0.8,0.1c1.4,0.6,2.9,1.2,4.3,1.7c0.1,0.1,0.2,0.1,0.4,0c0.7-1,1.7-1.6,2.8-1.9
			c1.4-0.4,2.8-0.4,4.2,0.1c1,0.3,1.8,0.9,2.3,1.7c0.2,0.3,0.2,0.3,0.4,0c1-1.2,2.3-1.9,3.8-2c1.2-0.1,2.3,0,3.4,0.5
			c1.4,0.7,2.3,1.9,2.6,3.5c0.1,0.5,0.1,1,0.1,1.5c0,2.6,0,5.3,0,7.9C390.3,588.1,390.3,588.2,390.3,588.3z"/>
		<path class="st2" d="M362.2,575c-1.6,0.6-3.2,1.2-4.8,1.9c-0.3,0.1-0.4,0.1-0.6-0.2c-1.1-1.4-2.6-2.1-4.3-2.2
			c-2-0.1-3.6,0.7-4.8,2.3c-0.9,1.2-1.4,2.5-1.5,4c-0.1,1.7,0.1,3.3,0.8,4.9c0.7,1.5,1.8,2.5,3.4,2.9c1.5,0.3,2.9,0,3.9-1.4
			c0.7-1,1.1-2.1,1.2-3.2c0-0.2,0.1-0.3,0.3-0.2c0,1.5-0.2,3-0.8,4.5c2.8,0,5.5,0,8.2,0c0-4.5,0-8.9,0-13.4
			C362.8,574.9,362.5,574.9,362.2,575z M354.9,583.3L354.9,583.3c-1,0-1.8-0.8-1.8-1.8c0-1,0.8-1.8,1.8-1.8l0,0
			c0.5,0,0.9,0.2,1.3,0.5c0.3,0.3,0.5,0.8,0.5,1.3C356.7,582.4,355.9,583.3,354.9,583.3z"/>
		<path class="st2" d="M410,574.9c2.5,0,5,0,7.4,0c0,4.5,0,8.9,0,13.4c-0.1,0-0.2,0-0.3,0c-2.3,0-4.5,0-6.8,0c-0.3,0-0.4,0-0.4-0.3
			c0-4.2,0-8.5,0-12.7C410,575.1,410,575,410,574.9z"/>
		<path class="st2" d="M413.7,569.5c0.8,0.1,1.7,0.1,2.5,0.4c1.1,0.3,1.7,1.1,1.7,2.1c0,1-0.6,1.7-1.6,2.1c-1,0.3-2.1,0.4-3.1,0.3
			c-0.8,0-1.5-0.1-2.3-0.5c-1.5-0.7-1.5-2.3-0.9-3.2c0.4-0.5,1-0.8,1.6-0.9C412.2,569.7,412.9,569.6,413.7,569.5z"/>
		<path class="st2" d="M409,580.8c-0.1-1.5-0.5-2.8-1.4-4.1c-0.9-1.3-2.1-2.1-3.7-2.2c-1.3-0.1-2.4,0.3-3.4,1.2
			c-0.7,0.6-1.3,1.4-1.6,2.2c0,0.1-0.1,0.2-0.2,0.3c0,0-0.1,0-0.1,0c0-2.3,0-4.6,0-6.9c-2.5,0-5,0-7.4,0c0,5.7,0,11.3,0,17
			c2.7,0,5.5,0,8.2,0c-0.4-1.1-0.8-2.2-0.7-3.4c0,0,0.1,0,0.1,0c0.1,0.1,0.1,0.2,0.2,0.4c0.4,0.8,0.9,1.6,1.6,2.2
			c1.3,1.2,2.9,1.6,4.6,1c1.4-0.5,2.3-1.5,2.9-2.7C408.9,584.2,409.2,582.5,409,580.8z M402.7,582.9c-0.4,0.4-0.9,0.6-1.4,0.6
			c0,0,0,0,0,0c-1.1,0-2-0.9-2-2c0-1.1,0.9-2,2-2h0c1.1,0,2,0.9,2,2C403.3,582,403.1,582.6,402.7,582.9z"/>
	</g>
	<path class="st2" d="M305.2,535.3c0,0-5.2,0-9.7,4.2C295.6,539.5,301,536.9,305.2,535.3z M324.5,542.7
		C324.5,542.7,324.6,542.7,324.5,542.7c0,0-1.8-1.8-5.2-1.9c-2.7-0.1-5.1,0.5-6,0.7c-0.7,0.1-1.1,0.5-1.4,1.2
		c-1.4,3.4-4.7,4.5-7.9,4c-4.4-0.7-8.1-2.7-11.4-5.7c-1.3-1.2-1.3-1.7,0-2.9c3.2-3.1,7-5.1,11.4-5.9c3.3-0.6,6,0.6,7.6,3.4l0,0
		c0,0,0.6,2.2,2.8,2.4c0.6,0.1,1.4,0,2.4-0.1c0,0,0,0,0,0l0,0c0,0,0,0,0,0c0,0,0,0,0,0c0,0,0,0,0,0l0,0c2.1-0.3,6.9-1.3,8.3-4.2
		c0.4-0.9,0.6-2,0.6-3.5c-0.1-3.3-1.7-5.6-4.6-7.1c-1.9-1-4-1.3-6.2-1.3c-10.1,0-20.1,0-30.2,0c-0.2,0-0.4,0-0.6,0
		c0,12.8,0,25.6,0,38.4c0.3,0,0.7,0,0.9-0.1c4.7-1.9,9.6-2,14.5-1.2c3.8,0.6,7.5,1.8,11.4,2c2.7,0.2,5.5,0.3,8.2-0.4
		c4.7-1.3,8.4-5,8.6-10C327.9,547.3,327,544.6,324.5,542.7z"/>
</g>
<rect x="-1" y="376.9" class="st1" width="609" height="125"/>
<g>
	<g>
		<g>
			<g>
				<path class="st2" d="M239.6,465.4c-2.4,0-4.8,0-7.1,0c0-4.5,0-8.9,0-13.4c0.3,0.1,0.7,0.1,1,0.2c1.4,0.6,2.8,1.1,4.2,1.7
					c0.1,0.1,0.2,0.1,0.4-0.1c0.9-1.4,2.3-1.9,3.9-2.1c1.1-0.1,2.1,0,3.1,0.3c1,0.3,1.8,0.9,2.3,1.7c0.2,0.3,0.2,0.3,0.4,0
					c0.9-1.2,2.2-1.8,3.7-2c1.2-0.1,2.4,0,3.5,0.5c1.4,0.7,2.2,1.8,2.6,3.3c0.1,0.6,0.2,1.1,0.2,1.7c0,2.6,0,5.2,0,7.8
					c0,0.1,0,0.2,0,0.3c-2.4,0-4.7,0-7.1,0c0-0.1,0-0.2,0-0.3c0-2,0-4,0-6c0-0.2,0-0.4,0-0.5c-0.1-0.6-0.5-0.9-1.1-0.8
					c-0.5,0-0.8,0.4-0.8,1c0,0.1,0,0.2,0,0.3c0,2,0,4,0,6c0,0.1,0,0.2,0,0.3c-2.4,0-4.7,0-7.1,0c0-0.1,0-0.2,0-0.3c0-2,0-4,0-6.1
					c0-0.2,0-0.4-0.1-0.6c-0.1-0.5-0.5-0.7-1-0.7c-0.4,0-0.8,0.3-0.9,0.7c0,0.2-0.1,0.4-0.1,0.6c0,2,0,4,0,6
					C239.6,465.2,239.6,465.3,239.6,465.4z"/>
				<path class="st2" d="M214.6,452.1c2.5,0,5,0,7.5,0c0,0.1,0,0.2,0,0.3c0,2,0,4,0,6c0,0.2,0,0.5,0.1,0.7c0.2,0.5,0.5,0.7,1.1,0.6
					c0.4-0.1,0.8-0.4,0.8-0.9c0-0.2,0-0.3,0-0.5c0-2,0-4,0-5.9c0-0.1,0-0.2,0-0.4c2.5,0,5,0,7.4,0c0,4.5,0,8.9,0,13.4
					c-2.7,0-5.3,0-8,0c0.1-0.5,0.3-0.9,0.4-1.4c0.1-0.5,0.2-0.9,0.2-1.4c0,0-0.1,0-0.1-0.1c-0.1,0.1-0.1,0.1-0.2,0.2
					c-0.4,1.1-1,1.9-2,2.4c-0.7,0.4-1.5,0.6-2.3,0.6c-1.4,0-2.7-0.3-3.6-1.4c-0.8-0.8-1.1-1.9-1.2-3c0-0.6-0.1-1.2-0.1-1.8
					c0-2.4,0-4.8,0-7.2C214.6,452.3,214.6,452.2,214.6,452.1z"/>
			</g>
		</g>
		<path class="st2" d="M211.9,457.2c-0.9-0.5-1.9-0.8-2.9-0.9c-0.4,0-0.8-0.1-1.2-0.1c0-0.1,0-0.2,0-0.3c0.2,0,0.5,0,0.7,0
			c0.9,0,1.7-0.2,2.4-0.6c1.3-0.7,2-1.8,2-3.3c0-1.5-0.7-2.5-2.1-3.2c-0.9-0.4-1.8-0.6-2.8-0.6c-4.5,0-9.1,0-13.6,0
			c-0.1,0-0.2,0-0.3,0c0,5.8,0,11.5,0,17.3c0.2,0,0.3,0,0.4-0.1c2.1-0.9,4.3-0.9,6.5-0.6c1.7,0.3,3.4,0.8,5.2,0.9
			c1.2,0.1,2.5,0.1,3.7-0.2c2.1-0.6,3.8-2.3,3.9-4.5C213.9,459.5,213.4,458.1,211.9,457.2z M202.2,452.5l0.7,0c0.1,0,0.2,0,0.4,0
			c0.3,0,0.6,0,0.9,0.1c0.7,0.1,1.1,0.6,1.1,1.3c0,0.7-0.4,1.3-1.1,1.4c-0.3,0.1-0.7,0.1-1,0.1c-0.1,0-0.3,0-0.4,0l-0.7,0V452.5z
			 M204.4,460c-0.1,0-0.2,0-0.3,0c-0.6,0-1.1-0.2-1.4-0.4c-0.2-0.1-0.4-0.4-0.4-0.7c0-0.3,0-0.6,0-1c0-0.1,0-0.2,0-0.3V457h0.6
			c0.2,0,0.3,0,0.5,0c0.2,0,0.3,0,0.5,0c0.2,0,0.4,0,0.6,0c0.8,0.1,1.4,0.7,1.4,1.5C205.8,459.3,205.2,459.9,204.4,460z"/>
		<path class="st2" d="M276.8,457.2c-0.9-0.5-1.9-0.8-2.9-0.9c-0.4,0-0.8-0.1-1.2-0.1c0-0.1,0-0.2,0-0.3c0.2,0,0.5,0,0.7,0
			c0.9,0,1.7-0.2,2.4-0.6c1.3-0.7,2-1.8,2-3.3c0-1.5-0.7-2.5-2.1-3.2c-0.9-0.4-1.8-0.6-2.8-0.6c-4.5,0-9.1,0-13.6,0
			c-0.1,0-0.2,0-0.3,0c0,5.8,0,11.5,0,17.3c0.2,0,0.3,0,0.4-0.1c2.1-0.9,4.3-0.9,6.5-0.6c1.7,0.3,3.4,0.8,5.2,0.9
			c1.2,0.1,2.5,0.1,3.7-0.2c2.1-0.6,3.8-2.3,3.9-4.5C278.8,459.5,278.2,458.1,276.8,457.2z M267.1,452.5l0.7,0c0.1,0,0.2,0,0.4,0
			c0.3,0,0.6,0,0.9,0.1c0.7,0.1,1.1,0.6,1.1,1.3c0,0.7-0.4,1.3-1.1,1.4c-0.3,0.1-0.7,0.1-1,0.1c-0.1,0-0.3,0-0.4,0l-0.7,0V452.5z
			 M269.3,460c-0.1,0-0.2,0-0.3,0c-0.6,0-1.1-0.2-1.4-0.4c-0.2-0.1-0.4-0.4-0.4-0.7c0-0.3,0-0.6,0-1c0-0.1,0-0.2,0-0.3V457h0.6
			c0.2,0,0.3,0,0.5,0c0.2,0,0.3,0,0.5,0c0.2,0,0.4,0,0.6,0c0.8,0.1,1.4,0.7,1.4,1.5C270.7,459.3,270.1,459.9,269.3,460z"/>
		<path class="st2" d="M305.2,465.4c-2.4,0-4.8,0-7.1,0c0-4.5,0-8.9,0-13.4c0.3,0.1,0.7,0.1,1,0.2c1.4,0.6,2.8,1.1,4.2,1.7
			c0.1,0.1,0.2,0.1,0.4-0.1c0.9-1.4,2.3-1.9,3.9-2.1c1.1-0.1,2.1,0,3.1,0.3c1,0.3,1.8,0.9,2.3,1.7c0.2,0.3,0.2,0.3,0.4,0
			c0.9-1.2,2.2-1.8,3.7-2c1.2-0.1,2.4,0,3.5,0.5c1.4,0.7,2.2,1.8,2.6,3.3c0.1,0.6,0.2,1.1,0.2,1.7c0,2.6,0,5.2,0,7.8
			c0,0.1,0,0.2,0,0.3c-2.4,0-4.7,0-7.1,0c0-0.1,0-0.2,0-0.3c0-2,0-4,0-6c0-0.2,0-0.4,0-0.5c-0.1-0.6-0.5-0.9-1.1-0.8
			c-0.5,0-0.8,0.4-0.8,1c0,0.1,0,0.2,0,0.3c0,2,0,4,0,6c0,0.1,0,0.2,0,0.3c-2.4,0-4.7,0-7.1,0c0-0.1,0-0.2,0-0.3c0-2,0-4,0-6.1
			c0-0.2,0-0.4-0.1-0.6c-0.1-0.5-0.5-0.7-1-0.7c-0.4,0-0.8,0.3-0.9,0.7c0,0.2-0.1,0.4-0.1,0.6c0,2,0,4,0,6
			C305.2,465.2,305.2,465.3,305.2,465.4z"/>
		<path class="st2" d="M280.2,452.1c2.5,0,5,0,7.5,0c0,0.1,0,0.2,0,0.3c0,2,0,4,0,6c0,0.2,0,0.5,0.1,0.7c0.2,0.5,0.5,0.7,1.1,0.6
			c0.4-0.1,0.8-0.4,0.8-0.9c0-0.2,0-0.3,0-0.5c0-2,0-4,0-5.9c0-0.1,0-0.2,0-0.4c2.5,0,5,0,7.4,0c0,4.5,0,8.9,0,13.4
			c-2.7,0-5.3,0-8,0c0.1-0.5,0.3-0.9,0.4-1.4c0.1-0.5,0.2-0.9,0.2-1.4c0,0-0.1,0-0.1-0.1c-0.1,0.1-0.1,0.1-0.2,0.2
			c-0.4,1.1-1,1.9-2,2.4c-0.7,0.4-1.5,0.6-2.3,0.6c-1.4,0-2.7-0.3-3.6-1.4c-0.8-0.8-1.1-1.9-1.2-3c0-0.6-0.1-1.2-0.1-1.8
			c0-2.4,0-4.8,0-7.2C280.2,452.3,280.2,452.2,280.2,452.1z"/>
		<path class="st2" d="M343.4,457.2c-0.9-0.5-1.9-0.8-2.9-0.9c-0.4,0-0.8-0.1-1.2-0.1c0-0.1,0-0.2,0-0.3c0.2,0,0.5,0,0.7,0
			c0.9,0,1.7-0.2,2.4-0.6c1.3-0.7,2-1.8,2-3.3c0-1.5-0.7-2.5-2.1-3.2c-0.9-0.4-1.8-0.6-2.8-0.6c-4.5,0-9.1,0-13.6,0
			c-0.1,0-0.2,0-0.3,0c0,5.8,0,11.5,0,17.3c0.2,0,0.3,0,0.4-0.1c2.1-0.9,4.3-0.9,6.5-0.6c1.7,0.3,3.4,0.8,5.2,0.9
			c1.2,0.1,2.5,0.1,3.7-0.2c2.1-0.6,3.8-2.3,3.9-4.5C345.4,459.5,344.8,458.1,343.4,457.2z M333.7,452.5l0.7,0c0.1,0,0.2,0,0.4,0
			c0.3,0,0.6,0,0.9,0.1c0.7,0.1,1.1,0.6,1.1,1.3c0,0.7-0.4,1.3-1.1,1.4c-0.3,0.1-0.7,0.1-1,0.1c-0.1,0-0.3,0-0.4,0l-0.7,0V452.5z
			 M335.9,460c-0.1,0-0.2,0-0.3,0c-0.6,0-1.1-0.2-1.4-0.4c-0.2-0.1-0.4-0.4-0.4-0.7c0-0.3,0-0.6,0-1c0-0.1,0-0.2,0-0.3V457h0.6
			c0.2,0,0.3,0,0.5,0c0.2,0,0.3,0,0.5,0c0.2,0,0.4,0,0.6,0c0.8,0.1,1.4,0.7,1.4,1.5C337.2,459.3,336.7,459.9,335.9,460z"/>
		<path class="st2" d="M390.3,465.3c-2.4,0-4.7,0-7.1,0c0-0.1,0-0.2,0-0.3c0-2,0-4,0-6.1c0-0.2,0-0.4-0.1-0.5
			c-0.1-0.5-0.4-0.7-0.9-0.8c-0.5,0-0.8,0.3-0.9,0.7c0,0.2-0.1,0.4-0.1,0.5c0,2,0,4,0,6.1c0,0.1,0,0.2,0,0.3c-0.1,0-0.2,0-0.3,0
			c-2.2,0-4.3,0-6.5,0c-0.2,0-0.3-0.1-0.3-0.3c0-2,0-4,0-6.1c0-0.2,0-0.5-0.1-0.7c-0.2-0.5-0.5-0.7-1.1-0.6
			c-0.4,0.1-0.7,0.4-0.8,0.9c0,0.2,0,0.3,0,0.5c0,2,0,4,0,6c0,0.2,0,0.3-0.3,0.3c-2.2,0-4.4,0-6.6,0c-0.1,0-0.2,0-0.3,0
			c0-4.5,0-8.9,0-13.4c0.3,0,0.6,0,0.8,0.1c1.4,0.6,2.9,1.2,4.3,1.7c0.1,0.1,0.2,0.1,0.4,0c0.7-1,1.7-1.6,2.8-1.9
			c1.4-0.4,2.8-0.4,4.2,0.1c1,0.3,1.8,0.9,2.3,1.7c0.2,0.3,0.2,0.3,0.4,0c1-1.2,2.3-1.9,3.8-2c1.2-0.1,2.3,0,3.4,0.5
			c1.4,0.7,2.3,1.9,2.6,3.5c0.1,0.5,0.1,1,0.1,1.5c0,2.6,0,5.3,0,7.9C390.3,465.1,390.3,465.2,390.3,465.3z"/>
		<path class="st2" d="M362.2,452c-1.6,0.6-3.2,1.2-4.8,1.9c-0.3,0.1-0.4,0.1-0.6-0.2c-1.1-1.4-2.6-2.1-4.3-2.2
			c-2-0.1-3.6,0.7-4.8,2.3c-0.9,1.2-1.4,2.5-1.5,4c-0.1,1.7,0.1,3.3,0.8,4.9c0.7,1.5,1.8,2.5,3.4,2.9c1.5,0.3,2.9,0,3.9-1.4
			c0.7-1,1.1-2.1,1.2-3.2c0-0.2,0.1-0.3,0.3-0.2c0,1.5-0.2,3-0.8,4.5c2.8,0,5.5,0,8.2,0c0-4.5,0-8.9,0-13.4
			C362.8,451.9,362.5,451.9,362.2,452z M354.9,460.3L354.9,460.3c-1,0-1.8-0.8-1.8-1.8c0-1,0.8-1.8,1.8-1.8l0,0
			c0.5,0,0.9,0.2,1.3,0.5c0.3,0.3,0.5,0.8,0.5,1.3C356.7,459.4,355.9,460.3,354.9,460.3z"/>
		<path class="st2" d="M410,451.9c2.5,0,5,0,7.4,0c0,4.5,0,8.9,0,13.4c-0.1,0-0.2,0-0.3,0c-2.3,0-4.5,0-6.8,0c-0.3,0-0.4,0-0.4-0.3
			c0-4.2,0-8.5,0-12.7C410,452.1,410,452,410,451.9z"/>
		<path class="st2" d="M413.7,446.5c0.8,0.1,1.7,0.1,2.5,0.4c1.1,0.3,1.7,1.1,1.7,2.1c0,1-0.6,1.7-1.6,2.1c-1,0.3-2.1,0.4-3.1,0.3
			c-0.8,0-1.5-0.1-2.3-0.5c-1.5-0.7-1.5-2.3-0.9-3.2c0.4-0.5,1-0.8,1.6-0.9C412.2,446.7,412.9,446.6,413.7,446.5z"/>
		<path class="st2" d="M409,457.8c-0.1-1.5-0.5-2.8-1.4-4.1c-0.9-1.3-2.1-2.1-3.7-2.2c-1.3-0.1-2.4,0.3-3.4,1.2
			c-0.7,0.6-1.3,1.4-1.6,2.2c0,0.1-0.1,0.2-0.2,0.3c0,0-0.1,0-0.1,0c0-2.3,0-4.6,0-6.9c-2.5,0-5,0-7.4,0c0,5.7,0,11.3,0,17
			c2.7,0,5.5,0,8.2,0c-0.4-1.1-0.8-2.2-0.7-3.4c0,0,0.1,0,0.1,0c0.1,0.1,0.1,0.2,0.2,0.4c0.4,0.8,0.9,1.6,1.6,2.2
			c1.3,1.2,2.9,1.6,4.6,1c1.4-0.5,2.3-1.5,2.9-2.7C408.9,461.2,409.2,459.5,409,457.8z M402.7,459.9c-0.4,0.4-0.9,0.6-1.4,0.6
			c0,0,0,0,0,0c-1.1,0-2-0.9-2-2c0-1.1,0.9-2,2-2h0c1.1,0,2,0.9,2,2C403.3,459,403.1,459.6,402.7,459.9z"/>
	</g>
	<path class="st2" d="M305.2,412.3c0,0-5.2,0-9.7,4.2C295.6,416.5,301,413.9,305.2,412.3z M324.5,419.7
		C324.5,419.7,324.6,419.7,324.5,419.7c0,0-1.8-1.8-5.2-1.9c-2.7-0.1-5.1,0.5-6,0.7c-0.7,0.1-1.1,0.5-1.4,1.2
		c-1.4,3.4-4.7,4.5-7.9,4c-4.4-0.7-8.1-2.7-11.4-5.7c-1.3-1.2-1.3-1.7,0-2.9c3.2-3.1,7-5.1,11.4-5.9c3.3-0.6,6,0.6,7.6,3.4l0,0
		c0,0,0.6,2.2,2.8,2.4c0.6,0.1,1.4,0,2.4-0.1c0,0,0,0,0,0l0,0c0,0,0,0,0,0c0,0,0,0,0,0c0,0,0,0,0,0l0,0c2.1-0.3,6.9-1.3,8.3-4.2
		c0.4-0.9,0.6-2,0.6-3.5c-0.1-3.3-1.7-5.6-4.6-7.1c-1.9-1-4-1.3-6.2-1.3c-10.1,0-20.1,0-30.2,0c-0.2,0-0.4,0-0.6,0
		c0,12.8,0,25.6,0,38.4c0.3,0,0.7,0,0.9-0.1c4.7-1.9,9.6-2,14.5-1.2c3.8,0.6,7.5,1.8,11.4,2c2.7,0.2,5.5,0.3,8.2-0.4
		c4.7-1.3,8.4-5,8.6-10C327.9,424.3,327,421.6,324.5,419.7z"/>
</g>
</svg>
