<?xml version="1.0" encoding="utf-8"?>
<!-- Generator: Adobe Illustrator 27.9.1, SVG Export Plug-In . SVG Version: 6.00 Build 0)  -->
<svg version="1.1" id="Layer_1" xmlns="http://www.w3.org/2000/svg" xmlns:xlink="http://www.w3.org/1999/xlink" x="0px" y="0px"
	 viewBox="0 0 612 622.5" style="enable-background:new 0 0 612 622.5;" xml:space="preserve">
<style type="text/css">
	.st0{fill:#171517;}
	.st1{fill:#D461A3;}
	.st2{fill:#FFFFFF;}
	.st3{fill:#F7F5F5;}
</style>
<path class="st1" d="M136.1,259.7c0,0-18.9-0.1-35.1,15.3C101,275,120.6,265.3,136.1,259.7z M206.1,286.4
	C206.2,286.4,206.2,286.3,206.1,286.4c0.1,0-6.7-6.7-18.8-7c-9.8-0.3-18.6,1.9-21.7,2.7c-2.5,0.3-4.1,1.7-5.1,4.3
	c-5.1,12.4-17.2,16.4-28.6,14.6c-15.9-2.5-29.5-9.7-41.2-20.7c-4.6-4.3-4.7-6-0.2-10.4c11.7-11.1,25.3-18.6,41.3-21.3
	c11.8-2,21.7,2.3,27.8,12.3l-0.1,0c0,0,2.4,7.8,10,8.6c2.2,0.2,5.2,0.1,8.7-0.2c0,0,0,0,0,0l0,0c0,0,0,0,0,0c0,0,0,0,0,0
	c0,0,0,0,0,0l0.1,0c7.5-1.1,24.9-4.6,30.3-15.3c1.5-3.2,2.1-7.2,2-12.5c-0.2-12-6-20.5-16.7-25.8c-7.1-3.5-14.7-4.6-22.4-4.6
	c-36.5,0-73.1,0-109.6,0c-0.7,0-1.4,0.1-2.2,0.1c0,46.5,0,92.8,0,139.4c1.2-0.2,2.4-0.1,3.3-0.5c17-6.9,34.7-7.2,52.5-4.5
	c13.9,2.1,27.4,6.5,41.5,7.4c9.9,0.6,19.9,1.2,29.6-1.5c17.1-4.8,30.6-18.2,31.3-36.3C218.5,303.2,214.9,293.5,206.1,286.4z"/>
<rect x="293" y="324.5" class="st0" width="288" height="272.4"/>
<path class="st1" d="M435.4,448c0,0-10.7-0.1-19.8,8.7C415.6,456.6,426.7,451.2,435.4,448z M475,463.1
	C475.1,463.1,475.1,463.1,475,463.1c0,0-3.8-3.8-10.6-4c-5.5-0.2-10.5,1.1-12.3,1.5c-1.4,0.1-2.3,1-2.9,2.4c-2.9,7-9.7,9.3-16.2,8.3
	c-9-1.4-16.7-5.5-23.3-11.7c-2.6-2.4-2.7-3.4-0.1-5.9c6.6-6.3,14.3-10.5,23.4-12c6.7-1.1,12.3,1.3,15.7,7l-0.1,0
	c0,0,1.3,4.4,5.7,4.8c1.2,0.1,3,0.1,4.9-0.1c0,0,0,0,0,0l0,0c0,0,0,0,0,0c0,0,0,0,0,0c0,0,0,0,0,0l0.1,0c4.2-0.6,14.1-2.6,17.1-8.7
	c0.9-1.8,1.2-4.1,1.1-7.1c-0.1-6.8-3.4-11.6-9.4-14.6c-4-2-8.3-2.6-12.7-2.6c-20.7,0-41.3,0-62,0c-0.4,0-0.8,0-1.2,0.1
	c0,26.3,0,52.5,0,78.8c0.7-0.1,1.3-0.1,1.9-0.3c9.6-3.9,19.6-4.1,29.7-2.6c7.9,1.2,15.5,3.7,23.5,4.2c5.6,0.3,11.2,0.7,16.7-0.9
	c9.7-2.7,17.3-10.3,17.7-20.5C482,472.6,480,467.1,475,463.1z"/>
<rect x="293" y="31.5" class="st1" width="288" height="272.4"/>
<path class="st2" d="M435.4,155c0,0-10.7-0.1-19.8,8.7C415.6,163.6,426.7,158.2,435.4,155z M475,170.1
	C475.1,170.1,475.1,170.1,475,170.1c0,0-3.8-3.8-10.6-4c-5.5-0.2-10.5,1.1-12.3,1.5c-1.4,0.1-2.3,1-2.9,2.4c-2.9,7-9.7,9.3-16.2,8.3
	c-9-1.4-16.7-5.5-23.3-11.7c-2.6-2.4-2.7-3.4-0.1-5.9c6.6-6.3,14.3-10.5,23.4-12c6.7-1.1,12.3,1.3,15.7,7l-0.1,0
	c0,0,1.3,4.4,5.7,4.8c1.2,0.1,3,0.1,4.9-0.1c0,0,0,0,0,0l0,0c0,0,0,0,0,0c0,0,0,0,0,0c0,0,0,0,0,0l0.1,0c4.2-0.6,14.1-2.6,17.1-8.7
	c0.9-1.8,1.2-4.1,1.1-7.1c-0.1-6.8-3.4-11.6-9.4-14.6c-4-2-8.3-2.6-12.7-2.6c-20.7,0-41.3,0-62,0c-0.4,0-0.8,0-1.2,0.1
	c0,26.3,0,52.5,0,78.8c0.7-0.1,1.3-0.1,1.9-0.3c9.6-3.9,19.6-4.1,29.7-2.6c7.9,1.2,15.5,3.7,23.5,4.2c5.6,0.3,11.2,0.7,16.7-0.9
	c9.7-2.7,17.3-10.3,17.7-20.5C482,179.6,480,174.1,475,170.1z"/>
</svg>
