<?xml version="1.0" encoding="utf-8"?>
<!-- Generator: Adobe Illustrator 27.9.1, SVG Export Plug-In . SVG Version: 6.00 Build 0)  -->
<svg version="1.1" id="Layer_1" xmlns="http://www.w3.org/2000/svg" xmlns:xlink="http://www.w3.org/1999/xlink" x="0px" y="0px"
	 viewBox="0 0 348 126.9" style="enable-background:new 0 0 348 126.9;" xml:space="preserve">
<style type="text/css">
	.st0{fill:#171517;}
	.st1{fill:#D461A3;}
	.st2{fill:#FFFFFF;}
	.st3{fill:#F7F5F5;}
</style>
<g>
	<g>
		<g>
			<g>
				<path class="st1" d="M121.3,46c-6.4,0-12.7,0-19,0c0-11.9,0-23.8,0-35.9c0.9,0.2,1.8,0.2,2.5,0.5c3.8,1.5,7.5,3,11.2,4.6
					c0.4,0.2,0.7,0.2,0.9-0.2c2.5-3.6,6.2-5.1,10.4-5.6c2.8-0.3,5.6-0.1,8.3,0.7c2.6,0.8,4.7,2.4,6.3,4.6c0.5,0.7,0.6,0.7,1.1,0
					c2.5-3.3,5.9-4.9,9.9-5.4c3.2-0.4,6.3-0.1,9.3,1.4c3.7,1.8,6,4.9,6.9,8.9c0.3,1.5,0.5,3,0.5,4.5c0,7,0,14,0,21
					c0,0.3,0,0.6,0,0.9c-6.3,0-12.6,0-18.9,0c0-0.3,0-0.6,0-0.9c0-5.3,0-10.6,0-15.9c0-0.5,0-1-0.1-1.4c-0.3-1.6-1.3-2.3-2.9-2.2
					c-1.3,0.1-2.2,1.1-2.2,2.6c0,0.3,0,0.6,0,0.9c0,5.4,0,10.7,0,16.1c0,0.3,0,0.5,0,0.9c-6.3,0-12.6,0-18.9,0c0-0.3,0-0.6,0-0.9
					c0-5.4,0-10.8,0-16.2c0-0.5,0-1-0.2-1.5c-0.3-1.2-1.2-1.9-2.5-1.9c-1.2,0-2.1,0.7-2.4,1.9c-0.1,0.5-0.2,1-0.2,1.6
					c0,5.4,0,10.8,0,16.1C121.3,45.4,121.3,45.7,121.3,46z"/>
				<path class="st1" d="M54.4,10.2c6.7,0,13.3,0,20,0c0,0.3,0,0.6,0,0.9c0,5.3,0,10.7,0,16c0,0.6,0.1,1.3,0.3,1.8
					c0.4,1.3,1.4,1.9,2.8,1.7c1.2-0.2,2-1.1,2.2-2.3c0-0.4,0-0.9,0-1.3c0-5.3,0-10.6,0-15.8c0-0.3,0-0.6,0-0.9c6.6,0,13.2,0,19.9,0
					c0,11.9,0,23.8,0,35.7c-7.1,0-14.2,0-21.4,0c0.3-1.3,0.7-2.5,1-3.7c0.3-1.2,0.4-2.5,0.6-3.7c-0.1-0.1-0.2-0.1-0.3-0.2
					c-0.2,0.2-0.4,0.4-0.4,0.6c-1,2.8-2.6,5.1-5.3,6.5c-1.9,1-4,1.5-6.1,1.5c-3.7,0-7.1-0.9-9.7-3.8c-2.1-2.2-3-5-3.3-8
					c-0.1-1.6-0.2-3.2-0.2-4.9c0-6.4,0-12.9,0-19.3C54.4,10.9,54.4,10.6,54.4,10.2z"/>
			</g>
		</g>
		<path class="st1" d="M47.2,24.1c-2.4-1.4-5-2.1-7.7-2.3c-1-0.1-2.1-0.1-3.2-0.2c0-0.3,0-0.5,0-0.8c0.6,0,1.3,0,1.9,0
			c2.3-0.1,4.5-0.6,6.5-1.7c3.6-1.9,5.4-4.9,5.3-8.9c-0.1-4-2-6.8-5.5-8.6C42.2,0.4,39.7,0,37.1,0C25,0,12.8,0,0.7,0
			C0.5,0,0.2,0,0,0c0,15.4,0,30.8,0,46.3c0.4-0.1,0.8,0,1.1-0.2c5.7-2.3,11.5-2.4,17.4-1.5c4.6,0.7,9.1,2.2,13.8,2.4
			c3.3,0.2,6.6,0.4,9.8-0.5c5.7-1.6,10.1-6,10.4-12C52.7,30,51.1,26.5,47.2,24.1z M21.4,11.3l1.7,0.1c0.3,0,0.6,0,1,0
			c0.8,0,1.6,0,2.4,0.2c1.8,0.3,3,1.7,3.1,3.5c0,1.9-1.2,3.4-2.9,3.7C25.9,19,25,19,24.2,19c-0.3,0-0.7,0-1,0l-1.7,0.1V11.3z
			 M27.2,31.5c-0.3,0-0.5,0.1-0.8,0.1c-1.6,0-2.9-0.6-3.9-1.2c-0.6-0.4-1.1-1.1-1.1-1.9c0-0.9,0-1.7,0-2.6c0-0.3,0-0.6,0-0.9v-1.7
			h1.7c0.4,0,0.8,0,1.2,0c0.4,0,0.8,0,1.2,0c0.6,0,1.1,0,1.6,0c2.2,0.1,3.8,1.8,3.8,4C30.9,29.6,29.4,31.2,27.2,31.5z"/>
		<path class="st1" d="M220.6,24.1c-2.4-1.4-5-2.1-7.7-2.3c-1-0.1-2.1-0.1-3.2-0.2c0-0.3,0-0.5,0-0.8c0.6,0,1.3,0,1.9,0
			c2.3-0.1,4.5-0.6,6.5-1.7c3.6-1.9,5.4-4.9,5.3-8.9c-0.1-4-2-6.8-5.5-8.6C215.5,0.4,213,0,210.4,0c-12.1,0-24.2,0-36.4,0
			c-0.2,0-0.5,0-0.7,0c0,15.4,0,30.8,0,46.3c0.4-0.1,0.8,0,1.1-0.2c5.7-2.3,11.5-2.4,17.4-1.5c4.6,0.7,9.1,2.2,13.8,2.4
			c3.3,0.2,6.6,0.4,9.8-0.5c5.7-1.6,10.1-6,10.4-12C226,30,224.5,26.5,220.6,24.1z M194.8,11.3l1.7,0.1c0.3,0,0.6,0,1,0
			c0.8,0,1.6,0,2.4,0.2c1.8,0.3,3,1.7,3.1,3.5c0,1.9-1.2,3.4-2.9,3.7c-0.9,0.2-1.7,0.2-2.6,0.2c-0.3,0-0.7,0-1,0l-1.7,0.1V11.3z
			 M200.5,31.5c-0.3,0-0.5,0.1-0.8,0.1c-1.6,0-2.9-0.6-3.9-1.2c-0.6-0.4-1.1-1.1-1.1-1.9c0-0.9,0-1.7,0-2.6c0-0.3,0-0.6,0-0.9v-1.7
			h1.7c0.4,0,0.8,0,1.2,0c0.4,0,0.8,0,1.2,0c0.6,0,1.1,0,1.6,0c2.2,0.1,3.8,1.8,3.8,4C204.2,29.6,202.7,31.2,200.5,31.5z"/>
		<path class="st1" d="M296.6,46c-6.4,0-12.7,0-19,0c0-11.9,0-23.8,0-35.9c0.9,0.2,1.8,0.2,2.5,0.5c3.8,1.5,7.5,3,11.2,4.6
			c0.4,0.2,0.7,0.2,0.9-0.2c2.5-3.6,6.2-5.1,10.4-5.6c2.8-0.3,5.6-0.1,8.3,0.7c2.6,0.8,4.7,2.4,6.3,4.6c0.5,0.7,0.6,0.7,1.1,0
			c2.5-3.3,5.9-4.9,9.9-5.4c3.2-0.4,6.3-0.1,9.3,1.4c3.7,1.8,6,4.9,6.9,8.9c0.3,1.5,0.5,3,0.5,4.5c0,7,0,14,0,21c0,0.3,0,0.6,0,0.9
			c-6.3,0-12.6,0-18.9,0c0-0.3,0-0.6,0-0.9c0-5.3,0-10.6,0-15.9c0-0.5,0-1-0.1-1.4c-0.3-1.6-1.3-2.3-2.9-2.2
			c-1.3,0.1-2.2,1.1-2.2,2.6c0,0.3,0,0.6,0,0.9c0,5.4,0,10.7,0,16.1c0,0.3,0,0.5,0,0.9c-6.3,0-12.6,0-18.9,0c0-0.3,0-0.6,0-0.9
			c0-5.4,0-10.8,0-16.2c0-0.5,0-1-0.2-1.5c-0.3-1.2-1.2-1.9-2.5-1.9c-1.2,0-2.1,0.7-2.4,1.9c-0.1,0.5-0.2,1-0.2,1.6
			c0,5.4,0,10.8,0,16.1C296.6,45.4,296.6,45.7,296.6,46z"/>
		<path class="st1" d="M229.6,10.2c6.7,0,13.3,0,20,0c0,0.3,0,0.6,0,0.9c0,5.3,0,10.7,0,16c0,0.6,0.1,1.3,0.3,1.8
			c0.4,1.3,1.4,1.9,2.8,1.7c1.2-0.2,2-1.1,2.2-2.3c0-0.4,0-0.9,0-1.3c0-5.3,0-10.6,0-15.8c0-0.3,0-0.6,0-0.9c6.6,0,13.2,0,19.9,0
			c0,11.9,0,23.8,0,35.7c-7.1,0-14.2,0-21.4,0c0.3-1.3,0.7-2.5,1-3.7c0.3-1.2,0.4-2.5,0.6-3.7c-0.1-0.1-0.2-0.1-0.3-0.2
			c-0.2,0.2-0.4,0.4-0.4,0.6c-1,2.8-2.6,5.1-5.3,6.5c-1.9,1-4,1.5-6.1,1.5c-3.7,0-7.1-0.9-9.7-3.8c-2.1-2.2-3-5-3.3-8
			c-0.1-1.6-0.2-3.2-0.2-4.9c0-6.4,0-12.9,0-19.3C229.6,10.9,229.6,10.6,229.6,10.2z"/>
		<path class="st1" d="M244.4,125.3c-8.9,0-17.7,0-26.7,0c0-0.4,0-0.8,0-1.2c0-7.6,0-15.2,0-22.8c0-0.7-0.1-1.3-0.2-2
			c-0.4-1.8-1.6-2.8-3.4-2.8c-1.9,0-3.2,1-3.6,2.8c-0.1,0.6-0.2,1.3-0.2,2c0,7.6,0,15.2,0,22.8c0,0.4,0,0.8,0,1.3
			c-0.4,0-0.8,0-1.1,0c-8.1,0-16.2,0-24.3,0c-0.9,0-1.2-0.2-1.2-1.2c0-7.6,0-15.2,0-22.8c0-0.9-0.1-1.8-0.3-2.6
			c-0.6-1.8-2.1-2.5-4-2.3c-1.5,0.2-2.7,1.5-2.9,3.2c-0.1,0.6-0.1,1.3-0.1,1.9c0,7.5,0,15.1,0,22.6c0,0.8-0.1,1.2-1.1,1.2
			c-8.2,0-16.5,0-24.7,0c-0.3,0-0.6,0-1-0.1c0-16.8,0-33.5,0-50.5c1.1,0.1,2.2,0.1,3.1,0.4c5.4,2.1,10.7,4.4,16.1,6.6
			c0.5,0.2,0.9,0.5,1.3-0.2c2.6-3.8,6.3-6.1,10.7-7.2c5.3-1.4,10.5-1.3,15.7,0.2c3.7,1.1,6.6,3.4,8.8,6.5c0.7,1,0.8,1,1.6,0
			c3.6-4.7,8.5-7,14.3-7.6c4.5-0.5,8.8,0,12.8,2c5.4,2.7,8.6,7.3,9.8,13.2c0.4,1.8,0.5,3.7,0.5,5.6c0,9.9,0,19.8,0,29.7
			C244.4,124.5,244.4,124.9,244.4,125.3z"/>
		<path class="st1" d="M138.9,75.4c-6.1,2.3-12.1,4.6-18.2,7c-1,0.4-1.6,0.4-2.3-0.6c-4.1-5.3-9.6-8.1-16.3-8.3
			c-7.5-0.3-13.6,2.7-18.2,8.7c-3.4,4.5-5.1,9.6-5.5,15.1c-0.5,6.4,0.2,12.6,3,18.4c2.6,5.5,6.6,9.4,12.8,10.7
			c5.8,1.2,10.8-0.1,14.5-5.1c2.7-3.6,4.1-7.7,4.6-12.2c0.1-0.7,0.2-1.1,1.1-0.8c0,5.8-0.9,11.4-2.9,16.9c10.4,0,20.7,0,31,0
			c0-16.8,0-33.5,0-50.6C141.2,74.9,140,75,138.9,75.4z M111.4,106.5L111.4,106.5c-3.7,0-6.7-3-6.8-6.7c0-3.8,2.9-6.8,6.7-6.9l0.1,0
			c1.8,0,3.5,0.7,4.7,2c1.2,1.3,1.9,3,1.9,4.8C118,103.4,115.1,106.4,111.4,106.5z"/>
		<path class="st1" d="M318.7,75c9.4,0,18.7,0,28,0c0,16.8,0,33.5,0,50.4c-0.4,0-0.8,0-1.2,0c-8.5,0-17,0-25.5,0
			c-1,0-1.4-0.2-1.4-1.3c0-16,0-31.9,0-47.9C318.7,75.8,318.7,75.5,318.7,75z"/>
		<path class="st1" d="M332.4,54.8c3.2,0.3,6.3,0.5,9.3,1.5c4,1.3,6.2,4,6.3,7.8c0,3.6-2.2,6.5-6.1,7.8c-3.8,1.3-7.8,1.5-11.8,1.3
			c-2.9-0.2-5.8-0.6-8.5-1.8c-5.8-2.7-5.7-8.8-3.3-11.9c1.6-2,3.8-3,6.2-3.5C327.1,55.4,329.8,55.2,332.4,54.8z"/>
		<path class="st1" d="M315.1,97.3c-0.4-5.5-1.9-10.7-5.1-15.3c-3.4-4.9-7.9-8-14-8.4c-4.9-0.4-9.1,1.2-12.8,4.4
			c-2.7,2.3-4.7,5.2-6.2,8.4c-0.2,0.4-0.5,0.6-0.8,1c-0.1-0.1-0.2-0.1-0.3-0.2c0-8.6,0-17.2,0-25.9c-9.4,0-18.7,0-28,0
			c0,21.4,0,42.7,0,64c10.3,0,20.6,0,31,0c-1.6-4.2-2.9-8.3-2.8-12.8c0.1,0,0.2-0.1,0.3-0.1c0.2,0.4,0.5,0.9,0.7,1.3
			c1.4,3.2,3.3,6,5.9,8.3c5,4.6,10.8,6.1,17.3,3.8c5.1-1.8,8.6-5.6,11.1-10.2C314.4,109.9,315.5,103.7,315.1,97.3z M291.2,105.2
			c-1.4,1.4-3.3,2.2-5.4,2.2c0,0,0,0,0,0c-4.2,0-7.5-3.4-7.5-7.7c0-4.2,3.3-7.6,7.5-7.6h0c4.2,0,7.6,3.3,7.6,7.6
			C293.4,101.9,292.6,103.8,291.2,105.2z"/>
	</g>
	<path class="st1" d="M38,83.5c0,0-8.7-0.1-16.2,7.1C21.8,90.5,30.8,86.1,38,83.5z M70.3,95.8C70.3,95.8,70.3,95.8,70.3,95.8
		c0,0-3.1-3.1-8.7-3.2c-4.5-0.1-8.6,0.9-10,1.3c-1.2,0.1-1.9,0.8-2.4,2c-2.4,5.7-7.9,7.6-13.2,6.7c-7.3-1.2-13.6-4.5-19-9.6
		c-2.1-2-2.2-2.8-0.1-4.8c5.4-5.1,11.7-8.6,19.1-9.8c5.5-0.9,10,1.1,12.8,5.7l-0.1,0c0,0,1.1,3.6,4.6,3.9c1,0.1,2.4,0.1,4-0.1
		c0,0,0,0,0,0l0,0c0,0,0,0,0,0c0,0,0,0,0,0c0,0,0,0,0,0l0,0c3.5-0.5,11.5-2.1,14-7.1c0.7-1.5,1-3.3,0.9-5.8
		c-0.1-5.5-2.8-9.5-7.7-11.9c-3.3-1.6-6.8-2.1-10.4-2.1c-16.9,0-33.7,0-50.6,0c-0.3,0-0.7,0-1,0c0,21.5,0,42.8,0,64.3
		c0.6-0.1,1.1,0,1.5-0.2c7.9-3.2,16-3.3,24.2-2.1c6.4,1,12.6,3,19.2,3.4c4.6,0.3,9.2,0.5,13.7-0.7c7.9-2.2,14.1-8.4,14.5-16.7
		C76,103.5,74.3,99.1,70.3,95.8z"/>
</g>
</svg>
