<?xml version="1.0" encoding="utf-8"?>
<!-- Generator: Adobe Illustrator 27.9.1, SVG Export Plug-In . SVG Version: 6.00 Build 0)  -->
<svg version="1.1" id="Layer_1" xmlns="http://www.w3.org/2000/svg" xmlns:xlink="http://www.w3.org/1999/xlink" x="0px" y="0px"
	 viewBox="0 0 612 622.5" style="enable-background:new 0 0 612 622.5;" xml:space="preserve">
<style type="text/css">
	.st0{fill:#171517;}
	.st1{fill:#D461A3;}
	.st2{fill:#FFFFFF;}
	.st3{fill:#F7F5F5;}
</style>
<g>
	<g>
		<g>
			<path class="st1" d="M344.6,172.6c-5.6,0-11.2,0-16.8,0c0-10.6,0-21.1,0-31.8c0.8,0.1,1.6,0.1,2.3,0.4c3.3,1.3,6.6,2.7,9.9,4.1
				c0.3,0.1,0.6,0.2,0.8-0.2c2.2-3.2,5.5-4.5,9.2-5c2.5-0.3,4.9-0.1,7.3,0.6c2.3,0.7,4.2,2.1,5.5,4.1c0.4,0.6,0.5,0.6,1,0
				c2.2-2.9,5.2-4.3,8.8-4.8c2.8-0.3,5.6-0.1,8.2,1.2c3.3,1.6,5.3,4.3,6.1,7.9c0.3,1.3,0.4,2.7,0.4,4c0,6.2,0,12.4,0,18.5
				c0,0.3,0,0.5,0,0.8c-5.6,0-11.1,0-16.8,0c0-0.3,0-0.6,0-0.8c0-4.7,0-9.4,0-14.1c0-0.4,0-0.8-0.1-1.3c-0.3-1.4-1.1-2.1-2.5-1.9
				c-1.1,0.1-1.9,1-2,2.3c0,0.3,0,0.5,0,0.8c0,4.7,0,9.5,0,14.2c0,0.2,0,0.5,0,0.8c-5.6,0-11.1,0-16.7,0c0-0.3,0-0.5,0-0.8
				c0-4.8,0-9.6,0-14.4c0-0.4,0-0.9-0.1-1.3c-0.3-1.1-1.1-1.7-2.3-1.7c-1,0-1.8,0.6-2.1,1.7c-0.1,0.4-0.2,0.9-0.2,1.4
				c0,4.8,0,9.5,0,14.3C344.6,172,344.6,172.3,344.6,172.6z"/>
			<path class="st1" d="M285.4,140.9c5.9,0,11.8,0,17.7,0c0,0.3,0,0.6,0,0.8c0,4.7,0,9.4,0,14.2c0,0.5,0.1,1.1,0.2,1.6
				c0.4,1.2,1.3,1.6,2.5,1.5c1-0.1,1.8-1,1.9-2.1c0-0.4,0-0.8,0-1.1c0-4.7,0-9.3,0-14c0-0.3,0-0.5,0-0.8c5.9,0,11.7,0,17.6,0
				c0,10.5,0,21,0,31.6c-6.3,0-12.6,0-18.9,0c0.3-1.1,0.6-2.2,0.8-3.3c0.2-1.1,0.4-2.2,0.6-3.3c-0.1,0-0.2-0.1-0.3-0.1
				c-0.1,0.2-0.3,0.4-0.4,0.6c-0.8,2.5-2.3,4.5-4.7,5.8c-1.7,0.9-3.5,1.3-5.4,1.3c-3.3,0-6.3-0.8-8.6-3.3c-1.8-2-2.7-4.4-2.9-7
				c-0.1-1.4-0.1-2.9-0.1-4.3c0-5.7,0-11.4,0-17.1C285.4,141.5,285.4,141.2,285.4,140.9z"/>
		</g>
	</g>
	<g>
		<g>
			<path class="st1" d="M344.6,210.9c-5.6,0-11.2,0-16.8,0c0-10.6,0-21.1,0-31.8c0.8,0.1,1.6,0.1,2.3,0.4c3.3,1.3,6.6,2.7,9.9,4.1
				c0.3,0.1,0.6,0.2,0.8-0.2c2.2-3.2,5.5-4.5,9.2-5c2.5-0.3,4.9-0.1,7.3,0.6c2.3,0.7,4.2,2.1,5.5,4.1c0.4,0.6,0.5,0.6,1,0
				c2.2-2.9,5.2-4.3,8.8-4.8c2.8-0.3,5.6-0.1,8.2,1.2c3.3,1.6,5.3,4.3,6.1,7.9c0.3,1.3,0.4,2.7,0.4,4c0,6.2,0,12.4,0,18.5
				c0,0.3,0,0.5,0,0.8c-5.6,0-11.1,0-16.8,0c0-0.3,0-0.6,0-0.8c0-4.7,0-9.4,0-14.1c0-0.4,0-0.8-0.1-1.3c-0.3-1.4-1.1-2.1-2.5-1.9
				c-1.1,0.1-1.9,1-2,2.3c0,0.3,0,0.5,0,0.8c0,4.7,0,9.5,0,14.2c0,0.2,0,0.5,0,0.8c-5.6,0-11.1,0-16.7,0c0-0.3,0-0.5,0-0.8
				c0-4.8,0-9.6,0-14.4c0-0.4,0-0.9-0.1-1.3c-0.3-1.1-1.1-1.7-2.3-1.7c-1,0-1.8,0.6-2.1,1.7c-0.1,0.4-0.2,0.9-0.2,1.4
				c0,4.8,0,9.5,0,14.3C344.6,210.4,344.6,210.6,344.6,210.9z"/>
			<path class="st1" d="M285.4,179.3c5.9,0,11.8,0,17.7,0c0,0.3,0,0.6,0,0.8c0,4.7,0,9.4,0,14.2c0,0.5,0.1,1.1,0.2,1.6
				c0.4,1.2,1.3,1.6,2.5,1.5c1-0.1,1.8-1,1.9-2.1c0-0.4,0-0.8,0-1.1c0-4.7,0-9.3,0-14c0-0.3,0-0.5,0-0.8c5.9,0,11.7,0,17.6,0
				c0,10.5,0,21,0,31.6c-6.3,0-12.6,0-18.9,0c0.3-1.1,0.6-2.2,0.8-3.3c0.2-1.1,0.4-2.2,0.6-3.3c-0.1,0-0.2-0.1-0.3-0.1
				c-0.1,0.2-0.3,0.4-0.4,0.6c-0.8,2.5-2.3,4.5-4.7,5.8c-1.7,0.9-3.5,1.3-5.4,1.3c-3.3,0-6.3-0.8-8.6-3.3c-1.8-2-2.7-4.4-2.9-7
				c-0.1-1.4-0.1-2.9-0.1-4.3c0-5.7,0-11.4,0-17.1C285.4,179.8,285.4,179.6,285.4,179.3z"/>
		</g>
	</g>
	<path class="st1" d="M389.8,249.9c-5.7,0-11.3,0-17.1,0c0-0.3,0-0.5,0-0.8c0-4.9,0-9.7,0-14.6c0-0.4,0-0.9-0.1-1.3
		c-0.2-1.2-1-1.8-2.2-1.8c-1.2,0-2,0.6-2.3,1.8c-0.1,0.4-0.1,0.8-0.1,1.3c0,4.9,0,9.7,0,14.6c0,0.2,0,0.5,0,0.8c-0.3,0-0.5,0-0.7,0
		c-5.2,0-10.4,0-15.6,0c-0.6,0-0.8-0.2-0.8-0.8c0-4.9,0-9.7,0-14.6c0-0.6,0-1.1-0.2-1.7c-0.4-1.1-1.3-1.6-2.6-1.5
		c-0.9,0.1-1.7,1-1.8,2.1c0,0.4,0,0.8,0,1.2c0,4.8,0,9.7,0,14.5c0,0.5-0.1,0.8-0.7,0.7c-5.3,0-10.6,0-15.8,0c-0.2,0-0.4,0-0.6,0
		c0-10.7,0-21.4,0-32.3c0.7,0.1,1.4,0,2,0.3c3.5,1.4,6.9,2.8,10.3,4.2c0.3,0.1,0.6,0.3,0.9-0.1c1.7-2.4,4-3.9,6.8-4.6
		c3.4-0.9,6.7-0.9,10.1,0.2c2.4,0.7,4.2,2.1,5.6,4.2c0.4,0.6,0.5,0.6,1,0c2.3-3,5.4-4.5,9.1-4.9c2.9-0.3,5.6,0,8.2,1.3
		c3.5,1.7,5.5,4.7,6.2,8.4c0.2,1.2,0.3,2.4,0.3,3.6c0,6.3,0,12.7,0,19C389.8,249.4,389.8,249.6,389.8,249.9z"/>
	<path class="st1" d="M322.3,217.9c-3.9,1.5-7.8,3-11.6,4.5c-0.6,0.3-1,0.3-1.5-0.4c-2.6-3.4-6.1-5.2-10.4-5.3
		c-4.8-0.2-8.7,1.7-11.6,5.5c-2.2,2.8-3.3,6.1-3.5,9.7c-0.3,4.1,0.2,8.1,1.9,11.8c1.7,3.5,4.2,6,8.2,6.9c3.7,0.8,6.9-0.1,9.3-3.3
		c1.7-2.3,2.6-4.9,3-7.8c0.1-0.5,0.2-0.7,0.7-0.5c0,3.7-0.6,7.3-1.9,10.8c6.7,0,13.2,0,19.8,0c0-10.8,0-21.5,0-32.4
		C323.8,217.7,323,217.7,322.3,217.9z M304.7,237.8L304.7,237.8c-2.4,0-4.3-1.9-4.3-4.3c0-2.4,1.9-4.4,4.3-4.4l0,0
		c1.2,0,2.2,0.5,3,1.3c0.8,0.8,1.2,1.9,1.2,3.1C308.9,235.9,307,237.8,304.7,237.8z"/>
	<path class="st1" d="M437.3,217.7c6,0,11.9,0,17.9,0c0,10.7,0,21.5,0,32.3c-0.3,0-0.5,0-0.8,0c-5.4,0-10.9,0-16.3,0
		c-0.7,0-0.9-0.1-0.9-0.8c0-10.2,0-20.4,0-30.6C437.3,218.2,437.3,218,437.3,217.7z"/>
	<path class="st1" d="M446.1,204.8c2,0.2,4,0.3,5.9,0.9c2.6,0.8,4,2.6,4,5c0,2.3-1.4,4.2-3.9,5c-2.4,0.8-5,1-7.5,0.8
		c-1.9-0.1-3.7-0.4-5.4-1.2c-3.7-1.7-3.6-5.6-2.1-7.6c1-1.3,2.4-1.9,4-2.2C442.7,205.2,444.4,205,446.1,204.8z"/>
	<path class="st1" d="M435,231.9c-0.3-3.5-1.2-6.9-3.3-9.8c-2.2-3.1-5.1-5.1-8.9-5.4c-3.1-0.2-5.8,0.8-8.2,2.8c-1.7,1.5-3,3.3-4,5.4
		c-0.1,0.2-0.3,0.4-0.5,0.6c-0.1,0-0.1-0.1-0.2-0.1c0-5.5,0-11,0-16.6c-6,0-11.9,0-17.9,0c0,13.7,0,27.3,0,41c6.6,0,13.2,0,19.8,0
		c-1-2.7-1.9-5.3-1.8-8.2c0.1,0,0.1-0.1,0.2-0.1c0.1,0.3,0.3,0.6,0.4,0.9c0.9,2,2.1,3.8,3.8,5.3c3.2,2.9,6.9,3.9,11.1,2.4
		c3.3-1.1,5.5-3.6,7.1-6.5C434.5,240,435.3,236.1,435,231.9z M419.7,237.1c-0.9,0.9-2.1,1.4-3.4,1.4c0,0,0,0,0,0
		c-2.7,0-4.8-2.2-4.8-4.9c0-2.7,2.1-4.8,4.8-4.8h0c2.7,0,4.8,2.1,4.9,4.8C421.1,234.9,420.6,236.1,419.7,237.1z"/>
	<path class="st1" d="M215.6,177.2c0,0-14.7-0.1-27.4,11.9C188.2,189.1,203.5,181.6,215.6,177.2z M270.3,198
		C270.3,198,270.4,198,270.3,198c0,0-5.2-5.2-14.7-5.5c-7.6-0.2-14.5,1.5-16.9,2.1c-2,0.2-3.2,1.4-4,3.3c-4,9.7-13.4,12.8-22.3,11.4
		c-12.4-2-23.1-7.6-32.2-16.2c-3.6-3.4-3.7-4.7-0.1-8.1c9.1-8.7,19.8-14.5,32.3-16.6c9.2-1.6,17,1.8,21.7,9.6l-0.1,0
		c0,0,1.8,6.1,7.8,6.7c1.7,0.2,4.1,0.1,6.8-0.2c0,0,0,0,0,0l0,0c0,0,0,0,0,0c0,0,0,0,0,0c0,0,0,0,0,0l0.1,0
		c5.8-0.9,19.4-3.6,23.6-11.9c1.2-2.5,1.6-5.6,1.6-9.8c-0.2-9.4-4.7-16-13-20.1c-5.5-2.7-11.5-3.6-17.5-3.6c-28.5,0-57,0-85.6,0
		c-0.6,0-1.1,0.1-1.7,0.1c0,36.3,0,72.5,0,108.9c0.9-0.1,1.8-0.1,2.6-0.4c13.3-5.4,27.1-5.6,41-3.5c10.9,1.6,21.4,5.1,32.4,5.8
		c7.8,0.5,15.5,0.9,23.1-1.2c13.4-3.7,23.9-14.2,24.5-28.3C279.9,211.1,277.2,203.5,270.3,198z"/>
</g>
<rect x="-0.5" y="389.9" class="st1" width="306.5" height="235"/>
<rect x="305.5" y="389.9" class="st0" width="306.5" height="235"/>
<g>
	<g>
		<g>
			<path class="st2" d="M175.7,494.1c-3.3,0-6.7,0-10,0c0-6.3,0-12.5,0-18.9c0.5,0.1,0.9,0.1,1.3,0.2c2,0.8,3.9,1.6,5.9,2.4
				c0.2,0.1,0.3,0.1,0.5-0.1c1.3-1.9,3.3-2.7,5.5-2.9c1.5-0.2,2.9-0.1,4.4,0.4c1.4,0.4,2.5,1.3,3.3,2.4c0.3,0.4,0.3,0.4,0.6,0
				c1.3-1.7,3.1-2.6,5.2-2.8c1.7-0.2,3.3,0,4.9,0.7c1.9,1,3.1,2.6,3.6,4.7c0.2,0.8,0.2,1.6,0.3,2.4c0,3.7,0,7.3,0,11
				c0,0.2,0,0.3,0,0.5c-3.3,0-6.6,0-9.9,0c0-0.2,0-0.3,0-0.5c0-2.8,0-5.6,0-8.4c0-0.2,0-0.5-0.1-0.7c-0.2-0.8-0.7-1.2-1.5-1.2
				c-0.7,0-1.1,0.6-1.2,1.4c0,0.2,0,0.3,0,0.5c0,2.8,0,5.6,0,8.4c0,0.1,0,0.3,0,0.5c-3.3,0-6.6,0-9.9,0c0-0.2,0-0.3,0-0.5
				c0-2.8,0-5.7,0-8.5c0-0.3,0-0.5-0.1-0.8c-0.2-0.6-0.7-1-1.3-1c-0.6,0-1.1,0.4-1.2,1c-0.1,0.3-0.1,0.5-0.1,0.8c0,2.8,0,5.7,0,8.5
				C175.7,493.8,175.7,493.9,175.7,494.1z"/>
			<path class="st2" d="M140.5,475.3c3.5,0,7,0,10.5,0c0,0.2,0,0.3,0,0.5c0,2.8,0,5.6,0,8.4c0,0.3,0,0.7,0.1,1
				c0.2,0.7,0.7,1,1.5,0.9c0.6-0.1,1.1-0.6,1.1-1.2c0-0.2,0-0.4,0-0.7c0-2.8,0-5.5,0-8.3c0-0.2,0-0.3,0-0.5c3.5,0,6.9,0,10.4,0
				c0,6.2,0,12.5,0,18.8c-3.7,0-7.5,0-11.2,0c0.2-0.7,0.4-1.3,0.5-1.9c0.1-0.6,0.2-1.3,0.3-2c-0.1,0-0.1-0.1-0.2-0.1
				c-0.1,0.1-0.2,0.2-0.2,0.3c-0.5,1.5-1.4,2.7-2.8,3.4c-1,0.5-2.1,0.8-3.2,0.8c-2,0-3.7-0.5-5.1-2c-1.1-1.2-1.6-2.6-1.7-4.2
				c-0.1-0.8-0.1-1.7-0.1-2.6c0-3.4,0-6.8,0-10.1C140.5,475.6,140.5,475.5,140.5,475.3z"/>
		</g>
	</g>
	<g>
		<g>
			<path class="st2" d="M175.7,516.8c-3.3,0-6.7,0-10,0c0-6.3,0-12.5,0-18.9c0.5,0.1,0.9,0.1,1.3,0.2c2,0.8,3.9,1.6,5.9,2.4
				c0.2,0.1,0.3,0.1,0.5-0.1c1.3-1.9,3.3-2.7,5.5-2.9c1.5-0.2,2.9-0.1,4.4,0.4c1.4,0.4,2.5,1.3,3.3,2.4c0.3,0.4,0.3,0.4,0.6,0
				c1.3-1.7,3.1-2.6,5.2-2.8c1.7-0.2,3.3,0,4.9,0.7c1.9,1,3.1,2.6,3.6,4.7c0.2,0.8,0.2,1.6,0.3,2.4c0,3.7,0,7.3,0,11
				c0,0.2,0,0.3,0,0.5c-3.3,0-6.6,0-9.9,0c0-0.2,0-0.3,0-0.5c0-2.8,0-5.6,0-8.4c0-0.2,0-0.5-0.1-0.7c-0.2-0.8-0.7-1.2-1.5-1.2
				c-0.7,0-1.1,0.6-1.2,1.4c0,0.2,0,0.3,0,0.5c0,2.8,0,5.6,0,8.4c0,0.1,0,0.3,0,0.5c-3.3,0-6.6,0-9.9,0c0-0.2,0-0.3,0-0.5
				c0-2.8,0-5.7,0-8.5c0-0.3,0-0.5-0.1-0.8c-0.2-0.6-0.7-1-1.3-1c-0.6,0-1.1,0.4-1.2,1c-0.1,0.3-0.1,0.5-0.1,0.8c0,2.8,0,5.7,0,8.5
				C175.7,516.5,175.7,516.7,175.7,516.8z"/>
			<path class="st2" d="M140.5,498.1c3.5,0,7,0,10.5,0c0,0.2,0,0.3,0,0.5c0,2.8,0,5.6,0,8.4c0,0.3,0,0.7,0.1,1
				c0.2,0.7,0.7,1,1.5,0.9c0.6-0.1,1.1-0.6,1.1-1.2c0-0.2,0-0.4,0-0.7c0-2.8,0-5.5,0-8.3c0-0.2,0-0.3,0-0.5c3.5,0,6.9,0,10.4,0
				c0,6.2,0,12.5,0,18.8c-3.7,0-7.5,0-11.2,0c0.2-0.7,0.4-1.3,0.5-1.9c0.1-0.6,0.2-1.3,0.3-2c-0.1,0-0.1-0.1-0.2-0.1
				c-0.1,0.1-0.2,0.2-0.2,0.3c-0.5,1.5-1.4,2.7-2.8,3.4c-1,0.5-2.1,0.8-3.2,0.8c-2,0-3.7-0.5-5.1-2c-1.1-1.2-1.6-2.6-1.7-4.2
				c-0.1-0.8-0.1-1.7-0.1-2.6c0-3.4,0-6.8,0-10.1C140.5,498.4,140.5,498.2,140.5,498.1z"/>
		</g>
	</g>
	<path class="st2" d="M202.5,540c-3.4,0-6.7,0-10.1,0c0-0.2,0-0.3,0-0.4c0-2.9,0-5.8,0-8.7c0-0.3,0-0.5-0.1-0.8
		c-0.1-0.7-0.6-1.1-1.3-1.1c-0.7,0-1.2,0.4-1.3,1.1c-0.1,0.2-0.1,0.5-0.1,0.8c0,2.9,0,5.8,0,8.7c0,0.1,0,0.3,0,0.5
		c-0.2,0-0.3,0-0.4,0c-3.1,0-6.2,0-9.2,0c-0.4,0-0.5-0.1-0.4-0.4c0-2.9,0-5.8,0-8.7c0-0.3,0-0.7-0.1-1c-0.2-0.7-0.8-1-1.5-0.9
		c-0.6,0.1-1,0.6-1.1,1.2c0,0.2,0,0.5,0,0.7c0,2.9,0,5.7,0,8.6c0,0.3-0.1,0.4-0.4,0.4c-3.1,0-6.3,0-9.4,0c-0.1,0-0.2,0-0.4,0
		c0-6.4,0-12.7,0-19.2c0.4,0.1,0.8,0,1.2,0.2c2,0.8,4.1,1.7,6.1,2.5c0.2,0.1,0.3,0.2,0.5-0.1c1-1.4,2.4-2.3,4.1-2.7
		c2-0.5,4-0.5,6,0.1c1.4,0.4,2.5,1.3,3.3,2.5c0.3,0.4,0.3,0.4,0.6,0c1.4-1.8,3.2-2.6,5.4-2.9c1.7-0.2,3.3,0,4.9,0.8
		c2.1,1,3.2,2.8,3.7,5c0.1,0.7,0.2,1.4,0.2,2.1c0,3.8,0,7.5,0,11.3C202.5,539.7,202.5,539.8,202.5,540z"/>
	<path class="st2" d="M162.4,521c-2.3,0.9-4.6,1.8-6.9,2.7c-0.4,0.2-0.6,0.2-0.9-0.2c-1.5-2-3.6-3.1-6.2-3.2c-2.9-0.1-5.2,1-6.9,3.3
		c-1.3,1.7-1.9,3.6-2.1,5.7c-0.2,2.4,0.1,4.8,1.2,7c1,2.1,2.5,3.6,4.8,4.1c2.2,0.5,4.1,0,5.5-1.9c1-1.4,1.6-2.9,1.8-4.6
		c0-0.3,0.1-0.4,0.4-0.3c0,2.2-0.3,4.3-1.1,6.4c4,0,7.9,0,11.8,0c0-6.4,0-12.7,0-19.2C163.3,520.9,162.9,520.9,162.4,521z
		 M152,532.8L152,532.8c-1.4,0-2.6-1.1-2.6-2.6c0-1.4,1.1-2.6,2.6-2.6l0,0c0.7,0,1.3,0.3,1.8,0.8c0.5,0.5,0.7,1.1,0.7,1.8
		C154.5,531.6,153.4,532.8,152,532.8z"/>
	<path class="st2" d="M230.7,520.9c3.6,0,7.1,0,10.6,0c0,6.4,0,12.7,0,19.1c-0.2,0-0.3,0-0.4,0c-3.2,0-6.4,0-9.7,0
		c-0.4,0-0.5-0.1-0.5-0.5c0-6.1,0-12.1,0-18.2C230.7,521.2,230.7,521.1,230.7,520.9z"/>
	<path class="st2" d="M235.9,513.2c1.2,0.1,2.4,0.2,3.5,0.6c1.5,0.5,2.4,1.5,2.4,3c0,1.4-0.8,2.5-2.3,3c-1.5,0.5-3,0.6-4.5,0.5
		c-1.1-0.1-2.2-0.2-3.2-0.7c-2.2-1-2.2-3.3-1.2-4.5c0.6-0.8,1.4-1.2,2.4-1.3C233.9,513.4,234.9,513.4,235.9,513.2z"/>
	<path class="st2" d="M229.3,529.3c-0.2-2.1-0.7-4.1-1.9-5.8c-1.3-1.8-3-3-5.3-3.2c-1.8-0.1-3.5,0.5-4.9,1.7c-1,0.9-1.8,2-2.4,3.2
		c-0.1,0.1-0.2,0.2-0.3,0.4c0,0-0.1,0-0.1-0.1c0-3.3,0-6.5,0-9.8c-3.6,0-7.1,0-10.6,0c0,8.1,0,16.2,0,24.3c3.9,0,7.8,0,11.8,0
		c-0.6-1.6-1.1-3.2-1-4.9c0,0,0.1,0,0.1,0c0.1,0.2,0.2,0.3,0.3,0.5c0.5,1.2,1.3,2.3,2.2,3.2c1.9,1.7,4.1,2.3,6.6,1.4
		c1.9-0.7,3.3-2.1,4.2-3.9C229,534.1,229.5,531.8,229.3,529.3z M220.2,532.4c-0.5,0.5-1.3,0.8-2,0.8c0,0,0,0,0,0
		c-1.6,0-2.9-1.3-2.9-2.9c0-1.6,1.2-2.9,2.8-2.9h0c1.6,0,2.9,1.3,2.9,2.9C221.1,531.1,220.8,531.8,220.2,532.4z"/>
	<path class="st2" d="M99.1,496.8c0,0-8.7-0.1-16.2,7.1C82.9,503.9,92,499.4,99.1,496.8z M131.6,509.2
		C131.6,509.2,131.6,509.2,131.6,509.2c0,0-3.1-3.1-8.7-3.3c-4.5-0.1-8.6,0.9-10.1,1.3c-1.2,0.1-1.9,0.8-2.4,2
		c-2.4,5.7-8,7.6-13.2,6.8c-7.4-1.2-13.7-4.5-19.1-9.6c-2.1-2-2.2-2.8-0.1-4.8c5.4-5.2,11.7-8.6,19.1-9.9c5.5-0.9,10.1,1.1,12.9,5.7
		l-0.1,0c0,0,1.1,3.6,4.6,4c1,0.1,2.4,0.1,4-0.1c0,0,0,0,0,0l0,0c0,0,0,0,0,0c0,0,0,0,0,0c0,0,0,0,0,0l0,0c3.5-0.5,11.5-2.1,14-7.1
		c0.7-1.5,1-3.3,0.9-5.8c-0.1-5.6-2.8-9.5-7.7-11.9c-3.3-1.6-6.8-2.1-10.4-2.1c-16.9,0-33.8,0-50.8,0c-0.3,0-0.7,0-1,0
		c0,21.5,0,43,0,64.6c0.6-0.1,1.1,0,1.5-0.2c7.9-3.2,16.1-3.3,24.3-2.1c6.4,1,12.7,3,19.2,3.4c4.6,0.3,9.2,0.5,13.7-0.7
		c7.9-2.2,14.2-8.4,14.5-16.8C137.3,517,135.7,512.5,131.6,509.2z"/>
</g>
<g>
	<g>
		<g>
			<path class="st1" d="M481.6,494.1c-3.3,0-6.7,0-10,0c0-6.3,0-12.5,0-18.9c0.5,0.1,0.9,0.1,1.3,0.2c2,0.8,3.9,1.6,5.9,2.4
				c0.2,0.1,0.3,0.1,0.5-0.1c1.3-1.9,3.3-2.7,5.5-2.9c1.5-0.2,2.9-0.1,4.4,0.4c1.4,0.4,2.5,1.3,3.3,2.4c0.3,0.4,0.3,0.4,0.6,0
				c1.3-1.7,3.1-2.6,5.2-2.8c1.7-0.2,3.3,0,4.9,0.7c1.9,1,3.1,2.6,3.6,4.7c0.2,0.8,0.2,1.6,0.3,2.4c0,3.7,0,7.3,0,11
				c0,0.2,0,0.3,0,0.5c-3.3,0-6.6,0-9.9,0c0-0.2,0-0.3,0-0.5c0-2.8,0-5.6,0-8.4c0-0.2,0-0.5-0.1-0.7c-0.2-0.8-0.7-1.2-1.5-1.2
				c-0.7,0-1.1,0.6-1.2,1.4c0,0.2,0,0.3,0,0.5c0,2.8,0,5.6,0,8.4c0,0.1,0,0.3,0,0.5c-3.3,0-6.6,0-9.9,0c0-0.2,0-0.3,0-0.5
				c0-2.8,0-5.7,0-8.5c0-0.3,0-0.5-0.1-0.8c-0.2-0.6-0.7-1-1.3-1c-0.6,0-1.1,0.4-1.2,1c-0.1,0.3-0.1,0.5-0.1,0.8c0,2.8,0,5.7,0,8.5
				C481.6,493.8,481.6,493.9,481.6,494.1z"/>
			<path class="st1" d="M446.5,475.3c3.5,0,7,0,10.5,0c0,0.2,0,0.3,0,0.5c0,2.8,0,5.6,0,8.4c0,0.3,0,0.7,0.1,1
				c0.2,0.7,0.7,1,1.5,0.9c0.6-0.1,1.1-0.6,1.1-1.2c0-0.2,0-0.4,0-0.7c0-2.8,0-5.5,0-8.3c0-0.2,0-0.3,0-0.5c3.5,0,6.9,0,10.4,0
				c0,6.2,0,12.5,0,18.8c-3.7,0-7.5,0-11.2,0c0.2-0.7,0.4-1.3,0.5-1.9c0.1-0.6,0.2-1.3,0.3-2c-0.1,0-0.1-0.1-0.2-0.1
				c-0.1,0.1-0.2,0.2-0.2,0.3c-0.5,1.5-1.4,2.7-2.8,3.4c-1,0.5-2.1,0.8-3.2,0.8c-2,0-3.7-0.5-5.1-2c-1.1-1.2-1.6-2.6-1.7-4.2
				c-0.1-0.8-0.1-1.7-0.1-2.6c0-3.4,0-6.8,0-10.1C446.5,475.6,446.5,475.5,446.5,475.3z"/>
		</g>
	</g>
	<g>
		<g>
			<path class="st1" d="M481.6,516.8c-3.3,0-6.7,0-10,0c0-6.3,0-12.5,0-18.9c0.5,0.1,0.9,0.1,1.3,0.2c2,0.8,3.9,1.6,5.9,2.4
				c0.2,0.1,0.3,0.1,0.5-0.1c1.3-1.9,3.3-2.7,5.5-2.9c1.5-0.2,2.9-0.1,4.4,0.4c1.4,0.4,2.5,1.3,3.3,2.4c0.3,0.4,0.3,0.4,0.6,0
				c1.3-1.7,3.1-2.6,5.2-2.8c1.7-0.2,3.3,0,4.9,0.7c1.9,1,3.1,2.6,3.6,4.7c0.2,0.8,0.2,1.6,0.3,2.4c0,3.7,0,7.3,0,11
				c0,0.2,0,0.3,0,0.5c-3.3,0-6.6,0-9.9,0c0-0.2,0-0.3,0-0.5c0-2.8,0-5.6,0-8.4c0-0.2,0-0.5-0.1-0.7c-0.2-0.8-0.7-1.2-1.5-1.2
				c-0.7,0-1.1,0.6-1.2,1.4c0,0.2,0,0.3,0,0.5c0,2.8,0,5.6,0,8.4c0,0.1,0,0.3,0,0.5c-3.3,0-6.6,0-9.9,0c0-0.2,0-0.3,0-0.5
				c0-2.8,0-5.7,0-8.5c0-0.3,0-0.5-0.1-0.8c-0.2-0.6-0.7-1-1.3-1c-0.6,0-1.1,0.4-1.2,1c-0.1,0.3-0.1,0.5-0.1,0.8c0,2.8,0,5.7,0,8.5
				C481.6,516.5,481.6,516.7,481.6,516.8z"/>
			<path class="st1" d="M446.5,498.1c3.5,0,7,0,10.5,0c0,0.2,0,0.3,0,0.5c0,2.8,0,5.6,0,8.4c0,0.3,0,0.7,0.1,1
				c0.2,0.7,0.7,1,1.5,0.9c0.6-0.1,1.1-0.6,1.1-1.2c0-0.2,0-0.4,0-0.7c0-2.8,0-5.5,0-8.3c0-0.2,0-0.3,0-0.5c3.5,0,6.9,0,10.4,0
				c0,6.2,0,12.5,0,18.8c-3.7,0-7.5,0-11.2,0c0.2-0.7,0.4-1.3,0.5-1.9c0.1-0.6,0.2-1.3,0.3-2c-0.1,0-0.1-0.1-0.2-0.1
				c-0.1,0.1-0.2,0.2-0.2,0.3c-0.5,1.5-1.4,2.7-2.8,3.4c-1,0.5-2.1,0.8-3.2,0.8c-2,0-3.7-0.5-5.1-2c-1.1-1.2-1.6-2.6-1.7-4.2
				c-0.1-0.8-0.1-1.7-0.1-2.6c0-3.4,0-6.8,0-10.1C446.5,498.4,446.5,498.2,446.5,498.1z"/>
		</g>
	</g>
	<path class="st1" d="M508.4,540c-3.4,0-6.7,0-10.1,0c0-0.2,0-0.3,0-0.4c0-2.9,0-5.8,0-8.7c0-0.3,0-0.5-0.1-0.8
		c-0.1-0.7-0.6-1.1-1.3-1.1c-0.7,0-1.2,0.4-1.3,1.1c-0.1,0.2-0.1,0.5-0.1,0.8c0,2.9,0,5.8,0,8.7c0,0.1,0,0.3,0,0.5
		c-0.2,0-0.3,0-0.4,0c-3.1,0-6.2,0-9.2,0c-0.4,0-0.5-0.1-0.4-0.4c0-2.9,0-5.8,0-8.7c0-0.3,0-0.7-0.1-1c-0.2-0.7-0.8-1-1.5-0.9
		c-0.6,0.1-1,0.6-1.1,1.2c0,0.2,0,0.5,0,0.7c0,2.9,0,5.7,0,8.6c0,0.3-0.1,0.4-0.4,0.4c-3.1,0-6.3,0-9.4,0c-0.1,0-0.2,0-0.4,0
		c0-6.4,0-12.7,0-19.2c0.4,0.1,0.8,0,1.2,0.2c2,0.8,4.1,1.7,6.1,2.5c0.2,0.1,0.3,0.2,0.5-0.1c1-1.4,2.4-2.3,4.1-2.7
		c2-0.5,4-0.5,6,0.1c1.4,0.4,2.5,1.3,3.3,2.5c0.3,0.4,0.3,0.4,0.6,0c1.4-1.8,3.2-2.6,5.4-2.9c1.7-0.2,3.3,0,4.9,0.8
		c2.1,1,3.2,2.8,3.7,5c0.1,0.7,0.2,1.4,0.2,2.1c0,3.8,0,7.5,0,11.3C508.4,539.7,508.4,539.8,508.4,540z"/>
	<path class="st1" d="M468.4,521c-2.3,0.9-4.6,1.8-6.9,2.7c-0.4,0.2-0.6,0.2-0.9-0.2c-1.5-2-3.6-3.1-6.2-3.2c-2.9-0.1-5.2,1-6.9,3.3
		c-1.3,1.7-1.9,3.6-2.1,5.7c-0.2,2.4,0.1,4.8,1.2,7c1,2.1,2.5,3.6,4.8,4.1c2.2,0.5,4.1,0,5.5-1.9c1-1.4,1.6-2.9,1.8-4.6
		c0-0.3,0.1-0.4,0.4-0.3c0,2.2-0.3,4.3-1.1,6.4c4,0,7.9,0,11.8,0c0-6.4,0-12.7,0-19.2C469.3,520.9,468.8,520.9,468.4,521z
		 M458,532.8L458,532.8c-1.4,0-2.6-1.1-2.6-2.6c0-1.4,1.1-2.6,2.6-2.6l0,0c0.7,0,1.3,0.3,1.8,0.8c0.5,0.5,0.7,1.1,0.7,1.8
		C460.5,531.6,459.3,532.8,458,532.8z"/>
	<path class="st1" d="M536.6,520.9c3.6,0,7.1,0,10.6,0c0,6.4,0,12.7,0,19.1c-0.2,0-0.3,0-0.4,0c-3.2,0-6.4,0-9.7,0
		c-0.4,0-0.5-0.1-0.5-0.5c0-6.1,0-12.1,0-18.2C536.6,521.2,536.6,521.1,536.6,520.9z"/>
	<path class="st1" d="M541.8,513.2c1.2,0.1,2.4,0.2,3.5,0.6c1.5,0.5,2.4,1.5,2.4,3c0,1.4-0.8,2.5-2.3,3c-1.5,0.5-3,0.6-4.5,0.5
		c-1.1-0.1-2.2-0.2-3.2-0.7c-2.2-1-2.2-3.3-1.2-4.5c0.6-0.8,1.4-1.2,2.4-1.3C539.8,513.4,540.8,513.4,541.8,513.2z"/>
	<path class="st1" d="M535.3,529.3c-0.2-2.1-0.7-4.1-1.9-5.8c-1.3-1.8-3-3-5.3-3.2c-1.8-0.1-3.5,0.5-4.9,1.7c-1,0.9-1.8,2-2.4,3.2
		c-0.1,0.1-0.2,0.2-0.3,0.4c0,0-0.1,0-0.1-0.1c0-3.3,0-6.5,0-9.8c-3.6,0-7.1,0-10.6,0c0,8.1,0,16.2,0,24.3c3.9,0,7.8,0,11.8,0
		c-0.6-1.6-1.1-3.2-1-4.9c0,0,0.1,0,0.1,0c0.1,0.2,0.2,0.3,0.3,0.5c0.5,1.2,1.3,2.3,2.2,3.2c1.9,1.7,4.1,2.3,6.6,1.4
		c1.9-0.7,3.3-2.1,4.2-3.9C535,534.1,535.4,531.8,535.3,529.3z M526.2,532.4c-0.5,0.5-1.3,0.8-2,0.8c0,0,0,0,0,0
		c-1.6,0-2.9-1.3-2.9-2.9c0-1.6,1.2-2.9,2.8-2.9h0c1.6,0,2.9,1.3,2.9,2.9C527,531.1,526.7,531.8,526.2,532.4z"/>
	<path class="st1" d="M405.1,496.8c0,0-8.7-0.1-16.2,7.1C388.8,503.9,397.9,499.4,405.1,496.8z M437.6,509.2
		C437.6,509.2,437.6,509.2,437.6,509.2c0,0-3.1-3.1-8.7-3.3c-4.5-0.1-8.6,0.9-10.1,1.3c-1.2,0.1-1.9,0.8-2.4,2
		c-2.4,5.7-8,7.6-13.2,6.8c-7.4-1.2-13.7-4.5-19.1-9.6c-2.1-2-2.2-2.8-0.1-4.8c5.4-5.2,11.7-8.6,19.1-9.9c5.5-0.9,10.1,1.1,12.9,5.7
		l-0.1,0c0,0,1.1,3.6,4.6,4c1,0.1,2.4,0.1,4-0.1c0,0,0,0,0,0l0,0c0,0,0,0,0,0c0,0,0,0,0,0c0,0,0,0,0,0l0,0c3.5-0.5,11.5-2.1,14-7.1
		c0.7-1.5,1-3.3,0.9-5.8c-0.1-5.6-2.8-9.5-7.7-11.9c-3.3-1.6-6.8-2.1-10.4-2.1c-16.9,0-33.8,0-50.8,0c-0.3,0-0.7,0-1,0
		c0,21.5,0,43,0,64.6c0.6-0.1,1.1,0,1.5-0.2c7.9-3.2,16.1-3.3,24.3-2.1c6.4,1,12.7,3,19.2,3.4c4.6,0.3,9.2,0.5,13.7-0.7
		c7.9-2.2,14.2-8.4,14.5-16.8C443.3,517,441.6,512.5,437.6,509.2z"/>
</g>
</svg>
