<?xml version="1.0" encoding="utf-8"?>
<!-- Generator: Adobe Illustrator 27.9.1, SVG Export Plug-In . SVG Version: 6.00 Build 0)  -->
<svg version="1.1" id="Layer_1" xmlns="http://www.w3.org/2000/svg" xmlns:xlink="http://www.w3.org/1999/xlink" x="0px" y="0px"
	 viewBox="0 0 612 622.5" style="enable-background:new 0 0 612 622.5;" xml:space="preserve">
<style type="text/css">
	.st0{fill:#171517;}
	.st1{fill:#D461A3;}
	.st2{fill:#FFFFFF;}
	.st3{fill:#F7F5F5;}
</style>
<g>
	<g>
		<g>
			<g>
				<path class="st1" d="M253.4,176.8c-6.4,0-12.7,0-19,0c0-11.9,0-23.8,0-35.9c0.9,0.2,1.8,0.2,2.5,0.5c3.8,1.5,7.5,3,11.2,4.6
					c0.4,0.2,0.7,0.2,0.9-0.2c2.5-3.6,6.2-5.1,10.4-5.6c2.8-0.3,5.6-0.1,8.3,0.7c2.6,0.8,4.7,2.4,6.3,4.6c0.5,0.7,0.6,0.7,1.1,0
					c2.5-3.3,5.9-4.9,9.9-5.4c3.2-0.4,6.3-0.1,9.3,1.4c3.7,1.8,6,4.9,6.9,8.9c0.3,1.5,0.5,3,0.5,4.5c0,7,0,14,0,21
					c0,0.3,0,0.6,0,0.9c-6.3,0-12.6,0-18.9,0c0-0.3,0-0.6,0-0.9c0-5.3,0-10.6,0-15.9c0-0.5,0-1-0.1-1.4c-0.3-1.6-1.3-2.3-2.9-2.2
					c-1.3,0.1-2.2,1.1-2.2,2.6c0,0.3,0,0.6,0,0.9c0,5.4,0,10.7,0,16.1c0,0.3,0,0.5,0,0.9c-6.3,0-12.6,0-18.9,0c0-0.3,0-0.6,0-0.9
					c0-5.4,0-10.8,0-16.2c0-0.5,0-1-0.2-1.5c-0.3-1.2-1.2-1.9-2.5-1.9c-1.2,0-2.1,0.7-2.4,1.9c-0.1,0.5-0.2,1-0.2,1.6
					c0,5.4,0,10.8,0,16.1C253.4,176.2,253.4,176.5,253.4,176.8z"/>
				<path class="st1" d="M186.4,141c6.7,0,13.3,0,20,0c0,0.3,0,0.6,0,0.9c0,5.3,0,10.7,0,16c0,0.6,0.1,1.3,0.3,1.8
					c0.4,1.3,1.4,1.9,2.8,1.7c1.2-0.2,2-1.1,2.2-2.3c0-0.4,0-0.9,0-1.3c0-5.3,0-10.6,0-15.8c0-0.3,0-0.6,0-0.9c6.6,0,13.2,0,19.9,0
					c0,11.9,0,23.8,0,35.7c-7.1,0-14.2,0-21.4,0c0.3-1.3,0.7-2.5,1-3.7c0.3-1.2,0.4-2.5,0.6-3.7c-0.1-0.1-0.2-0.1-0.3-0.2
					c-0.2,0.2-0.4,0.4-0.4,0.6c-1,2.8-2.6,5.1-5.3,6.5c-1.9,1-4,1.5-6.1,1.5c-3.7,0-7.1-0.9-9.7-3.8c-2.1-2.2-3-5-3.3-8
					c-0.1-1.6-0.2-3.2-0.2-4.9c0-6.4,0-12.9,0-19.3C186.4,141.7,186.4,141.4,186.4,141z"/>
			</g>
		</g>
		<path class="st1" d="M179.2,154.9c-2.4-1.4-5-2.1-7.7-2.3c-1-0.1-2.1-0.1-3.2-0.2c0-0.3,0-0.5,0-0.8c0.6,0,1.3,0,1.9,0
			c2.3-0.1,4.5-0.6,6.5-1.7c3.6-1.9,5.4-4.9,5.3-8.9c-0.1-4-2-6.8-5.5-8.6c-2.3-1.2-4.9-1.5-7.4-1.5c-12.1,0-24.2,0-36.4,0
			c-0.2,0-0.5,0-0.7,0c0,15.4,0,30.8,0,46.3c0.4-0.1,0.8,0,1.1-0.2c5.7-2.3,11.5-2.4,17.4-1.5c4.6,0.7,9.1,2.2,13.8,2.4
			c3.3,0.2,6.6,0.4,9.8-0.5c5.7-1.6,10.1-6,10.4-12C184.7,160.8,183.2,157.3,179.2,154.9z M153.5,142.1l1.7,0.1c0.3,0,0.6,0,1,0
			c0.8,0,1.6,0,2.4,0.2c1.8,0.3,3,1.7,3.1,3.5c0,1.9-1.2,3.4-2.9,3.7c-0.9,0.2-1.7,0.2-2.6,0.2c-0.3,0-0.7,0-1,0l-1.7,0.1V142.1z
			 M159.2,162.3c-0.3,0-0.5,0.1-0.8,0.1c-1.6,0-2.9-0.6-3.9-1.2c-0.6-0.4-1.1-1.1-1.1-1.9c0-0.9,0-1.7,0-2.6c0-0.3,0-0.6,0-0.9v-1.7
			h1.7c0.4,0,0.8,0,1.2,0c0.4,0,0.8,0,1.2,0c0.6,0,1.1,0,1.6,0c2.2,0.1,3.8,1.8,3.8,4C162.9,160.4,161.4,162,159.2,162.3z"/>
		<path class="st1" d="M352.6,154.9c-2.4-1.4-5-2.1-7.7-2.3c-1-0.1-2.1-0.1-3.2-0.2c0-0.3,0-0.5,0-0.8c0.6,0,1.3,0,1.9,0
			c2.3-0.1,4.5-0.6,6.5-1.7c3.6-1.9,5.4-4.9,5.3-8.9c-0.1-4-2-6.8-5.5-8.6c-2.3-1.2-4.9-1.5-7.4-1.5c-12.1,0-24.2,0-36.4,0
			c-0.2,0-0.5,0-0.7,0c0,15.4,0,30.8,0,46.3c0.4-0.1,0.8,0,1.1-0.2c5.7-2.3,11.5-2.4,17.4-1.5c4.6,0.7,9.1,2.2,13.8,2.4
			c3.3,0.2,6.6,0.4,9.8-0.5c5.7-1.6,10.1-6,10.4-12C358.1,160.8,356.5,157.3,352.6,154.9z M326.8,142.1l1.7,0.1c0.3,0,0.6,0,1,0
			c0.8,0,1.6,0,2.4,0.2c1.8,0.3,3,1.7,3.1,3.5c0,1.9-1.2,3.4-2.9,3.7c-0.9,0.2-1.7,0.2-2.6,0.2c-0.3,0-0.7,0-1,0l-1.7,0.1V142.1z
			 M332.5,162.3c-0.3,0-0.5,0.1-0.8,0.1c-1.6,0-2.9-0.6-3.9-1.2c-0.6-0.4-1.1-1.1-1.1-1.9c0-0.9,0-1.7,0-2.6c0-0.3,0-0.6,0-0.9v-1.7
			h1.7c0.4,0,0.8,0,1.2,0c0.4,0,0.8,0,1.2,0c0.6,0,1.1,0,1.6,0c2.2,0.1,3.8,1.8,3.8,4C336.2,160.4,334.7,162,332.5,162.3z"/>
		<path class="st1" d="M428.6,176.8c-6.4,0-12.7,0-19,0c0-11.9,0-23.8,0-35.9c0.9,0.2,1.8,0.2,2.5,0.5c3.8,1.5,7.5,3,11.2,4.6
			c0.4,0.2,0.7,0.2,0.9-0.2c2.5-3.6,6.2-5.1,10.4-5.6c2.8-0.3,5.6-0.1,8.3,0.7c2.6,0.8,4.7,2.4,6.3,4.6c0.5,0.7,0.6,0.7,1.1,0
			c2.5-3.3,5.9-4.9,9.9-5.4c3.2-0.4,6.3-0.1,9.3,1.4c3.7,1.8,6,4.9,6.9,8.9c0.3,1.5,0.5,3,0.5,4.5c0,7,0,14,0,21c0,0.3,0,0.6,0,0.9
			c-6.3,0-12.6,0-18.9,0c0-0.3,0-0.6,0-0.9c0-5.3,0-10.6,0-15.9c0-0.5,0-1-0.1-1.4c-0.3-1.6-1.3-2.3-2.9-2.2
			c-1.3,0.1-2.2,1.1-2.2,2.6c0,0.3,0,0.6,0,0.9c0,5.4,0,10.7,0,16.1c0,0.3,0,0.5,0,0.9c-6.3,0-12.6,0-18.9,0c0-0.3,0-0.6,0-0.9
			c0-5.4,0-10.8,0-16.2c0-0.5,0-1-0.2-1.5c-0.3-1.2-1.2-1.9-2.5-1.9c-1.2,0-2.1,0.7-2.4,1.9c-0.1,0.5-0.2,1-0.2,1.6
			c0,5.4,0,10.8,0,16.1C428.6,176.2,428.6,176.5,428.6,176.8z"/>
		<path class="st1" d="M361.6,141c6.7,0,13.3,0,20,0c0,0.3,0,0.6,0,0.9c0,5.3,0,10.7,0,16c0,0.6,0.1,1.3,0.3,1.8
			c0.4,1.3,1.4,1.9,2.8,1.7c1.2-0.2,2-1.1,2.2-2.3c0-0.4,0-0.9,0-1.3c0-5.3,0-10.6,0-15.8c0-0.3,0-0.6,0-0.9c6.6,0,13.2,0,19.9,0
			c0,11.9,0,23.8,0,35.7c-7.1,0-14.2,0-21.4,0c0.3-1.3,0.7-2.5,1-3.7c0.3-1.2,0.4-2.5,0.6-3.7c-0.1-0.1-0.2-0.1-0.3-0.2
			c-0.2,0.2-0.4,0.4-0.4,0.6c-1,2.8-2.6,5.1-5.3,6.5c-1.9,1-4,1.5-6.1,1.5c-3.7,0-7.1-0.9-9.7-3.8c-2.1-2.2-3-5-3.3-8
			c-0.1-1.6-0.2-3.2-0.2-4.9c0-6.4,0-12.9,0-19.3C361.6,141.7,361.6,141.4,361.6,141z"/>
		<path class="st1" d="M376.4,256.1c-8.9,0-17.7,0-26.7,0c0-0.4,0-0.8,0-1.2c0-7.6,0-15.2,0-22.8c0-0.7-0.1-1.3-0.2-2
			c-0.4-1.8-1.6-2.8-3.4-2.8c-1.9,0-3.2,1-3.6,2.8c-0.1,0.6-0.2,1.3-0.2,2c0,7.6,0,15.2,0,22.8c0,0.4,0,0.8,0,1.3
			c-0.4,0-0.8,0-1.1,0c-8.1,0-16.2,0-24.3,0c-0.9,0-1.2-0.2-1.2-1.2c0-7.6,0-15.2,0-22.8c0-0.9-0.1-1.8-0.3-2.6
			c-0.6-1.8-2.1-2.5-4-2.3c-1.5,0.2-2.7,1.5-2.9,3.2c-0.1,0.6-0.1,1.3-0.1,1.9c0,7.5,0,15.1,0,22.6c0,0.8-0.1,1.2-1.1,1.2
			c-8.2,0-16.5,0-24.7,0c-0.3,0-0.6,0-1-0.1c0-16.8,0-33.5,0-50.5c1.1,0.1,2.2,0.1,3.1,0.4c5.4,2.1,10.7,4.4,16.1,6.6
			c0.5,0.2,0.9,0.5,1.3-0.2c2.6-3.8,6.3-6.1,10.7-7.2c5.3-1.4,10.5-1.3,15.7,0.2c3.7,1.1,6.6,3.4,8.8,6.5c0.7,1,0.8,1,1.6,0
			c3.6-4.7,8.5-7,14.3-7.6c4.5-0.5,8.8,0,12.8,2c5.4,2.7,8.6,7.3,9.8,13.2c0.4,1.8,0.5,3.7,0.5,5.6c0,9.9,0,19.8,0,29.7
			C376.4,255.3,376.4,255.7,376.4,256.1z"/>
		<path class="st1" d="M270.9,206.2c-6.1,2.3-12.1,4.6-18.2,7c-1,0.4-1.6,0.4-2.3-0.6c-4.1-5.3-9.6-8.1-16.3-8.3
			c-7.5-0.3-13.6,2.7-18.2,8.7c-3.4,4.5-5.1,9.6-5.5,15.1c-0.5,6.4,0.2,12.6,3,18.4c2.6,5.5,6.6,9.4,12.8,10.7
			c5.8,1.2,10.8-0.1,14.5-5.1c2.7-3.6,4.1-7.7,4.6-12.2c0.1-0.7,0.2-1.1,1.1-0.8c0,5.8-0.9,11.4-2.9,16.9c10.4,0,20.7,0,31,0
			c0-16.8,0-33.5,0-50.6C273.2,205.7,272,205.8,270.9,206.2z M243.4,237.3L243.4,237.3c-3.7,0-6.7-3-6.8-6.7c0-3.8,2.9-6.8,6.7-6.9
			l0.1,0c1.8,0,3.5,0.7,4.7,2c1.2,1.3,1.9,3,1.9,4.8C250,234.2,247.1,237.2,243.4,237.3z"/>
		<path class="st1" d="M450.7,205.8c9.4,0,18.7,0,28,0c0,16.8,0,33.5,0,50.4c-0.4,0-0.8,0-1.2,0c-8.5,0-17,0-25.5,0
			c-1,0-1.4-0.2-1.4-1.3c0-16,0-31.9,0-47.9C450.7,206.6,450.7,206.3,450.7,205.8z"/>
		<path class="st1" d="M464.4,185.6c3.2,0.3,6.3,0.5,9.3,1.5c4,1.3,6.2,4,6.3,7.8c0,3.6-2.2,6.5-6.1,7.8c-3.8,1.3-7.8,1.5-11.8,1.3
			c-2.9-0.2-5.8-0.6-8.5-1.8c-5.8-2.7-5.7-8.8-3.3-11.9c1.6-2,3.8-3,6.2-3.5C459.1,186.2,461.8,186,464.4,185.6z"/>
		<path class="st1" d="M447.1,228.1c-0.4-5.5-1.9-10.7-5.1-15.3c-3.4-4.9-7.9-8-14-8.4c-4.9-0.4-9.1,1.2-12.8,4.4
			c-2.7,2.3-4.7,5.2-6.2,8.4c-0.2,0.4-0.5,0.6-0.8,1c-0.1-0.1-0.2-0.1-0.3-0.2c0-8.6,0-17.2,0-25.9c-9.4,0-18.7,0-28,0
			c0,21.4,0,42.7,0,64c10.3,0,20.6,0,31,0c-1.6-4.2-2.9-8.3-2.8-12.8c0.1,0,0.2-0.1,0.3-0.1c0.2,0.4,0.5,0.9,0.7,1.3
			c1.4,3.2,3.3,6,5.9,8.3c5,4.6,10.8,6.1,17.3,3.8c5.1-1.8,8.6-5.6,11.1-10.2C446.4,240.7,447.5,234.5,447.1,228.1z M423.2,236
			c-1.4,1.4-3.3,2.2-5.4,2.2c0,0,0,0,0,0c-4.2,0-7.5-3.4-7.5-7.7c0-4.2,3.3-7.6,7.5-7.6h0c4.2,0,7.6,3.3,7.6,7.6
			C425.4,232.7,424.6,234.6,423.2,236z"/>
	</g>
	<path class="st1" d="M170,214.3c0,0-8.7-0.1-16.2,7.1C153.8,221.3,162.8,216.9,170,214.3z M202.3,226.6
		C202.3,226.6,202.3,226.6,202.3,226.6c0,0-3.1-3.1-8.7-3.2c-4.5-0.1-8.6,0.9-10,1.3c-1.2,0.1-1.9,0.8-2.4,2
		c-2.4,5.7-7.9,7.6-13.2,6.7c-7.3-1.2-13.6-4.5-19-9.6c-2.1-2-2.2-2.8-0.1-4.8c5.4-5.1,11.7-8.6,19.1-9.8c5.5-0.9,10,1.1,12.8,5.7
		l-0.1,0c0,0,1.1,3.6,4.6,3.9c1,0.1,2.4,0.1,4-0.1c0,0,0,0,0,0l0,0c0,0,0,0,0,0c0,0,0,0,0,0c0,0,0,0,0,0l0,0
		c3.5-0.5,11.5-2.1,14-7.1c0.7-1.5,1-3.3,0.9-5.8c-0.1-5.5-2.8-9.5-7.7-11.9c-3.3-1.6-6.8-2.1-10.4-2.1c-16.9,0-33.7,0-50.6,0
		c-0.3,0-0.7,0-1,0c0,21.5,0,42.8,0,64.3c0.6-0.1,1.1,0,1.5-0.2c7.9-3.2,16-3.3,24.2-2.1c6.4,1,12.6,3,19.2,3.4
		c4.6,0.3,9.2,0.5,13.7-0.7c7.9-2.2,14.1-8.4,14.5-16.7C208,234.3,206.4,229.9,202.3,226.6z"/>
</g>
<rect x="-0.5" y="389.9" class="st1" width="306.5" height="235"/>
<rect x="305.5" y="389.9" class="st0" width="306.5" height="235"/>
<g>
	<path class="st3" d="M140.4,488.6c0,0.2,0.1,0.5,0.1,0.7c0,2.8,0,5.6,0,8.4c0,0.2,0,0.3,0,0.5c3.3,0,6.7,0,10,0c0-0.2,0-0.3,0-0.5
		c0-3.7,0-7.4,0-11.1c0-0.8-0.1-1.6-0.3-2.4c-0.5-2.1-1.7-3.7-3.6-4.7c-1.5-0.8-3.2-0.9-4.9-0.7c-2.1,0.3-3.9,1.1-5.2,2.8
		c-0.3,0.4-0.3,0.4-0.6,0c-0.8-1.2-1.9-2-3.3-2.4c-1.4-0.4-2.9-0.6-4.4-0.4c-2.2,0.3-4.2,1.1-5.5,3c-0.2,0.2-0.3,0.2-0.5,0.1
		c-2-0.8-3.9-1.6-5.9-2.4c-0.4-0.2-0.9-0.2-1.3-0.2c0,6.4,0,12.7,0,19c3.4,0,6.7,0,10,0c0-0.2,0-0.3,0-0.5c0-2.8,0-5.7,0-8.5
		c0-0.3,0-0.6,0.1-0.8c0.1-0.6,0.6-1,1.2-1c0.7,0,1.2,0.3,1.3,1c0.1,0.3,0.1,0.5,0.1,0.8c0,2.9,0,5.7,0,8.6c0,0.2,0,0.3,0,0.5
		c3.4,0,6.7,0,10,0c0-0.2,0-0.3,0-0.5c0-2.8,0-5.7,0-8.5c0-0.2,0-0.3,0-0.5c0-0.8,0.5-1.3,1.2-1.4
		C139.8,487.3,140.3,487.7,140.4,488.6z"/>
	<path class="st3" d="M102.2,498.2c3.8,0,7.5,0,11.3,0c0-6.3,0-12.6,0-18.9c-3.5,0-7,0-10.5,0c0,0.2,0,0.3,0,0.5c0,2.8,0,5.6,0,8.4
		c0,0.2,0,0.4,0,0.7c-0.1,0.7-0.5,1.1-1.1,1.2c-0.7,0.1-1.3-0.2-1.5-0.9c-0.1-0.3-0.1-0.6-0.1-1c0-2.8,0-5.6,0-8.4
		c0-0.2,0-0.3,0-0.5c-3.5,0-7,0-10.6,0c0,0.2,0,0.3,0,0.5c0,3.4,0,6.8,0,10.2c0,0.9,0,1.7,0.1,2.6c0.1,1.6,0.6,3,1.7,4.2
		c1.4,1.5,3.2,2,5.1,2c1.1,0,2.2-0.3,3.2-0.8c1.4-0.7,2.3-2,2.8-3.4c0-0.1,0.2-0.2,0.2-0.3c0.1,0,0.1,0.1,0.2,0.1
		c-0.1,0.7-0.2,1.3-0.3,2C102.5,496.9,102.4,497.5,102.2,498.2z"/>
	<path class="st3" d="M70.7,497.5c2.4,0.4,4.8,1.1,7.3,1.3c1.7,0.1,3.5,0.2,5.2-0.3c3-0.8,5.4-3.2,5.5-6.4c0.1-2.4-0.7-4.3-2.8-5.5
		c-1.2-0.8-2.6-1.1-4.1-1.2c-0.6-0.1-1.1-0.1-1.7-0.1c0-0.1,0-0.2,0-0.4c0.3,0,0.7,0,1,0c1.2-0.1,2.4-0.3,3.4-0.9
		c1.9-1,2.8-2.6,2.8-4.7c0-2.1-1.1-3.6-2.9-4.5c-1.2-0.6-2.6-0.8-3.9-0.8c-6.4,0-12.8,0-19.2,0c-0.1,0-0.3,0-0.4,0
		c0,8.1,0,16.3,0,24.4c0.2,0,0.4,0,0.6-0.1C64.5,497.1,67.6,497,70.7,497.5z M72.3,479.9l0.9,0c0.2,0,0.3,0,0.5,0
		c0.4,0,0.8,0,1.3,0.1c1,0.1,1.6,0.9,1.6,1.9c0,1-0.6,1.8-1.5,1.9c-0.5,0.1-0.9,0.1-1.4,0.1c-0.2,0-0.4,0-0.5,0l-0.9,0V479.9z
		 M72.2,487.1v-0.9h0.9c0.2,0,0.4,0,0.6,0c0.2,0,0.4,0,0.6,0c0.3,0,0.6,0,0.8,0c1.2,0.1,2,1,2,2.1c0,1.1-0.8,2-1.9,2.2
		c-0.1,0-0.3,0-0.4,0c-0.8,0-1.5-0.3-2-0.6c-0.3-0.2-0.6-0.6-0.6-1c0-0.5,0-0.9,0-1.4C72.2,487.5,72.2,487.3,72.2,487.1z"/>
	<path class="st3" d="M162.2,497.5c2.4,0.4,4.8,1.1,7.3,1.3c1.7,0.1,3.5,0.2,5.2-0.3c3-0.8,5.4-3.2,5.5-6.4c0.1-2.4-0.7-4.3-2.8-5.5
		c-1.2-0.8-2.6-1.1-4.1-1.2c-0.6-0.1-1.1-0.1-1.7-0.1c0-0.1,0-0.2,0-0.4c0.3,0,0.7,0,1,0c1.2-0.1,2.4-0.3,3.4-0.9
		c1.9-1,2.8-2.6,2.8-4.7c0-2.1-1.1-3.6-2.9-4.5c-1.2-0.6-2.6-0.8-3.9-0.8c-6.4,0-12.8,0-19.2,0c-0.1,0-0.3,0-0.4,0
		c0,8.1,0,16.3,0,24.4c0.2,0,0.4,0,0.6-0.1C156,497.1,159.1,497,162.2,497.5z M163.7,479.9l0.9,0c0.2,0,0.3,0,0.5,0
		c0.4,0,0.8,0,1.3,0.1c1,0.1,1.6,0.9,1.6,1.9c0,1-0.6,1.8-1.5,1.9c-0.5,0.1-0.9,0.1-1.4,0.1c-0.2,0-0.4,0-0.5,0l-0.9,0V479.9z
		 M163.7,487.1v-0.9h0.9c0.2,0,0.4,0,0.6,0c0.2,0,0.4,0,0.6,0c0.3,0,0.6,0,0.8,0c1.2,0.1,2,1,2,2.1c0,1.1-0.8,2-1.9,2.2
		c-0.1,0-0.3,0-0.4,0c-0.8,0-1.5-0.3-2-0.6c-0.3-0.2-0.6-0.6-0.6-1c0-0.5,0-0.9,0-1.4C163.7,487.5,163.7,487.3,163.7,487.1z"/>
	<path class="st3" d="M217.5,497.7c0-2.8,0-5.7,0-8.5c0-0.3,0-0.6,0.1-0.8c0.1-0.6,0.6-1,1.2-1c0.7,0,1.2,0.3,1.3,1
		c0.1,0.3,0.1,0.5,0.1,0.8c0,2.9,0,5.7,0,8.6c0,0.2,0,0.3,0,0.5c3.4,0,6.7,0,10,0c0-0.2,0-0.3,0-0.5c0-2.8,0-5.7,0-8.5
		c0-0.2,0-0.3,0-0.5c0-0.8,0.5-1.3,1.2-1.4c0.8-0.1,1.4,0.3,1.5,1.2c0,0.2,0.1,0.5,0.1,0.7c0,2.8,0,5.6,0,8.4c0,0.2,0,0.3,0,0.5
		c3.3,0,6.7,0,10,0c0-0.2,0-0.3,0-0.5c0-3.7,0-7.4,0-11.1c0-0.8-0.1-1.6-0.3-2.4c-0.5-2.1-1.7-3.7-3.6-4.7c-1.5-0.8-3.2-0.9-4.9-0.7
		c-2.1,0.3-3.9,1.1-5.2,2.8c-0.3,0.4-0.3,0.4-0.6,0c-0.8-1.2-1.9-2-3.3-2.4c-1.4-0.4-2.9-0.6-4.4-0.4c-2.2,0.3-4.2,1.1-5.5,3
		c-0.2,0.2-0.3,0.2-0.5,0.1c-2-0.8-3.9-1.6-5.9-2.4c-0.4-0.2-0.9-0.2-1.3-0.2c0,6.4,0,12.7,0,19c3.4,0,6.7,0,10,0
		C217.5,498,217.5,497.9,217.5,497.7z"/>
	<path class="st3" d="M182.2,492.6c0.1,1.6,0.6,3,1.7,4.2c1.4,1.5,3.2,2,5.1,2c1.1,0,2.2-0.3,3.2-0.8c1.4-0.7,2.3-2,2.8-3.4
		c0-0.1,0.2-0.2,0.2-0.3c0.1,0,0.1,0.1,0.2,0.1c-0.1,0.7-0.2,1.3-0.3,2c-0.1,0.7-0.3,1.3-0.5,2c3.8,0,7.5,0,11.3,0
		c0-6.3,0-12.6,0-18.9c-3.5,0-7,0-10.5,0c0,0.2,0,0.3,0,0.5c0,2.8,0,5.6,0,8.4c0,0.2,0,0.4,0,0.7c-0.1,0.7-0.5,1.1-1.1,1.2
		c-0.7,0.1-1.3-0.2-1.5-0.9c-0.1-0.3-0.1-0.6-0.1-1c0-2.8,0-5.6,0-8.4c0-0.2,0-0.3,0-0.5c-3.5,0-7,0-10.6,0c0,0.2,0,0.3,0,0.5
		c0,3.4,0,6.8,0,10.2C182.1,490.9,182.1,491.7,182.2,492.6z"/>
	<path class="st3" d="M189.7,520.8c-0.6-3.1-2.3-5.5-5.1-6.9c-2.1-1.1-4.4-1.3-6.8-1.1c-3.1,0.3-5.6,1.5-7.5,4
		c-0.4,0.5-0.5,0.5-0.8,0c-1.2-1.7-2.7-2.8-4.7-3.4c-2.8-0.8-5.5-0.9-8.3-0.1c-2.3,0.6-4.3,1.8-5.6,3.8c-0.2,0.4-0.5,0.2-0.7,0.1
		c-2.8-1.2-5.7-2.3-8.5-3.5c-0.5-0.2-1.1-0.2-1.7-0.2c0,9,0,17.8,0,26.7c0.2,0,0.4,0,0.5,0c4.4,0,8.7,0,13.1,0
		c0.5,0,0.6-0.2,0.6-0.6c0-4,0-8,0-11.9c0-0.3,0-0.7,0-1c0.1-0.9,0.7-1.6,1.5-1.7c1-0.1,1.8,0.3,2.1,1.2c0.1,0.4,0.2,0.9,0.2,1.4
		c0,4,0,8,0,12.1c0,0.5,0.1,0.6,0.6,0.6c4.3,0,8.6,0,12.8,0c0.2,0,0.4,0,0.6,0c0-0.3,0-0.5,0-0.7c0-4,0-8,0-12.1c0-0.3,0-0.7,0.1-1
		c0.2-1,0.9-1.5,1.9-1.5c0.9,0,1.6,0.5,1.8,1.5c0.1,0.3,0.1,0.7,0.1,1c0,4,0,8,0,12.1c0,0.2,0,0.4,0,0.6c4.7,0,9.4,0,14.1,0
		c0-0.2,0-0.4,0-0.6c0-5.2,0-10.5,0-15.7C189.9,522.8,189.9,521.8,189.7,520.8z"/>
	<path class="st3" d="M124.7,517.4c-0.5,0.2-0.8,0.2-1.2-0.3c-2.1-2.8-5.1-4.3-8.6-4.4c-4-0.1-7.2,1.4-9.6,4.6c-1.8,2.3-2.7,5-2.9,8
		c-0.3,3.4,0.1,6.6,1.6,9.7c1.4,2.9,3.5,5,6.7,5.7c3.1,0.7,5.7-0.1,7.7-2.7c1.4-1.9,2.2-4.1,2.4-6.4c0-0.4,0.1-0.6,0.6-0.4
		c0,3.1-0.5,6-1.5,8.9c5.5,0,10.9,0,16.4,0c0-8.9,0-17.7,0-26.7c-0.7,0.1-1.3,0.1-1.9,0.3C131.1,514.9,127.9,516.2,124.7,517.4z
		 M119.7,530.1L119.7,530.1c-2,0-3.6-1.6-3.6-3.5c0-2,1.5-3.6,3.5-3.6l0,0c1,0,1.8,0.4,2.5,1c0.6,0.7,1,1.6,1,2.5
		C123.2,528.5,121.7,530.1,119.7,530.1z"/>
	<path class="st3" d="M229.1,514.2c0,8.4,0,16.9,0,25.3c0,0.6,0.2,0.7,0.7,0.7c4.5,0,9,0,13.4,0c0.2,0,0.4,0,0.6,0
		c0-8.9,0-17.7,0-26.6c-4.9,0-9.8,0-14.8,0C229.1,513.8,229.1,514,229.1,514.2z"/>
	<path class="st3" d="M230.7,511.6c1.4,0.7,2.9,0.9,4.5,1c2.1,0.1,4.2,0,6.2-0.7c2.1-0.7,3.2-2.2,3.2-4.1c0-2-1.2-3.4-3.3-4.1
		c-1.6-0.5-3.2-0.6-4.9-0.8c-1.4,0.2-2.8,0.3-4.2,0.6c-1.3,0.2-2.5,0.8-3.3,1.8C227.7,506.9,227.6,510.2,230.7,511.6z"/>
	<path class="st3" d="M224.5,517.2c-1.8-2.6-4.2-4.2-7.4-4.4c-2.6-0.2-4.8,0.6-6.8,2.3c-1.4,1.2-2.5,2.7-3.3,4.5
		c-0.1,0.2-0.3,0.3-0.4,0.5c-0.1,0-0.1-0.1-0.2-0.1c0-4.5,0-9.1,0-13.7c-5,0-9.9,0-14.8,0c0,11.3,0,22.5,0,33.8c5.5,0,10.9,0,16.3,0
		c-0.9-2.2-1.5-4.4-1.5-6.8c0.1,0,0.1,0,0.2-0.1c0.1,0.2,0.2,0.5,0.4,0.7c0.7,1.7,1.7,3.2,3.1,4.4c2.7,2.4,5.7,3.2,9.1,2
		c2.7-0.9,4.5-2.9,5.8-5.4c1.6-3,2.2-6.3,2-9.7C227,522.3,226.2,519.6,224.5,517.2z M214.6,529.5c-0.8,0.8-1.8,1.2-2.8,1.2
		c0,0,0,0,0,0c-2.2,0-4-1.8-4-4c0-2.2,1.7-4,3.9-4h0c2.2,0,4,1.8,4,4C215.8,527.7,215.4,528.7,214.6,529.5z"/>
	<path class="st3" d="M81,518c0,0-4.6,0-8.5,3.7C72.4,521.7,77.2,519.4,81,518z"/>
	<path class="st3" d="M98,524.5C98.1,524.5,98.1,524.5,98,524.5c0,0-1.6-1.6-4.6-1.7c-2.4-0.1-4.5,0.5-5.3,0.7c-0.6,0.1-1,0.4-1.2,1
		c-1.2,3-4.2,4-7,3.6c-3.9-0.6-7.2-2.4-10-5c-1.1-1.1-1.1-1.5,0-2.5c2.8-2.7,6.2-4.5,10.1-5.2c2.9-0.5,5.3,0.6,6.8,3l0,0
		c0,0,0.6,1.9,2.4,2.1c0.5,0.1,1.3,0,2.1-0.1c0,0,0,0,0,0l0,0c0,0,0,0,0,0c0,0,0,0,0,0c0,0,0,0,0,0l0,0c1.8-0.3,6.1-1.1,7.4-3.7
		c0.4-0.8,0.5-1.8,0.5-3.1c-0.1-2.9-1.5-5-4.1-6.3c-1.7-0.9-3.6-1.1-5.5-1.1c-8.9,0-17.8,0-26.7,0c-0.2,0-0.3,0-0.5,0
		c0,11.3,0,22.6,0,34c0.3,0,0.6,0,0.8-0.1c4.1-1.7,8.4-1.7,12.8-1.1c3.4,0.5,6.7,1.6,10.1,1.8c2.4,0.1,4.8,0.3,7.2-0.4
		c4.2-1.2,7.4-4.4,7.6-8.8C101,528.6,100.2,526.2,98,524.5z"/>
</g>
<g>
	<path class="st1" d="M446.4,488.6c0,0.2,0.1,0.5,0.1,0.7c0,2.8,0,5.6,0,8.4c0,0.2,0,0.3,0,0.5c3.3,0,6.7,0,10,0c0-0.2,0-0.3,0-0.5
		c0-3.7,0-7.4,0-11.1c0-0.8-0.1-1.6-0.3-2.4c-0.5-2.1-1.7-3.7-3.6-4.7c-1.5-0.8-3.2-0.9-4.9-0.7c-2.1,0.3-3.9,1.1-5.2,2.8
		c-0.3,0.4-0.3,0.4-0.6,0c-0.8-1.2-1.9-2-3.3-2.4c-1.4-0.4-2.9-0.6-4.4-0.4c-2.2,0.3-4.2,1.1-5.5,3c-0.2,0.2-0.3,0.2-0.5,0.1
		c-2-0.8-3.9-1.6-5.9-2.4c-0.4-0.2-0.9-0.2-1.3-0.2c0,6.4,0,12.7,0,19c3.4,0,6.7,0,10,0c0-0.2,0-0.3,0-0.5c0-2.8,0-5.7,0-8.5
		c0-0.3,0-0.6,0.1-0.8c0.1-0.6,0.6-1,1.2-1c0.7,0,1.2,0.3,1.3,1c0.1,0.3,0.1,0.5,0.1,0.8c0,2.9,0,5.7,0,8.6c0,0.2,0,0.3,0,0.5
		c3.4,0,6.7,0,10,0c0-0.2,0-0.3,0-0.5c0-2.8,0-5.7,0-8.5c0-0.2,0-0.3,0-0.5c0-0.8,0.5-1.3,1.2-1.4
		C445.7,487.3,446.2,487.7,446.4,488.6z"/>
	<path class="st1" d="M408.1,498.2c3.8,0,7.5,0,11.3,0c0-6.3,0-12.6,0-18.9c-3.5,0-7,0-10.5,0c0,0.2,0,0.3,0,0.5c0,2.8,0,5.6,0,8.4
		c0,0.2,0,0.4,0,0.7c-0.1,0.7-0.5,1.1-1.1,1.2c-0.7,0.1-1.3-0.2-1.5-0.9c-0.1-0.3-0.1-0.6-0.1-1c0-2.8,0-5.6,0-8.4
		c0-0.2,0-0.3,0-0.5c-3.5,0-7,0-10.6,0c0,0.2,0,0.3,0,0.5c0,3.4,0,6.8,0,10.2c0,0.9,0,1.7,0.1,2.6c0.1,1.6,0.6,3,1.7,4.2
		c1.4,1.5,3.2,2,5.1,2c1.1,0,2.2-0.3,3.2-0.8c1.4-0.7,2.3-2,2.8-3.4c0-0.1,0.2-0.2,0.2-0.3c0.1,0,0.1,0.1,0.2,0.1
		c-0.1,0.7-0.2,1.3-0.3,2C408.5,496.9,408.3,497.5,408.1,498.2z"/>
	<path class="st1" d="M376.7,497.5c2.4,0.4,4.8,1.1,7.3,1.3c1.7,0.1,3.5,0.2,5.2-0.3c3-0.8,5.4-3.2,5.5-6.4c0.1-2.4-0.7-4.3-2.8-5.5
		c-1.2-0.8-2.6-1.1-4.1-1.2c-0.6-0.1-1.1-0.1-1.7-0.1c0-0.1,0-0.2,0-0.4c0.3,0,0.7,0,1,0c1.2-0.1,2.4-0.3,3.4-0.9
		c1.9-1,2.8-2.6,2.8-4.7c0-2.1-1.1-3.6-2.9-4.5c-1.2-0.6-2.6-0.8-3.9-0.8c-6.4,0-12.8,0-19.2,0c-0.1,0-0.3,0-0.4,0
		c0,8.1,0,16.3,0,24.4c0.2,0,0.4,0,0.6-0.1C370.5,497.1,373.6,497,376.7,497.5z M378.2,479.9l0.9,0c0.2,0,0.3,0,0.5,0
		c0.4,0,0.8,0,1.3,0.1c1,0.1,1.6,0.9,1.6,1.9c0,1-0.6,1.8-1.5,1.9c-0.5,0.1-0.9,0.1-1.4,0.1c-0.2,0-0.4,0-0.5,0l-0.9,0V479.9z
		 M378.2,487.1v-0.9h0.9c0.2,0,0.4,0,0.6,0c0.2,0,0.4,0,0.6,0c0.3,0,0.6,0,0.8,0c1.2,0.1,2,1,2,2.1c0,1.1-0.8,2-1.9,2.2
		c-0.1,0-0.3,0-0.4,0c-0.8,0-1.5-0.3-2-0.6c-0.3-0.2-0.6-0.6-0.6-1c0-0.5,0-0.9,0-1.4C378.2,487.5,378.2,487.3,378.2,487.1z"/>
	<path class="st1" d="M468.2,497.5c2.4,0.4,4.8,1.1,7.3,1.3c1.7,0.1,3.5,0.2,5.2-0.3c3-0.8,5.4-3.2,5.5-6.4c0.1-2.4-0.7-4.3-2.8-5.5
		c-1.2-0.8-2.6-1.1-4.1-1.2c-0.6-0.1-1.1-0.1-1.7-0.1c0-0.1,0-0.2,0-0.4c0.3,0,0.7,0,1,0c1.2-0.1,2.4-0.3,3.4-0.9
		c1.9-1,2.8-2.6,2.8-4.7c0-2.1-1.1-3.6-2.9-4.5c-1.2-0.6-2.6-0.8-3.9-0.8c-6.4,0-12.8,0-19.2,0c-0.1,0-0.3,0-0.4,0
		c0,8.1,0,16.3,0,24.4c0.2,0,0.4,0,0.6-0.1C462,497.1,465,497,468.2,497.5z M469.7,479.9l0.9,0c0.2,0,0.3,0,0.5,0
		c0.4,0,0.8,0,1.3,0.1c1,0.1,1.6,0.9,1.6,1.9c0,1-0.6,1.8-1.5,1.9c-0.5,0.1-0.9,0.1-1.4,0.1c-0.2,0-0.4,0-0.5,0l-0.9,0V479.9z
		 M469.7,487.1v-0.9h0.9c0.2,0,0.4,0,0.6,0c0.2,0,0.4,0,0.6,0c0.3,0,0.6,0,0.8,0c1.2,0.1,2,1,2,2.1c0,1.1-0.8,2-1.9,2.2
		c-0.1,0-0.3,0-0.4,0c-0.8,0-1.5-0.3-2-0.6c-0.3-0.2-0.6-0.6-0.6-1c0-0.5,0-0.9,0-1.4C469.7,487.5,469.7,487.3,469.7,487.1z"/>
	<path class="st1" d="M523.4,497.7c0-2.8,0-5.7,0-8.5c0-0.3,0-0.6,0.1-0.8c0.1-0.6,0.6-1,1.2-1c0.7,0,1.2,0.3,1.3,1
		c0.1,0.3,0.1,0.5,0.1,0.8c0,2.9,0,5.7,0,8.6c0,0.2,0,0.3,0,0.5c3.4,0,6.7,0,10,0c0-0.2,0-0.3,0-0.5c0-2.8,0-5.7,0-8.5
		c0-0.2,0-0.3,0-0.5c0-0.8,0.5-1.3,1.2-1.4c0.8-0.1,1.4,0.3,1.5,1.2c0,0.2,0.1,0.5,0.1,0.7c0,2.8,0,5.6,0,8.4c0,0.2,0,0.3,0,0.5
		c3.3,0,6.7,0,10,0c0-0.2,0-0.3,0-0.5c0-3.7,0-7.4,0-11.1c0-0.8-0.1-1.6-0.3-2.4c-0.5-2.1-1.7-3.7-3.6-4.7c-1.5-0.8-3.2-0.9-4.9-0.7
		c-2.1,0.3-3.9,1.1-5.2,2.8c-0.3,0.4-0.3,0.4-0.6,0c-0.8-1.2-1.9-2-3.3-2.4c-1.4-0.4-2.9-0.6-4.4-0.4c-2.2,0.3-4.2,1.1-5.5,3
		c-0.2,0.2-0.3,0.2-0.5,0.1c-2-0.8-3.9-1.6-5.9-2.4c-0.4-0.2-0.9-0.2-1.3-0.2c0,6.4,0,12.7,0,19c3.4,0,6.7,0,10,0
		C523.4,498,523.4,497.9,523.4,497.7z"/>
	<path class="st1" d="M488.2,492.6c0.1,1.6,0.6,3,1.7,4.2c1.4,1.5,3.2,2,5.1,2c1.1,0,2.2-0.3,3.2-0.8c1.4-0.7,2.3-2,2.8-3.4
		c0-0.1,0.2-0.2,0.2-0.3c0.1,0,0.1,0.1,0.2,0.1c-0.1,0.7-0.2,1.3-0.3,2c-0.1,0.7-0.3,1.3-0.5,2c3.8,0,7.5,0,11.3,0
		c0-6.3,0-12.6,0-18.9c-3.5,0-7,0-10.5,0c0,0.2,0,0.3,0,0.5c0,2.8,0,5.6,0,8.4c0,0.2,0,0.4,0,0.7c-0.1,0.7-0.5,1.1-1.1,1.2
		c-0.7,0.1-1.3-0.2-1.5-0.9c-0.1-0.3-0.1-0.6-0.1-1c0-2.8,0-5.6,0-8.4c0-0.2,0-0.3,0-0.5c-3.5,0-7,0-10.6,0c0,0.2,0,0.3,0,0.5
		c0,3.4,0,6.8,0,10.2C488.1,490.9,488.1,491.7,488.2,492.6z"/>
	<path class="st1" d="M495.6,520.8c-0.6-3.1-2.3-5.5-5.1-6.9c-2.1-1.1-4.4-1.3-6.8-1.1c-3.1,0.3-5.6,1.5-7.5,4
		c-0.4,0.5-0.5,0.5-0.8,0c-1.2-1.7-2.7-2.8-4.7-3.4c-2.8-0.8-5.5-0.9-8.3-0.1c-2.3,0.6-4.3,1.8-5.6,3.8c-0.2,0.4-0.5,0.2-0.7,0.1
		c-2.8-1.2-5.7-2.3-8.5-3.5c-0.5-0.2-1.1-0.2-1.7-0.2c0,9,0,17.8,0,26.7c0.2,0,0.4,0,0.5,0c4.4,0,8.7,0,13.1,0
		c0.5,0,0.6-0.2,0.6-0.6c0-4,0-8,0-11.9c0-0.3,0-0.7,0-1c0.1-0.9,0.7-1.6,1.5-1.7c1-0.1,1.8,0.3,2.1,1.2c0.1,0.4,0.2,0.9,0.2,1.4
		c0,4,0,8,0,12.1c0,0.5,0.1,0.6,0.6,0.6c4.3,0,8.6,0,12.8,0c0.2,0,0.4,0,0.6,0c0-0.3,0-0.5,0-0.7c0-4,0-8,0-12.1c0-0.3,0-0.7,0.1-1
		c0.2-1,0.9-1.5,1.9-1.5c0.9,0,1.6,0.5,1.8,1.5c0.1,0.3,0.1,0.7,0.1,1c0,4,0,8,0,12.1c0,0.2,0,0.4,0,0.6c4.7,0,9.4,0,14.1,0
		c0-0.2,0-0.4,0-0.6c0-5.2,0-10.5,0-15.7C495.9,522.8,495.8,521.8,495.6,520.8z"/>
	<path class="st1" d="M430.6,517.4c-0.5,0.2-0.8,0.2-1.2-0.3c-2.1-2.8-5.1-4.3-8.6-4.4c-4-0.1-7.2,1.4-9.6,4.6c-1.8,2.3-2.7,5-2.9,8
		c-0.3,3.4,0.1,6.6,1.6,9.7c1.4,2.9,3.5,5,6.7,5.7c3.1,0.7,5.7-0.1,7.7-2.7c1.4-1.9,2.2-4.1,2.4-6.4c0-0.4,0.1-0.6,0.6-0.4
		c0,3.1-0.5,6-1.5,8.9c5.5,0,10.9,0,16.4,0c0-8.9,0-17.7,0-26.7c-0.7,0.1-1.3,0.1-1.9,0.3C437,514.9,433.8,516.2,430.6,517.4z
		 M425.7,530.1L425.7,530.1c-2,0-3.6-1.6-3.6-3.5c0-2,1.5-3.6,3.5-3.6l0,0c1,0,1.8,0.4,2.5,1c0.6,0.7,1,1.6,1,2.5
		C429.2,528.5,427.6,530.1,425.7,530.1z"/>
	<path class="st1" d="M535.1,514.2c0,8.4,0,16.9,0,25.3c0,0.6,0.2,0.7,0.7,0.7c4.5,0,9,0,13.4,0c0.2,0,0.4,0,0.6,0
		c0-8.9,0-17.7,0-26.6c-4.9,0-9.8,0-14.8,0C535.1,513.8,535.1,514,535.1,514.2z"/>
	<path class="st1" d="M536.6,511.6c1.4,0.7,2.9,0.9,4.5,1c2.1,0.1,4.2,0,6.2-0.7c2.1-0.7,3.2-2.2,3.2-4.1c0-2-1.2-3.4-3.3-4.1
		c-1.6-0.5-3.2-0.6-4.9-0.8c-1.4,0.2-2.8,0.3-4.2,0.6c-1.3,0.2-2.5,0.8-3.3,1.8C533.6,506.9,533.6,510.2,536.6,511.6z"/>
	<path class="st1" d="M530.5,517.2c-1.8-2.6-4.2-4.2-7.4-4.4c-2.6-0.2-4.8,0.6-6.8,2.3c-1.4,1.2-2.5,2.7-3.3,4.5
		c-0.1,0.2-0.3,0.3-0.4,0.5c-0.1,0-0.1-0.1-0.2-0.1c0-4.5,0-9.1,0-13.7c-5,0-9.9,0-14.8,0c0,11.3,0,22.5,0,33.8c5.5,0,10.9,0,16.3,0
		c-0.9-2.2-1.5-4.4-1.5-6.8c0.1,0,0.1,0,0.2-0.1c0.1,0.2,0.2,0.5,0.4,0.7c0.7,1.7,1.7,3.2,3.1,4.4c2.7,2.4,5.7,3.2,9.1,2
		c2.7-0.9,4.5-2.9,5.8-5.4c1.6-3,2.2-6.3,2-9.7C533,522.3,532.2,519.6,530.5,517.2z M520.6,529.5c-0.8,0.8-1.8,1.2-2.8,1.2
		c0,0,0,0,0,0c-2.2,0-4-1.8-4-4c0-2.2,1.7-4,3.9-4h0c2.2,0,4,1.8,4,4C521.7,527.7,521.3,528.7,520.6,529.5z"/>
	<path class="st1" d="M386.9,518c0,0-4.6,0-8.5,3.7C378.4,521.7,383.2,519.4,386.9,518z"/>
	<path class="st1" d="M404,524.5C404,524.5,404,524.5,404,524.5c0,0-1.6-1.6-4.6-1.7c-2.4-0.1-4.5,0.5-5.3,0.7c-0.6,0.1-1,0.4-1.2,1
		c-1.2,3-4.2,4-7,3.6c-3.9-0.6-7.2-2.4-10-5c-1.1-1.1-1.1-1.5,0-2.5c2.8-2.7,6.2-4.5,10.1-5.2c2.9-0.5,5.3,0.6,6.8,3l0,0
		c0,0,0.6,1.9,2.4,2.1c0.5,0.1,1.3,0,2.1-0.1c0,0,0,0,0,0l0,0c0,0,0,0,0,0c0,0,0,0,0,0c0,0,0,0,0,0l0,0c1.8-0.3,6.1-1.1,7.4-3.7
		c0.4-0.8,0.5-1.8,0.5-3.1c-0.1-2.9-1.5-5-4.1-6.3c-1.7-0.9-3.6-1.1-5.5-1.1c-8.9,0-17.8,0-26.7,0c-0.2,0-0.3,0-0.5,0
		c0,11.3,0,22.6,0,34c0.3,0,0.6,0,0.8-0.1c4.1-1.7,8.4-1.7,12.8-1.1c3.4,0.5,6.7,1.6,10.1,1.8c2.4,0.1,4.8,0.3,7.2-0.4
		c4.2-1.2,7.4-4.4,7.6-8.8C407,528.6,406.1,526.2,404,524.5z"/>
</g>
</svg>
