<?xml version="1.0" encoding="utf-8"?>
<!-- Generator: Adobe Illustrator 27.9.1, SVG Export Plug-In . SVG Version: 6.00 Build 0)  -->
<svg version="1.1" id="Layer_1" xmlns="http://www.w3.org/2000/svg" xmlns:xlink="http://www.w3.org/1999/xlink" x="0px" y="0px"
	 viewBox="0 0 16.1 16" style="enable-background:new 0 0 16.1 16;" xml:space="preserve">
<style type="text/css">
	.st0{fill:none;}
	.st1{fill:#2BACE2;}
	.st2{fill:#138CCD;}
	.st3{fill:#4C92CE;}
</style>
<g>
	<path class="st3" d="M4.2,1.8c0.5,0,1.1,0.1,1.5,0.4c0.1,0.1,0.3,0.2,0.4,0.2c0.1,0.1,0.2,0.2,0.3,0.2C6.6,2.7,6.9,3,7.7,3.8l0,0.1
		L6.5,5.1l-0.1,0c0,0-0.5-0.5-0.5-0.5C5.2,4,4.6,3.5,3.7,3.7c-0.6,0.1-1,0.6-1.2,1.1c-0.1,0.4-0.1,0.8,0,1.2c0.3,0.8,1.2,1.3,1.7,2
		c-0.1-0.1,2-2.1,2.2-2.3C7.3,4.9,8.2,4,9.1,3.1c0.6-0.6,1.1-1,1.9-1.2c0.7-0.2,1.5-0.1,2.2,0.1c1.2,0.5,2.1,1.6,2.3,2.9
		c0.1,0.8,0,1.5-0.4,2.2c-0.3,0.5-0.7,0.9-1.1,1.3c-0.1,0.1-0.3,0.3-0.5,0.5c0,0-0.1,0-0.1,0c0,0,0,0-0.1,0
		c-0.1-0.1-0.1-0.1-0.2-0.2c-0.1-0.1-0.2-0.2-0.3-0.3c-0.2-0.2-0.4-0.4-0.6-0.6c0,0-0.1-0.1-0.1-0.2c0,0,0.2-0.2,0.5-0.6
		c0.5-0.5,1-1.1,0.9-1.9c-0.1-0.7-0.6-1.3-1.2-1.5c-1.3-0.4-2.3,0.9-3.1,1.7l1.9,1.9c1.7,1.7,1.9,1.9,1.9,1.9c0,0,0,0.1,0,0.1
		c0,0-1.1,1.1-2.3,2.3C9,13.5,8.5,14,8.4,14.1c0,0-0.1,0.1-0.2,0.1c-0.1,0-0.1,0-0.2,0c-0.1,0-0.1,0-0.2,0c0,0-0.1,0-0.2-0.1
		c-0.1,0-0.5-0.4-3.1-3.1c-0.6-0.6-1.3-1.3-1.9-1.9C1.9,8.3,1,7.6,0.7,6.6c-0.3-1-0.2-2.1,0.4-3c0-0.1,0.1-0.1,0.1-0.2
		C1.9,2.4,3.1,1.8,4.2,1.8z M7.4,7.6c-0.1,0-0.2,0.1-0.2,0.1C7.1,7.8,7,7.9,6.9,7.9C6.8,8,6.7,8.1,6.6,8.2C6.6,8.3,6.5,8.4,6.4,8.5
		C6.4,8.6,6.3,8.8,6.3,8.9c0,0.1,0,0.2,0,0.4c0,0.2,0,0.3,0,0.4c0,0.1,0,0.2,0.1,0.2c0,0.1,0.1,0.2,0.1,0.2s0.1,0.2,0.2,0.3
		s0.2,0.2,0.2,0.2S7,10.8,7,10.8c0.1,0,0.2,0.1,0.2,0.1C7.3,11,7.4,11,7.5,11c0.1,0,0.2,0,0.2,0.1c0.1,0,0.2,0,0.3,0
		c0.1,0,0.2,0,0.3,0c0.1,0,0.2,0,0.3-0.1S8.7,11,8.8,11c0.1,0,0.2-0.1,0.3-0.1c0.1,0,0.2-0.1,0.3-0.2c0.1-0.1,0.2-0.2,0.2-0.3
		c0-0.1,0.1-0.2,0.1-0.3c0-0.1,0.1-0.2,0.1-0.3s0-0.2,0.1-0.3c0-0.1,0-0.2,0-0.3c0-0.1,0-0.2,0-0.3c0-0.1,0-0.2-0.1-0.2
		c0-0.1-0.1-0.2-0.1-0.3c0-0.1-0.1-0.2-0.2-0.3c0-0.1-0.1-0.2-0.2-0.2C9.2,8,9.1,7.9,9,7.8C9,7.8,8.9,7.7,8.8,7.7
		c0,0-0.1-0.1-0.2-0.1S8.4,7.6,8.3,7.5c-0.1,0-0.2,0-0.3,0c-0.1,0-0.2,0-0.3,0C7.6,7.6,7.5,7.6,7.4,7.6L7.4,7.6z M8.1,8.2
		c0.1,0,0.2,0,0.2,0c0.1,0,0.1,0,0.1,0c0,0,0,0,0,0.1c0,0,0,0.1,0,0.1c0,0,0,0.1,0,0.2s0.1,0.1,0.1,0.1s0.1,0.1,0.1,0.1
		c0.1,0,0.1,0,0.2,0c0.1,0,0.1,0,0.3-0.1l0,0.1c0,0,0,0.1,0.1,0.2c0,0.1,0,0.2,0,0.3c0,0.1,0,0.2,0,0.3c0,0.1-0.1,0.1-0.1,0.2
		S9,10,8.9,10c0,0.1-0.1,0.1-0.2,0.2c-0.1,0-0.2,0.1-0.2,0.1c-0.1,0-0.2,0.1-0.2,0.1c-0.1,0-0.2,0-0.3,0c-0.2,0-0.2,0-0.3-0.1
		c-0.1,0-0.2-0.1-0.2-0.1c-0.1,0-0.2-0.1-0.2-0.2C7.1,10,7.1,9.9,7,9.8c0-0.1-0.1-0.2-0.1-0.2s0-0.2,0-0.2c0-0.1,0-0.2,0-0.3
		c0-0.1,0-0.2,0.1-0.2C7,8.8,7,8.7,7.1,8.7c0,0,0.1-0.1,0.2-0.2c0.1-0.1,0.2-0.1,0.2-0.2c0,0,0.1-0.1,0.2-0.1c0.1,0,0.2-0.1,0.2-0.1
		C7.9,8.2,8,8.2,8.1,8.2L8.1,8.2z"/>
</g>
</svg>
