<?xml version="1.0" encoding="utf-8"?>
<!-- Generator: Adobe Illustrator 27.9.1, SVG Export Plug-In . SVG Version: 6.00 Build 0)  -->
<svg version="1.1" id="Layer_1" xmlns="http://www.w3.org/2000/svg" xmlns:xlink="http://www.w3.org/1999/xlink" x="0px" y="0px"
	 viewBox="0 0 16.1 16" style="enable-background:new 0 0 16.1 16;" xml:space="preserve">
<style type="text/css">
	.st0{fill:none;}
	.st1{fill:#2BACE2;}
	.st2{fill:#138CCD;}
	.st3{fill:#4C92CE;}
</style>
<g>
	<rect class="st0" width="16" height="16"/>
	<g transform="translate(1.4065934065934016 1.4065934065934016) scale(2.81 2.81)">
		<path class="st1" d="M1.4,0.6c-1,0-1.9,0.9-1.9,1.9s0.9,1.9,1.9,1.9s1.9-0.9,1.9-1.9S2.5,0.6,1.4,0.6z M1.4,3.1
			c-0.3,0-0.6-0.3-0.6-0.6s0.3-0.6,0.6-0.6S2,2.2,2,2.5C2,2.8,1.7,3.1,1.4,3.1C1.4,3.1,1.4,3.1,1.4,3.1z"/>
		<path class="st2" d="M3.6,2C4,2.2,4.6,2,4.6,2C4.4,2.8,3.9,3.2,3.2,3.3C2.9,4,2.2,4.4,1.4,4.4L2,2.6c0.6-1.9,0.9-2,2.3-2h1
			C5.1,1.3,4.5,1.9,3.6,2z"/>
	</g>
</g>
</svg>
