<?xml version="1.0" encoding="utf-8"?>
<!-- Generator: Adobe Illustrator 27.9.1, SVG Export Plug-In . SVG Version: 6.00 Build 0)  -->
<svg version="1.1" id="Layer_1" xmlns="http://www.w3.org/2000/svg" xmlns:xlink="http://www.w3.org/1999/xlink" x="0px" y="0px"
	 viewBox="0 0 16 16" style="enable-background:new 0 0 16 16;" xml:space="preserve">
<style type="text/css">
	.st0{fill:#0C141A;}
	.st1{fill:#E82573;}
	.st2{fill:#F7F4F5;}
</style>
<g>
	<path class="st0" d="M13.5,0H2.4C1.1,0-0.1,1.1-0.1,2.5v11.1c0,1.4,1.1,2.5,2.5,2.5h11.1c1.4,0,2.5-1.1,2.5-2.5V2.5
		C16,1.1,14.9,0,13.5,0z"/>
	<g>
		<g>
			<path class="st1" d="M10.4,12.8c-0.7,0.3-1.4,0.2-2.1,0c-1.4-0.4-2.7-0.7-4.1-1.1C2.5,11.2,1.6,9.8,2.1,8
				c0.4-1.4,0.7-2.9,1.1-4.3c0.5-1.8,2-2.7,3.8-2.2c1.4,0.3,2.8,0.7,4.2,1.1C12.9,3,13.8,4.3,13.4,6c-0.3,1.7-0.8,3.4-1.4,5
				c-0.5-0.8-1-1.6-1.5-2.3c-0.3-0.5-0.6-1-0.9-1.5c-0.4-0.5-0.5-1,0.3-1.3c0.9-0.3,0.9-0.8,0.3-1.5C10,4.1,9.9,3.8,9.8,3.5
				C9.4,2.7,9,2.6,8.3,3.1C7,4,5.7,4.7,4.5,5.5c-1.6,1-1.6,1-0.6,2.7c0.4,0.8,0.9,1,1.6,0.4C6,8.1,6.3,8.4,6.6,8.9
				c0.4,0.6,0.6,1.3,1.2,1.7c0.1,0.5,0.3,1,0.8,1.3C9.1,12.2,9.8,12.5,10.4,12.8z"/>
			<path class="st2" d="M10.4,12.8c-0.6-0.3-1.3-0.6-1.9-0.9c-0.5-0.3-0.7-0.7-0.8-1.3c0.4-1.4,1.5-1.8,2.8-2c0.5,0.8,1,1.6,1.5,2.3
				c0.5,1,1.1,2,1.7,3.1C12.6,13.6,11.5,13.2,10.4,12.8z"/>
		</g>
	</g>
</g>
</svg>
