<?xml version="1.0" encoding="utf-8"?>
<!-- Generator: Adobe Illustrator 27.9.1, SVG Export Plug-In . SVG Version: 6.00 Build 0)  -->
<svg version="1.1" id="Layer_1" xmlns="http://www.w3.org/2000/svg" xmlns:xlink="http://www.w3.org/1999/xlink" x="0px" y="0px"
	 viewBox="0 0 16 16" style="enable-background:new 0 0 16 16;" xml:space="preserve">
<style type="text/css">
	.st0{opacity:0.67;fill:#FFFFFF;stroke:#FFFFFF;stroke-width:3;stroke-miterlimit:10;}
	.st1{opacity:0.44;fill:#FFFFFF;}
	.st2{opacity:0.67;fill:#090909;}
	.st3{opacity:0.67;fill:#FAED36;stroke:#FFFFFF;stroke-width:3;stroke-miterlimit:10;}
	.st4{fill:#D362A2;}
	.st5{fill:#F79721;}
	.st6{fill:#FAFBFB;}
	.st7{fill:#090909;}
	.st8{fill:none;stroke:#0A0A0A;stroke-miterlimit:10;}
	.st9{fill:#E03926;}
	.st10{fill:#467CBE;}
	.st11{fill:url(#SVGID_1_);}
	.st12{fill:url(#SVGID_00000153676134270012746570000004960548394223866530_);}
	.st13{fill:#FFFFFF;}
	.st14{fill-rule:evenodd;clip-rule:evenodd;fill:#363638;}
	.st15{fill:url(#SVGID_00000061452093898797131620000002636185343259556003_);}
	.st16{fill:#F7971D;}
</style>
<path d="M14.1,3.8c-1.6-0.3-2.8-1.7-3-3.3V0.1H8.4v10.8c0,1.3-1,2.3-2.3,2.3c-0.7,0-1.4-0.3-1.8-0.9l0,0l0,0c-0.8-1-0.6-2.4,0.4-3.2
	c0.6-0.4,1.4-0.6,2.1-0.4V6c-2.7-0.4-5.2,1.5-5.6,4.3c-0.2,1.5,0.3,3.1,1.4,4.2c1.9,2,5.1,2,7.1,0.1c1-0.9,1.5-2.2,1.5-3.6V5.4
	c1.1,0.8,2.4,1.2,3.8,1.2V3.9C14.6,3.9,14.3,3.9,14.1,3.8z"/>
</svg>
