<?xml version="1.0" encoding="utf-8"?>
<!-- Generator: Adobe Illustrator 27.9.1, SVG Export Plug-In . SVG Version: 6.00 Build 0)  -->
<svg version="1.1" id="Layer_1" xmlns="http://www.w3.org/2000/svg" xmlns:xlink="http://www.w3.org/1999/xlink" x="0px" y="0px"
	 viewBox="0 0 16 16" style="enable-background:new 0 0 16 16;" xml:space="preserve">
<style type="text/css">
	.st0{opacity:0.67;fill:#FFFFFF;stroke:#FFFFFF;stroke-width:3;stroke-miterlimit:10;}
	.st1{opacity:0.44;fill:#FFFFFF;}
	.st2{opacity:0.67;fill:#090909;}
	.st3{opacity:0.67;fill:#FAED36;stroke:#FFFFFF;stroke-width:3;stroke-miterlimit:10;}
	.st4{fill:#D362A2;}
	.st5{fill:#F79721;}
	.st6{fill:#FAFBFB;}
	.st7{fill:#090909;}
	.st8{fill:none;stroke:#0A0A0A;stroke-miterlimit:10;}
	.st9{fill:#E03926;}
	.st10{fill:#467CBE;}
	.st11{fill:url(#SVGID_1_);}
	.st12{fill:url(#SVGID_00000104686822341763646820000013568669910903969967_);}
	.st13{fill:#FFFFFF;}
	.st14{fill-rule:evenodd;clip-rule:evenodd;fill:#363638;}
	.st15{fill:url(#SVGID_00000132056296699647879520000016284684767419167363_);}
	.st16{fill:#F7971D;}
</style>
<g>
	<linearGradient id="SVGID_1_" gradientUnits="userSpaceOnUse" x1="4.1677" y1="2.2892" x2="10.1175" y2="11.1556">
		<stop  offset="0" style="stop-color:#37F7E7"/>
		<stop  offset="1" style="stop-color:#E93ACC"/>
	</linearGradient>
	<path class="st11" d="M13.8,0.6H2.2c-0.9,0-1.7,0.8-1.7,1.7v11.5c0,0.9,0.8,1.7,1.7,1.7h11.5c0.9,0,1.7-0.8,1.7-1.7V2.2
		C15.4,1.3,14.7,0.6,13.8,0.6z"/>
	<g>
		<path class="st13" d="M3.1,3.4h1.1v3.9h0C4.4,6.9,4.7,6.7,5,6.5c0.3-0.2,0.7-0.3,1.2-0.3c0.8,0,2.2,0.5,2.2,2.7v3.7H7.2V8.9
			c0-1-0.4-1.9-1.4-1.9c-0.7,0-1.3,0.5-1.5,1.1C4.2,8.4,4.2,8.5,4.2,8.7v3.8H3.1V3.4z"/>
		<path class="st13" d="M11.3,4.5v1.8h1.6v0.9h-1.6v3.4c0,0.8,0.2,1.2,0.8,1.2c0.3,0,0.5,0,0.7-0.1l0.1,0.8c-0.2,0.1-0.6,0.2-1,0.2
			c-0.5,0-1-0.2-1.2-0.5c-0.3-0.3-0.4-0.9-0.4-1.6V7.1h-1V6.3h1V4.8L11.3,4.5z"/>
	</g>
</g>
</svg>
