<?xml version="1.0" encoding="utf-8"?>
<!-- Generator: Adobe Illustrator 27.9.1, SVG Export Plug-In . SVG Version: 6.00 Build 0)  -->
<svg version="1.1" id="Layer_1" xmlns="http://www.w3.org/2000/svg" xmlns:xlink="http://www.w3.org/1999/xlink" x="0px" y="0px"
	 viewBox="0 0 16 16" style="enable-background:new 0 0 16 16;" xml:space="preserve">
<style type="text/css">
	.st0{opacity:0.67;fill:#FFFFFF;stroke:#FFFFFF;stroke-width:3;stroke-miterlimit:10;}
	.st1{opacity:0.44;fill:#FFFFFF;}
	.st2{opacity:0.67;fill:#090909;}
	.st3{opacity:0.67;fill:#FAED36;stroke:#FFFFFF;stroke-width:3;stroke-miterlimit:10;}
	.st4{fill:#D362A2;}
	.st5{fill:#F79721;}
	.st6{fill:#FAFBFB;}
	.st7{fill:#090909;}
	.st8{fill:none;stroke:#0A0A0A;stroke-miterlimit:10;}
	.st9{fill:#E03926;}
	.st10{fill:#467CBE;}
	.st11{fill:url(#SVGID_1_);}
	.st12{fill:url(#SVGID_00000031167870267034546820000007135321613680909230_);}
	.st13{fill:#FFFFFF;}
	.st14{fill-rule:evenodd;clip-rule:evenodd;fill:#363638;}
	.st15{fill:url(#SVGID_00000081609100912034014620000005699659143552420746_);}
	.st16{fill:#F7971D;}
</style>
<g>
	
		<radialGradient id="SVGID_1_" cx="655.8459" cy="485.4003" r="7.5466" gradientTransform="matrix(0 -1.982 -1.8439 0 899.4122 1316.4086)" gradientUnits="userSpaceOnUse">
		<stop  offset="0" style="stop-color:#FDDC56"/>
		<stop  offset="0.1" style="stop-color:#FDDC56"/>
		<stop  offset="0.5" style="stop-color:#F05742"/>
		<stop  offset="1" style="stop-color:#BA4598"/>
	</radialGradient>
	<path class="st11" d="M7.9,0.3c-3.2,0-4.1,0-4.3,0C3,0.4,2.6,0.5,2.2,0.7C1.8,0.8,1.6,1,1.3,1.3C0.8,1.8,0.5,2.4,0.4,3.1
		C0.4,3.5,0.4,3.6,0.4,5.4c0,0.6,0,1.4,0,2.5c0,3.1,0,4.1,0,4.2c0.1,0.6,0.2,1,0.4,1.5c0.4,0.8,1.2,1.5,2.1,1.7
		c0.3,0.1,0.7,0.1,1.1,0.1c0.2,0,2.1,0,4,0s3.8,0,4,0c0.5,0,0.8-0.1,1.1-0.1c0.9-0.2,1.7-0.8,2.1-1.7c0.2-0.4,0.3-0.8,0.4-1.4
		c0-0.1,0-2.2,0-4.3c0-2.1,0-4.1,0-4.3c0-0.6-0.2-1-0.4-1.4c-0.2-0.4-0.4-0.6-0.6-0.9c-0.5-0.5-1.1-0.8-1.8-0.9
		c-0.4-0.1-0.4-0.1-2.2-0.1H7.9z"/>
	
		<radialGradient id="SVGID_00000150061542924658572740000007368301483519839657_" cx="441.1832" cy="238.2826" r="7.5466" gradientTransform="matrix(0.1739 0.8687 3.5818 -0.7172 -932.3761 -211.0052)" gradientUnits="userSpaceOnUse">
		<stop  offset="0" style="stop-color:#4170B6"/>
		<stop  offset="0.128" style="stop-color:#4170B6"/>
		<stop  offset="1" style="stop-color:#5D52A2;stop-opacity:0"/>
	</radialGradient>
	<path style="fill:url(#SVGID_00000150061542924658572740000007368301483519839657_);" d="M7.9,0.3c-3.2,0-4.1,0-4.3,0
		C3,0.4,2.6,0.5,2.2,0.7C1.8,0.8,1.6,1,1.3,1.3C0.8,1.8,0.5,2.4,0.4,3.1C0.4,3.5,0.4,3.6,0.4,5.4c0,0.6,0,1.4,0,2.5
		c0,3.1,0,4.1,0,4.2c0.1,0.6,0.2,1,0.4,1.5c0.4,0.8,1.2,1.5,2.1,1.7c0.3,0.1,0.7,0.1,1.1,0.1c0.2,0,2.1,0,4,0s3.8,0,4,0
		c0.5,0,0.8-0.1,1.1-0.1c0.9-0.2,1.7-0.8,2.1-1.7c0.2-0.4,0.3-0.8,0.4-1.4c0-0.1,0-2.2,0-4.3c0-2.1,0-4.1,0-4.3c0-0.6-0.2-1-0.4-1.4
		c-0.2-0.4-0.4-0.6-0.6-0.9c-0.5-0.5-1.1-0.8-1.8-0.9c-0.4-0.1-0.4-0.1-2.2-0.1H7.9z"/>
	<path class="st13" d="M7.9,2.3c-1.5,0-1.7,0-2.3,0c-0.6,0-1,0.1-1.4,0.3c-0.4,0.1-0.7,0.3-1,0.6C3,3.5,2.8,3.8,2.6,4.2
		C2.5,4.5,2.4,4.9,2.4,5.5c0,0.6,0,0.8,0,2.3s0,1.7,0,2.3c0,0.6,0.1,1,0.3,1.4c0.1,0.4,0.3,0.7,0.6,1c0.3,0.3,0.6,0.5,1,0.6
		c0.4,0.1,0.8,0.2,1.4,0.3c0.6,0,0.8,0,2.3,0c1.5,0,1.7,0,2.3,0c0.6,0,1-0.1,1.4-0.3c0.4-0.1,0.7-0.3,1-0.6c0.3-0.3,0.5-0.6,0.6-1
		c0.1-0.4,0.2-0.8,0.3-1.4c0-0.6,0-0.8,0-2.3s0-1.7,0-2.3c0-0.6-0.1-1-0.3-1.4c-0.1-0.4-0.3-0.7-0.6-1c-0.3-0.3-0.6-0.5-1-0.6
		c-0.4-0.1-0.8-0.2-1.4-0.3C9.6,2.3,9.4,2.3,7.9,2.3L7.9,2.3z M7.4,3.3c0.1,0,0.3,0,0.5,0c1.5,0,1.7,0,2.3,0c0.5,0,0.8,0.1,1,0.2
		c0.3,0.1,0.4,0.2,0.6,0.4c0.2,0.2,0.3,0.4,0.4,0.6c0.1,0.2,0.2,0.5,0.2,1c0,0.6,0,0.8,0,2.3s0,1.7,0,2.3c0,0.5-0.1,0.8-0.2,1
		c-0.1,0.3-0.2,0.4-0.4,0.6c-0.2,0.2-0.4,0.3-0.6,0.4c-0.2,0.1-0.5,0.2-1,0.2c-0.6,0-0.8,0-2.3,0c-1.5,0-1.7,0-2.3,0
		c-0.5,0-0.8-0.1-1-0.2c-0.3-0.1-0.4-0.2-0.6-0.4c-0.2-0.2-0.3-0.4-0.4-0.6c-0.1-0.2-0.2-0.5-0.2-1c0-0.6,0-0.8,0-2.3s0-1.7,0-2.3
		c0-0.5,0.1-0.8,0.2-1C3.7,4.3,3.8,4.1,4,3.9s0.4-0.3,0.6-0.4c0.2-0.1,0.5-0.2,1-0.2C6.2,3.3,6.4,3.3,7.4,3.3L7.4,3.3z M10.9,4.2
		c-0.4,0-0.7,0.3-0.7,0.7c0,0.4,0.3,0.7,0.7,0.7c0.4,0,0.7-0.3,0.7-0.7C11.6,4.5,11.3,4.2,10.9,4.2L10.9,4.2z M7.9,5
		C6.3,5,5.1,6.2,5.1,7.8s1.3,2.9,2.9,2.9c1.6,0,2.9-1.3,2.9-2.9S9.5,5,7.9,5L7.9,5z M7.9,6c1,0,1.9,0.8,1.9,1.9c0,1-0.8,1.9-1.9,1.9
		c-1,0-1.9-0.8-1.9-1.9C6.1,6.8,6.9,6,7.9,6z"/>
</g>
</svg>
