<?xml version="1.0" encoding="utf-8"?>
<!-- Generator: Adobe Illustrator 27.9.1, SVG Export Plug-In . SVG Version: 6.00 Build 0)  -->
<svg version="1.1" id="Layer_1" xmlns="http://www.w3.org/2000/svg" xmlns:xlink="http://www.w3.org/1999/xlink" x="0px" y="0px"
	 viewBox="0 0 16 16" style="enable-background:new 0 0 16 16;" xml:space="preserve">
<style type="text/css">
	.st0{opacity:0.67;fill:#FFFFFF;stroke:#FFFFFF;stroke-width:3;stroke-miterlimit:10;}
	.st1{opacity:0.44;fill:#FFFFFF;}
	.st2{opacity:0.67;fill:#090909;}
	.st3{opacity:0.67;fill:#FAED36;stroke:#FFFFFF;stroke-width:3;stroke-miterlimit:10;}
	.st4{fill:#D362A2;}
	.st5{fill:#F79721;}
	.st6{fill:#FAFBFB;}
	.st7{fill:#090909;}
	.st8{fill:none;stroke:#0A0A0A;stroke-miterlimit:10;}
	.st9{fill:#E03926;}
	.st10{fill:#467CBE;}
	.st11{fill:url(#SVGID_1_);}
	.st12{fill:url(#SVGID_00000023269446834751859550000005919752241447866242_);}
	.st13{fill:#FFFFFF;}
	.st14{fill-rule:evenodd;clip-rule:evenodd;fill:#363638;}
	.st15{fill:url(#SVGID_00000094593001925059705320000009669531851863212445_);}
	.st16{fill:#F7971D;}
</style>
<path class="st10" d="M4.8,9.5C4.7,9.5,4.7,9.5,4.8,9.5c-0.4,0-0.7,0.1-1,0C3.1,9.5,2.6,9.4,2,9.1C1.3,8.7,0.9,8.2,0.7,7.5
	C0.6,7.3,0.5,7,0.5,6.8c0-0.4-0.1-0.8-0.1-1.2c0-0.3-0.1-0.6-0.1-0.9c0-0.3,0-0.5-0.1-0.8c0-0.2,0-0.5,0-0.7c0-0.2,0-0.5,0-0.7
	c0-0.3,0.1-0.6,0.2-0.8c0.1-0.2,0.2-0.3,0.3-0.4C0.8,1.2,1,1.1,1.2,1.1c0.3,0,0.5,0,0.8,0.1c0.4,0.1,0.7,0.3,1.1,0.5
	c0.4,0.2,0.7,0.5,1,0.8c0.6,0.5,1.1,1,1.5,1.6c0.5,0.6,1,1.3,1.5,2C7.4,6.5,7.7,7,8,7.5c0,0,0,0,0,0.1c0,0,0,0,0-0.1
	c0.3-0.6,0.7-1.2,1-1.7c0.6-0.8,1.2-1.6,1.8-2.3c0.4-0.4,0.8-0.8,1.2-1.2c0.4-0.3,0.8-0.6,1.3-0.9c0.3-0.1,0.6-0.3,0.9-0.3
	c0.2,0,0.4-0.1,0.6,0c0.4,0.1,0.6,0.3,0.8,0.6c0.1,0.2,0.1,0.4,0.2,0.6c0,0.3,0,0.6,0,0.9c0,0.2,0,0.5,0,0.7c0,0.3,0,0.5-0.1,0.8
	c0,0.2,0,0.4,0,0.5c0,0.2,0,0.4-0.1,0.7c0,0.2,0,0.5-0.1,0.7c0,0.2-0.1,0.5-0.1,0.7c-0.3,0.9-0.8,1.5-1.6,1.9
	c-0.4,0.2-0.8,0.3-1.2,0.3c-0.3,0-0.6,0-0.9,0c-0.1,0-0.2,0-0.3,0c0,0,0,0,0,0c0,0,0.1,0,0.1,0c0.5,0.1,1,0.3,1.4,0.5
	c0.3,0.2,0.6,0.3,0.8,0.6c0.2,0.2,0.4,0.5,0.4,0.7c0.1,0.4,0.1,0.7-0.1,1c-0.1,0.3-0.3,0.6-0.6,0.9c-0.3,0.4-0.7,0.7-1.1,1
	c-0.2,0.2-0.5,0.3-0.8,0.4c-0.6,0.2-1.2,0.1-1.8-0.3c-0.3-0.2-0.5-0.5-0.7-0.7c-0.3-0.4-0.5-0.8-0.7-1.3c-0.1-0.3-0.2-0.6-0.4-1
	c0,0,0-0.1-0.1-0.1c0,0,0,0.1-0.1,0.1c-0.1,0.2-0.2,0.4-0.2,0.7c-0.2,0.6-0.5,1.1-0.8,1.6c-0.2,0.3-0.5,0.6-0.8,0.8
	c-0.3,0.2-0.7,0.4-1.1,0.3c-0.3,0-0.5-0.1-0.8-0.2c-0.3-0.1-0.6-0.3-0.9-0.5c-0.3-0.3-0.7-0.6-0.9-0.9c-0.2-0.3-0.4-0.6-0.5-1
	c-0.1-0.5,0-1,0.3-1.5c0.2-0.3,0.5-0.4,0.8-0.6c0.4-0.2,0.9-0.4,1.4-0.5C4.5,9.6,4.6,9.6,4.8,9.5C4.7,9.6,4.8,9.5,4.8,9.5
	C4.8,9.5,4.8,9.5,4.8,9.5z"/>
</svg>
