<?xml version="1.0" encoding="utf-8"?>
<!-- Generator: Adobe Illustrator 27.9.1, SVG Export Plug-In . SVG Version: 6.00 Build 0)  -->
<svg version="1.1" id="Layer_1" xmlns="http://www.w3.org/2000/svg" xmlns:xlink="http://www.w3.org/1999/xlink" x="0px" y="0px"
	 viewBox="0 0 16 16" style="enable-background:new 0 0 16 16;" xml:space="preserve">
<style type="text/css">
	.st0{opacity:0.67;fill:#FFFFFF;stroke:#FFFFFF;stroke-width:3;stroke-miterlimit:10;}
	.st1{opacity:0.44;fill:#FFFFFF;}
	.st2{opacity:0.67;fill:#090909;}
	.st3{opacity:0.67;fill:#FAED36;stroke:#FFFFFF;stroke-width:3;stroke-miterlimit:10;}
	.st4{fill:#D362A2;}
	.st5{fill:#F79721;}
	.st6{fill:#FAFBFB;}
	.st7{fill:#090909;}
	.st8{fill:none;stroke:#0A0A0A;stroke-miterlimit:10;}
	.st9{fill:#E03926;}
	.st10{fill:#467CBE;}
	.st11{fill:url(#SVGID_1_);}
	.st12{fill:url(#SVGID_00000122696184303832672440000002968118458434564011_);}
	.st13{fill:#FFFFFF;}
	.st14{fill-rule:evenodd;clip-rule:evenodd;fill:#363638;}
	.st15{fill:url(#SVGID_00000006696224245192386270000010191631908786312624_);}
	.st16{fill:#F7971D;}
</style>
<g>
	<path class="st16" d="M14,6.6H2c-0.4,0-0.6,0.3-0.6,0.7v6.9c0,0.4,0.2,0.6,0.6,0.7H14c0.4,0,0.6-0.3,0.6-0.7V7.3
		C14.6,6.9,14.4,6.7,14,6.6"/>
	<path d="M13.4,9.9c-0.2-0.2-0.5-0.4-0.8-0.4c-0.1,0-0.2,0-0.3,0c-0.4,0-0.9,0.1-1.1,0.3l0.1-1.6h-1v5h0.9v-0.3
		c0.2,0.2,0.5,0.4,1,0.4h0.1c0.4,0,0.8-0.2,1.1-0.5c0.3-0.3,0.4-0.8,0.4-1.4C13.9,10.6,13.7,10.2,13.4,9.9 M12.6,12.1
		c-0.1,0.2-0.3,0.3-0.5,0.3c-0.3,0-0.5-0.1-0.7-0.4c-0.1-0.2-0.2-0.5-0.2-0.8c0-0.4,0.1-0.6,0.2-0.8c0.2-0.2,0.3-0.3,0.6-0.3
		c0.2,0,0.4,0.1,0.6,0.3c0.2,0.2,0.2,0.5,0.2,0.9C12.9,11.7,12.8,12,12.6,12.1 M8.8,11c0,0.5,0,0.8-0.1,1c-0.1,0.1-0.1,0.2-0.3,0.3
		c-0.1,0.1-0.3,0.1-0.4,0.1c-0.1,0-0.3,0-0.4-0.1c-0.1-0.1-0.2-0.2-0.2-0.3c0-0.1-0.1-0.4-0.1-0.9V9.5h-1v2.3c0,0.3,0,0.6,0.1,0.8
		C6.6,12.8,6.8,12.9,7,13c0.2,0.1,0.4,0.2,0.7,0.2c0,0,0.1,0,0.1,0c0.6,0,0.9-0.3,1.1-0.5v0.4h0.9V9.5h-1L8.8,11z M5.6,9.8
		C5.5,9.7,5.4,9.6,5.2,9.5C5.1,9.4,4.9,9.4,4.7,9.4h0c-0.4,0-0.9,0.1-1.2,0.3V8.1h-1v5h1v-1.8c0-0.3,0-0.5,0.1-0.7
		c0.1-0.2,0.2-0.3,0.3-0.4c0.1-0.1,0.3-0.1,0.4-0.1c0.1,0,0.3,0,0.4,0.1c0.1,0.1,0.2,0.1,0.2,0.2c0,0.1,0.1,0.3,0.1,0.7v1.9h1V11
		c0-0.3,0-0.6-0.1-0.7C5.8,10.1,5.7,9.9,5.6,9.8"/>
	<path d="M14,2.9c0-0.1-0.1-0.3-0.2-0.4c-0.1-0.1-0.2-0.2-0.4-0.3S13.2,2.2,13,2.2c-0.3,0-0.9,0.1-1.1,0.4V2.3h-0.8v3.2H12V4
		c0-0.4,0-0.6,0.1-0.7c0-0.1,0.1-0.2,0.2-0.3c0.1-0.1,0.3-0.1,0.4-0.1c0.1,0,0.2,0,0.3,0.1c0.1,0.1,0.1,0.1,0.2,0.2
		c0,0.1,0.1,0.3,0.1,0.7v1.6h0.8v-2C14.1,3.2,14.1,3.1,14,2.9"/>
	<path d="M10,2.2c-0.3,0-0.5,0.2-0.6,0.4V2.3H8.6v3.2h0.8v-1c0-0.5,0-0.9,0.1-1.1c0-0.2,0.1-0.3,0.2-0.4C9.8,3,9.9,3,10,3
		c0.1,0,0.3,0,0.4,0.1l0.3-0.7c-0.2-0.1-0.4-0.2-0.6-0.2C10.1,2.2,10.1,2.2,10,2.2"/>
	<path d="M7.8,2.7C7.4,2.4,7,2.2,6.6,2.2h0C6.2,2.2,6,2.3,5.7,2.4C5.5,2.6,5.3,2.8,5.1,3C5,3.3,4.9,3.6,4.9,3.8
		c0,0.4,0.1,0.7,0.2,0.9C5.3,5,5.5,5.2,5.7,5.4C6,5.5,6.3,5.6,6.6,5.6c0.5,0,0.9-0.2,1.2-0.5c0.3-0.3,0.5-0.7,0.5-1.2
		C8.2,3.4,8.1,3,7.8,2.7z M7.1,4.6C7,4.8,6.8,4.9,6.6,4.9S6.2,4.8,6,4.6C5.9,4.4,5.8,4.2,5.8,3.9S5.9,3.3,6,3.2
		C6.2,3,6.3,2.9,6.6,2.9C6.8,2.9,7,3,7.1,3.2c0.1,0.2,0.2,0.4,0.2,0.7C7.3,4.2,7.3,4.4,7.1,4.6z"/>
	<path d="M4.5,1.6C4.3,1.3,4.1,1.2,3.8,1.1l0,0c-0.2,0-0.5-0.1-1.1-0.1H1.4v4.4h0.9V3.8h0.6c0.4,0,0.7,0,0.9-0.1
		c0.2,0,0.3-0.1,0.5-0.2c0.2-0.1,0.3-0.3,0.4-0.4c0.1-0.2,0.1-0.4,0.1-0.7C4.7,2.1,4.7,1.8,4.5,1.6z M3.7,2.8L3.7,2.8
		C3.7,2.9,3.6,2.9,3.4,3C3.3,3,3.1,3.1,2.7,3.1H2.2V1.8h0.4c0.3,0,0.5,0,0.6,0c0.1,0,0.3,0.1,0.4,0.2c0.1,0.1,0.1,0.2,0.1,0.4
		C3.8,2.6,3.8,2.7,3.7,2.8z"/>
</g>
</svg>
