<?xml version="1.0" encoding="utf-8"?>
<!-- Generator: Adobe Illustrator 27.9.1, SVG Export Plug-In . SVG Version: 6.00 Build 0)  -->
<svg version="1.1" id="Layer_1" xmlns="http://www.w3.org/2000/svg" xmlns:xlink="http://www.w3.org/1999/xlink" x="0px" y="0px"
	 viewBox="0 0 16 16" style="enable-background:new 0 0 16 16;" xml:space="preserve">
<style type="text/css">
	.st0{opacity:0.67;fill:#FFFFFF;stroke:#FFFFFF;stroke-width:3;stroke-miterlimit:10;}
	.st1{opacity:0.44;fill:#FFFFFF;}
	.st2{opacity:0.67;fill:#090909;}
	.st3{opacity:0.67;fill:#FAED36;stroke:#FFFFFF;stroke-width:3;stroke-miterlimit:10;}
	.st4{fill:#D362A2;}
	.st5{fill:#F79721;}
	.st6{fill:#FAFBFB;}
	.st7{fill:#090909;}
	.st8{fill:none;stroke:#0A0A0A;stroke-miterlimit:10;}
	.st9{fill:#E03926;}
	.st10{fill:#467CBE;}
	.st11{fill:url(#SVGID_1_);}
	.st12{fill:url(#SVGID_00000047775148751411473930000015427577921479410572_);}
	.st13{fill:#FFFFFF;}
	.st14{fill-rule:evenodd;clip-rule:evenodd;fill:#363638;}
	.st15{fill:url(#SVGID_00000148621600750521328420000016659287670704725397_);}
	.st16{fill:#F7971D;}
</style>
<g>
	<g transform="translate(.000186)">
		<path class="st14" d="M14.6,8.9c-0.2,0.6-0.9,1.6-1.5,2.3c-0.6,0.7-1.3,1.3-2.1,1.8c-0.8,0.5-2,1-2.9,1c-1,0-2.1-0.5-2.9-1
			c-0.8-0.5-1.5-1.1-2.1-1.8c-0.6-0.7-1.3-1.7-1.5-2.3c-0.1-0.2-0.1-0.5,0-0.8c0.2-0.4,0.5-0.9,0.9-1.1c0.1-0.1,0.3-0.2,0.4-0.1
			C3,6.9,3.2,7.3,3.3,7.5C3.3,7.6,3.2,7.7,3.1,7.8C2.5,8.4,2.6,9.1,3,9.8c0.5,0.9,1.4,1.9,2.2,2.6c-0.6-1.3-0.3-3,1-3.8
			c-0.1,1.6,3.6,1.9,3.8,0c1.4,0.8,1.6,2.4,1,3.8c0.8-0.7,1.7-1.6,2.2-2.6c0.3-0.7,0.4-1.5-0.1-2c-0.1-0.1-0.2-0.2-0.3-0.2
			c0.1-0.2,0.3-0.7,0.6-0.7c0.1,0,0.3,0,0.4,0.1c0.4,0.3,0.7,0.7,0.9,1.1C14.7,8.4,14.7,8.6,14.6,8.9 M3.4,2.9
			c0.3-0.2,0.8,0.1,1,0.4c0.3,0.4,0.4,0.8,0.1,1.2C4.3,4.8,3.9,5.2,3.6,5.4C3.5,5.2,3.4,5,3.4,4.9C3.3,4.7,3.2,4.4,3.2,4.2
			C3.1,3.9,3,3.1,3.4,2.9 M5.2,5c0.3-0.2,0.9-0.3,1.2,0c0.3,0.2,0.3,0.7,0.2,1.1c0,0.1-0.1,0.2-0.2,0.3c0-0.6-0.4-1-1-1
			c-0.2,0-0.4,0.1-0.6,0.3c-0.3,0.3-0.3,0.7,0,1c-0.1,0-0.2-0.1-0.3-0.1C4.5,6.5,4.5,6.3,4.5,6.2C4.5,5.7,4.8,5.3,5.2,5 M6.3,3.5
			c0-0.1,0.2-0.1,0.3-0.2C6.8,3.3,7.4,3.2,8,3.2l0,0l0,0c0.6,0,1.1,0.1,1.5,0.2c0.1,0,0.2,0.1,0.3,0.2c0,0,0,0.1,0,0.1
			c0,0.1-0.4,0.3-0.4,0.4c-0.5,0.4-0.9,0.8-1,1.4c-0.1,0.4-0.1,0.7,0,1.1C8.5,7.1,8.9,7.5,9.1,8c0.1,0.3,0.1,0.5,0,0.7
			C8.9,9.1,8.4,9.1,8,9.1l0,0l0,0c-0.4,0-0.9-0.1-1.1-0.4C6.8,8.5,6.8,8.2,6.9,8c0.2-0.5,0.6-0.8,0.8-1.4c0.1-0.3,0.1-0.7,0-1.1
			c-0.2-0.7-0.5-1-1-1.4C6.6,4,6.3,3.7,6.3,3.7C6.2,3.6,6.2,3.6,6.3,3.5 M10.8,5c0.4,0.2,0.7,0.7,0.7,1.1c0,0.2,0,0.4-0.1,0.5
			c-0.1,0.1-0.1,0.1-0.3,0.1c0.2-0.4,0.2-0.7,0-1c-0.2-0.2-0.3-0.3-0.6-0.3c-0.6,0-1,0.4-1,1C9.4,6.3,9.4,6.2,9.4,6.1
			C9.2,5.7,9.3,5.3,9.6,5C9.9,4.8,10.5,4.8,10.8,5 M11.6,3.3c0.2-0.2,0.7-0.5,1-0.4c0.3,0.2,0.3,1,0.2,1.3c0,0.2-0.1,0.4-0.2,0.7
			c-0.1,0.2-0.1,0.4-0.2,0.6c-0.3-0.3-0.7-0.6-0.9-0.9C11.2,4.1,11.3,3.6,11.6,3.3 M15.2,7.8c-0.4-0.8-0.8-1.1-1.4-1.5
			c-0.2-0.2-0.4-0.3-0.5-0.5c-0.1-0.1-0.1-0.2-0.1-0.3c0-0.1,0-0.3,0.1-0.4c0.2-0.6,0.3-1,0.3-1.7c0-0.8-0.3-2.1-1.3-2.1
			c-0.1,0-0.3,0-0.4,0.1c-0.2,0.1-0.4,0.2-0.6,0.4C11,2,10.4,2.9,10.2,3c0,0-0.1,0-0.1,0C9.3,2.7,8.9,2.6,8,2.6
			C7.1,2.6,6.7,2.7,5.9,3c0,0-0.1,0-0.1,0C5.6,2.9,5,2,4.8,1.8C4.6,1.6,4.4,1.4,4.2,1.4C4,1.3,3.9,1.3,3.8,1.3c-1,0-1.3,1.3-1.3,2.1
			c0,0.6,0.1,1.1,0.3,1.7c0,0.1,0.1,0.3,0.1,0.4c0,0.1,0,0.2-0.1,0.3C2.6,6,2.4,6.1,2.2,6.3c-0.6,0.4-1,0.7-1.4,1.5
			C0.7,8,0.7,8.3,0.7,8.5c0,0.4,0.2,0.8,0.4,1.3c0.5,1,1.5,2.2,2.2,2.8c1.4,1.2,3.1,2,4.5,2.1c0.1,0,0.1,0,0.2,0c0.1,0,0.1,0,0.2,0
			c1.5-0.1,3.2-0.9,4.5-2.1c0.7-0.6,1.7-1.8,2.2-2.8c0.2-0.5,0.4-0.8,0.4-1.3C15.3,8.3,15.3,8,15.2,7.8"/>
		<path class="st14" d="M8.8,12.5c0,0.1-0.1,0.1-0.1,0.1c-0.1,0.1-0.2,0.1-0.3,0.1c-0.1,0-0.3,0.1-0.3,0.1v-1.6
			c0.3,0.2,0.7,0.3,1,0.2C9.2,11.5,8.9,12.2,8.8,12.5z M7.9,12.8c-0.1,0-0.2,0-0.3-0.1c-0.1,0-0.2-0.1-0.3-0.1c0,0-0.1-0.1-0.1-0.1
			c-0.1-0.2-0.4-1-0.4-1c0.4,0,0.7,0,1-0.2L7.9,12.8z M9.3,11c-0.1,0-0.3,0.1-0.5,0.1c-0.2,0-0.5-0.1-0.6-0.4c0,0-0.1,0-0.2,0l0,0
			l0,0l0,0l0,0c-0.1,0-0.2,0-0.2,0c-0.1,0.3-0.4,0.3-0.6,0.4c-0.2,0-0.3,0-0.5-0.1c-0.5-0.2-0.6-0.2-1.2-0.2C6.1,12.1,7,13,8,13l0,0
			l0,0h0h0l0,0l0,0c1,0,1.9-0.9,2.4-2.2C9.9,10.8,9.8,10.9,9.3,11L9.3,11z"/>
	</g>
</g>
</svg>
